<?xml version="1.0" encoding="UTF-8" standalone="no"?>
<!-- Created with Inkscape (http://www.inkscape.org/) -->

<svg
   width="135.44588mm"
   height="135.44168mm"
   viewBox="0 0 135.44588 135.44168"
   version="1.1"
   id="svg1"
   xml:space="preserve"
   inkscape:version="1.4 (86a8ad7, 2024-10-11)"
   sodipodi:docname="activites_en_salle_violet.svg"
   xmlns:inkscape="http://www.inkscape.org/namespaces/inkscape"
   xmlns:sodipodi="http://sodipodi.sourceforge.net/DTD/sodipodi-0.dtd"
   xmlns="http://www.w3.org/2000/svg"
   xmlns:svg="http://www.w3.org/2000/svg"><sodipodi:namedview
     id="namedview1"
     pagecolor="#ffffff"
     bordercolor="#000000"
     borderopacity="0.25"
     inkscape:showpageshadow="2"
     inkscape:pageopacity="0.0"
     inkscape:pagecheckerboard="0"
     inkscape:deskcolor="#d1d1d1"
     inkscape:document-units="mm"
     inkscape:zoom="1.0405163"
     inkscape:cx="281.59098"
     inkscape:cy="395.47676"
     inkscape:window-width="2560"
     inkscape:window-height="1494"
     inkscape:window-x="-11"
     inkscape:window-y="-11"
     inkscape:window-maximized="1"
     inkscape:current-layer="layer1" /><defs
     id="defs1" /><g
     inkscape:label="Calque 1"
     inkscape:groupmode="layer"
     id="layer1"
     transform="translate(154.48373,-73.938794)"><path
       style="fill:#9f5cc0;fill-opacity:1"
       d="m -153.59453,208.48085 c -0.98994,-0.98994 -1.13696,-1.84267 -0.52255,-3.0308 0.6498,-1.25659 1.26275,-1.36129 7.96979,-1.36129 h 6.20526 v -15.875 -15.875 h 8.29239 8.29239 l 0.82966,2.71198 c 2.4618,8.04703 3.64639,15.18444 4.43521,26.72292 l 0.15826,2.3151 h 2.65391 2.65391 l -0.1821,-3.37343 c -0.49595,-9.1878 -2.17367,-19.31294 -4.3881,-26.48244 -0.29051,-0.94054 -0.49671,-1.73331 -0.45822,-1.76171 0.0385,-0.0284 0.98265,-0.1755 2.09814,-0.32688 4.68532,-0.63586 7.47009,-3.57417 7.4638,-7.87533 -0.006,-4.17876 -2.99453,-7.48365 -7.21952,-7.98403 l -1.29891,-0.15384 0.92452,-2.54565 c 1.30218,-3.58552 2.5805,-8.13508 3.24289,-11.54148 0.31127,-1.60072 0.62244,-3.17364 0.6915,-3.49536 0.12542,-0.5843 0.12652,-0.58439 0.98302,-0.0866 2.431,1.41276 6.01498,1.66618 8.46351,0.59846 1.11773,-0.48741 1.13284,-0.48663 2.976395,0.15486 1.521882,0.52955 2.170566,0.61818 3.630496,0.49605 0.977643,-0.0818 2.294365,-0.37732 2.926048,-0.65674 1.138774,-0.50374 1.159602,-0.50347 2.4558,0.031 1.819405,0.75026 5.293082,0.75026 7.112486,0 1.296198,-0.53451 1.317026,-0.53478 2.4558,-0.031 1.916563,0.84778 4.378748,0.91134 6.581588,0.16989 1.85357,-0.62389 1.89231,-0.62588 2.9764,-0.15314 2.41835,1.05457 6.01728,0.79747 8.42584,-0.60193 l 0.84484,-0.49086 0.28901,1.50355 c 0.80677,4.19706 2.02173,8.85988 3.27017,12.55032 l 1.389,4.10597 -1.25201,0.14828 c -4.20544,0.49807 -7.19787,3.81246 -7.21541,7.99174 -0.0181,4.30893 3.09319,7.45013 7.86467,7.9403 1.51829,0.15597 1.7748,0.25282 1.63035,0.61559 -0.0943,0.23678 -0.69554,2.48181 -1.33614,4.98895 -1.86797,7.31076 -3.00406,14.87185 -3.43964,22.89208 l -0.18321,3.37343 h 2.65792 2.65791 l 0.15304,-2.3151 c 0.74185,-11.22188 1.98262,-18.68891 4.44043,-26.72292 l 0.82966,-2.71198 h 8.2924 8.29239 v 15.875 15.875 h 6.20525 c 6.70704,0 7.31999,0.1047 7.9698,1.36129 0.6144,1.18813 0.46738,2.04086 -0.52255,3.0308 l -0.89959,0.89958 h -65.934161 -65.934162 z m 13.6525,-44.34417 v -2.64583 h 12.04703 c 12.90851,0 13.46685,0.0526 14.15188,1.33256 0.59639,1.11437 0.3894,2.41708 -0.51205,3.22252 l -0.82438,0.73658 h -12.43124 -12.43124 z m 80.675623,1.90925 c -0.90145,-0.80544 -1.10844,-2.10815 -0.51204,-3.22252 0.68502,-1.27999 1.24336,-1.33256 14.15187,-1.33256 h 12.04704 v 2.64583 2.64583 h -12.43125 -12.43124 z m -80.675623,-25.72175 v -15.875 h 12.03854 12.03854 l -0.004,0.59532 c -0.0153,2.21937 -0.62697,9.09705 -1.06279,11.94948 -0.87091,5.69996 -2.97799,13.28252 -4.9876,17.94843 l -0.5413,1.25677 h -8.74065 -8.74065 z m 88.782413,15.63423 c -0.0818,-0.13242 -0.66972,-1.59094 -1.30639,-3.24115 -1.92485,-4.98907 -3.43933,-10.87331 -4.24527,-16.49412 -0.37605,-2.62271 -0.93711,-9.19483 -0.94302,-11.04635 l -0.002,-0.72761 h 12.03855 12.03854 v 15.875 15.875 h -8.71564 c -4.95038,0 -8.77992,-0.10401 -8.86444,-0.24077 z m -56.029293,-21.705 c -1.22449,-0.38889 -2.25778,-1.29406 -2.8325,-2.48128 -0.46291,-0.95624 -0.55188,-1.63837 -0.55188,-4.23148 v -3.09147 h 23.812502 23.812501 v 3.09147 c 0,2.60956 -0.0875,3.27218 -0.56122,4.25079 -0.6043,1.24832 -1.94739,2.28887 -3.31925,2.57158 -1.98867,0.40983 -4.53592,-1.12125 -5.22505,-3.14062 l -0.35217,-1.03199 -0.30714,0.93065 c -0.73771,2.23526 -3.48375,3.77732 -5.598322,3.14378 -1.351141,-0.40481 -2.78256,-1.66719 -3.200263,-2.82233 -0.180568,-0.49935 -0.399532,-0.90791 -0.486586,-0.90791 -0.08705,0 -0.306018,0.40856 -0.486586,0.90791 -0.419108,1.15903 -1.850338,2.41788 -3.213194,2.8262 -1.970566,0.5904 -4.608071,-0.80586 -5.338634,-2.8262 -0.387109,-1.07053 -0.633668,-1.14751 -0.8547,-0.26684 -0.367824,1.46552 -2.732672,3.30786 -4.262094,3.32039 -1.867341,0.0153 -4.060954,-1.57514 -4.654954,-3.375 l -0.30715,-0.93065 -0.34066,0.99093 c -0.79536,2.31354 -3.52135,3.77437 -5.73265,3.07207 z M -139.765,118.98178 c -0.0974,-0.0974 -0.17703,-1.8836 -0.17703,-3.9694 v -3.79236 h 53.188315 53.188318 l -0.0732,3.9026 -0.0732,3.90261 -52.938061,0.0668 c -29.115932,0.0367 -53.017732,-0.0129 -53.115102,-0.11024 z m 0.37418,-13.4252 c 0.0606,-0.059 11.9272,-7.197067 26.37014,-15.862486 l 26.259892,-15.7553 26.259891,15.7553 c 14.44295,8.665419 26.30951,15.803536 26.37014,15.862486 0.0606,0.0589 -23.62288,0.10719 -52.630031,0.10719 -29.007152,0 -52.690662,-0.0482 -52.630032,-0.10719 z"
       id="path1" /></g></svg>
