<?xml version="1.0" encoding="UTF-8" standalone="no"?>
<!-- Created with Inkscape (http://www.inkscape.org/) -->

<svg
   width="131.25934mm"
   height="79.08551mm"
   viewBox="0 0 131.25934 79.08551"
   version="1.1"
   id="svg1"
   xml:space="preserve"
   inkscape:version="1.4 (86a8ad7, 2024-10-11)"
   sodipodi:docname="aqueduc_violet.svg"
   xmlns:inkscape="http://www.inkscape.org/namespaces/inkscape"
   xmlns:sodipodi="http://sodipodi.sourceforge.net/DTD/sodipodi-0.dtd"
   xmlns="http://www.w3.org/2000/svg"
   xmlns:svg="http://www.w3.org/2000/svg"><sodipodi:namedview
     id="namedview1"
     pagecolor="#ffffff"
     bordercolor="#000000"
     borderopacity="0.25"
     inkscape:showpageshadow="2"
     inkscape:pageopacity="0.0"
     inkscape:pagecheckerboard="0"
     inkscape:deskcolor="#d1d1d1"
     inkscape:document-units="mm"
     inkscape:zoom="1.0405163"
     inkscape:cx="234.01844"
     inkscape:cy="87.456585"
     inkscape:window-width="2560"
     inkscape:window-height="1494"
     inkscape:window-x="-11"
     inkscape:window-y="-11"
     inkscape:window-maximized="1"
     inkscape:current-layer="layer1" /><defs
     id="defs1" /><g
     inkscape:label="Calque 1"
     inkscape:groupmode="layer"
     id="layer1"
     transform="translate(-39.403382,-126.25267)"><path
       style="display:inline;fill:#9f5cc0;fill-opacity:1"
       d="m 68.535377,205.17025 c -3.582613,-0.44891 -5.105696,-1.22818 -5.55378,-2.84155 -0.159499,-0.57429 -0.273007,-4.35629 -0.273871,-9.12522 -0.0012,-6.51604 0.07518,-8.32789 0.381899,-9.06198 0.210855,-0.50464 0.508512,-0.91754 0.661458,-0.91754 0.451589,0 0.320154,-2.39611 -0.255289,-4.65403 -2.415348,-9.47731 -10.450736,-16.11662 -20.491566,-16.93133 -2.084016,-0.16909 -2.328156,-0.24928 -2.92747,-0.96153 -0.830146,-0.98657 -0.834858,-2.08473 -0.01303,-3.03679 0.613505,-0.71073 0.735523,-0.74076 2.863516,-0.70471 7.96653,0.13495 16.124364,4.53558 20.953595,11.30315 1.611632,2.25849 3.475556,6.21889 4.116269,8.74609 0.292158,1.15238 0.564318,2.12835 0.604801,2.16884 0.212833,0.21283 1.777259,-1.33292 1.777259,-1.75604 0,-0.91385 -1.370918,-4.86728 -2.417327,-6.97106 -1.433959,-2.88293 -2.625639,-4.60976 -4.753736,-6.8885 -5.267529,-5.64042 -11.802256,-8.70943 -19.836004,-9.3159 -2.236874,-0.16886 -2.561544,-0.26151 -3.21851,-0.91848 -0.995768,-0.99577 -0.980226,-2.15003 0.04272,-3.17298 0.885462,-0.88546 1.52032,-0.94371 5.444311,-0.49948 11.474555,1.29901 21.426765,8.34545 26.675624,18.88709 l 1.128601,2.26665 0.958121,-2.04873 c 4.519367,-9.66363 13.591969,-16.61452 24.485687,-18.75949 3.449365,-0.67918 9.427215,-0.60915 13.030095,0.15265 10.6426,2.25027 19.53674,9.37537 24.0658,19.27912 l 0.63935,1.39808 1.33984,-2.58871 c 0.73692,-1.42378 1.86475,-3.36261 2.5063,-4.30849 1.64606,-2.42691 6.38265,-7.06547 8.88725,-8.70332 5.45891,-3.56976 11.48541,-5.52804 17.41848,-5.66004 2.90743,-0.0647 3.50581,0.25077 3.78929,1.99763 0.13467,0.82987 0.0442,1.07631 -0.64958,1.77012 -0.69614,0.69614 -0.99816,0.80617 -2.21544,0.80709 -3.52447,0.003 -9.0647,1.37592 -12.52191,3.10381 -5.10757,2.55273 -9.81252,7.10646 -12.64743,12.24096 -0.98137,1.77741 -2.8307,6.92922 -2.8307,7.88568 0,0.48141 1.55708,2.02252 1.79902,1.78058 0.0524,-0.0524 0.33189,-1.02843 0.62098,-2.16883 0.64717,-2.553 2.68274,-6.87127 4.15778,-8.82035 5.05797,-6.68348 12.2793,-10.69308 19.88056,-11.03856 3.51399,-0.15971 4.12834,0.0957 4.4063,1.83201 0.13562,0.8472 0.0477,1.08908 -0.64916,1.78594 -0.67147,0.67148 -1.01921,0.80757 -2.08314,0.81526 -1.84332,0.0133 -4.94893,0.61539 -7.17888,1.39173 -3.10571,1.08122 -5.47684,2.64519 -8.26404,5.45088 -2.03823,2.05176 -2.75921,2.99925 -3.74538,4.92212 -1.36226,2.65617 -2.21871,5.25669 -2.55124,7.74657 -0.20375,1.52561 -0.17275,1.71413 0.37994,2.31049 0.88928,0.95955 0.9909,2.30697 0.83829,11.11507 -0.15161,8.75034 -0.1618,8.80524 -1.79019,9.6432 -1.72526,0.88782 -3.91892,1.17981 -8.86355,1.17981 -6.10974,0 -8.48477,-0.48334 -9.9142,-2.01765 -0.51835,-0.55639 -0.53684,-0.8975 -0.53684,-9.90542 v -9.32919 l 0.61501,-0.6636 c 0.57646,-0.62201 0.60089,-0.78178 0.38981,-2.54913 -0.31493,-2.63684 -1.54387,-6.2769 -2.8765,-8.52005 -1.58542,-2.66866 -5.0014,-6.12517 -7.61009,-7.70037 -4.28203,-2.58562 -9.46981,-3.73511 -14.17494,-3.14084 -3.120936,0.39418 -6.437204,1.49646 -8.939305,2.97128 -2.529742,1.49113 -6.384231,5.34127 -7.868525,7.85965 -1.333143,2.26193 -2.559881,5.90351 -2.873611,8.53033 -0.21108,1.76735 -0.186648,1.92712 0.389811,2.54913 l 0.615005,0.6636 -0.0059,9.31293 c -0.0053,8.42333 -0.04955,9.36707 -0.463021,9.87968 -1.116783,1.38456 -3.532281,1.94807 -8.923805,2.08182 -2.182812,0.0542 -4.857987,-0.013 -5.944832,-0.14915 z m 10.508895,-4.83013 c 0.250537,-0.16215 0.330729,-1.87284 0.330729,-7.05523 v -6.84118 l -1.653646,-1.42415 c -0.909505,-0.78328 -2.250907,-1.91224 -2.980892,-2.5088 l -1.327247,-1.08465 -2.972196,2.42028 -2.972196,2.42028 0.06611,7.00897 0.06611,7.00897 0.79375,0.18185 c 1.084744,0.24852 10.238071,0.13993 10.64948,-0.12634 z m 63.235418,0 c 0.25085,-0.16236 0.33,-1.8878 0.3277,-7.14375 l -0.003,-6.9297 -2.96517,-2.41699 -2.96518,-2.41699 -2.53422,2.0721 c -3.8359,3.13642 -3.45565,2.01743 -3.37401,9.92901 l 0.0707,6.85083 0.79375,0.18184 c 1.08477,0.24851 10.23808,0.13991 10.64948,-0.12635 z M 80.811776,171.71459 c 5.05869,-10.22296 15.63573,-16.09247 26.909414,-14.93284 5.61783,0.57787 10.10038,2.44454 14.64021,6.09664 3.94115,3.17049 7.63027,8.96335 8.94753,14.0499 l 0.59648,2.30328 0.85459,-0.66881 c 1.07549,-0.8417 1.08055,-1.33145 0.0458,-4.4279 -1.51698,-4.53933 -3.93507,-8.31958 -7.56908,-11.83292 -3.48341,-3.36773 -7.41946,-5.64707 -12.02465,-6.96337 -5.61697,-1.6055 -10.78292,-1.60278 -16.343457,0.009 -9.199689,2.66596 -16.568654,9.73127 -19.595178,18.78769 -1.034786,3.09645 -1.029724,3.5862 0.04577,4.4279 l 0.854586,0.66881 0.59892,-2.30328 c 0.329405,-1.26681 1.247,-3.61298 2.039099,-5.2137 z M 40.107895,137.69533 c -0.860721,-1.02291 -0.877115,-2.10807 -0.04644,-3.0738 l 0.638541,-0.74236 63.929824,-0.0678 c 70.02216,-0.0742 65.16502,-0.17911 65.77322,1.42057 0.41716,1.09722 0.29407,1.68975 -0.52018,2.504 l -0.7734,0.7734 H 104.95117 40.792873 Z m 0.08842,-7.1031 c -1.123634,-1.12363 -1.054652,-2.20616 0.217007,-3.40548 l 0.990404,-0.93408 19.58095,0.17503 c 10.769523,0.0963 39.503314,0.17512 63.852864,0.17523 l 44.27192,2e-4 0.7734,0.77339 c 1.03981,1.03982 1.03981,2.17589 0,3.21571 l -0.7734,0.7734 H 105.03959 40.969711 Z"
       id="path1" /></g></svg>
