<?xml version="1.0" encoding="UTF-8" standalone="no"?>
<!-- Created with Inkscape (http://www.inkscape.org/) -->

<svg
   width="135.4288mm"
   height="134.39142mm"
   viewBox="0 0 135.4288 134.39142"
   version="1.1"
   id="svg1"
   xml:space="preserve"
   inkscape:version="1.4 (86a8ad7, 2024-10-11)"
   sodipodi:docname="artisan_de_bouche_violet.svg"
   xmlns:inkscape="http://www.inkscape.org/namespaces/inkscape"
   xmlns:sodipodi="http://sodipodi.sourceforge.net/DTD/sodipodi-0.dtd"
   xmlns:xlink="http://www.w3.org/1999/xlink"
   xmlns="http://www.w3.org/2000/svg"
   xmlns:svg="http://www.w3.org/2000/svg"><sodipodi:namedview
     id="namedview1"
     pagecolor="#ffffff"
     bordercolor="#000000"
     borderopacity="0.25"
     inkscape:showpageshadow="2"
     inkscape:pageopacity="0.0"
     inkscape:pagecheckerboard="0"
     inkscape:deskcolor="#d1d1d1"
     inkscape:document-units="mm"
     inkscape:zoom="0.73575611"
     inkscape:cx="136.59418"
     inkscape:cy="395.51149"
     inkscape:window-width="2560"
     inkscape:window-height="1494"
     inkscape:window-x="-11"
     inkscape:window-y="-11"
     inkscape:window-maximized="1"
     inkscape:current-layer="layer1" /><defs
     id="defs1" /><g
     inkscape:label="Calque 1"
     inkscape:groupmode="layer"
     id="layer1"
     transform="translate(-37.079523,-81.243994)"><image
       width="135.46666"
       height="135.46666"
       preserveAspectRatio="none"
       xlink:href="artisan_de_bouche.png"
       id="image1"
       x="37.041672"
       y="80.697922" /><path
       style="fill:#9f5cc0;fill-opacity:1"
       d="m 159.01458,199.76042 v -15.875 H 123.42813 87.841669 v -1.98438 -1.98437 h 6.598968 c 3.629433,0 6.650233,-0.0893 6.712883,-0.19844 0.0627,-0.10914 -0.39902,-2.81781 -1.02595,-6.01927 -0.626931,-3.20146 -1.203972,-6.14826 -1.282315,-6.54844 l -0.142441,-0.7276 h 36.902756 36.90276 v 2.64583 2.64583 h -3.175 -3.175 v 21.96042 21.96041 h -3.57187 -3.57188 z m -96.969785,15.17151 c -1.159715,-0.61031 -2.227407,-1.67394 -2.802356,-2.7917 -0.481847,-0.93677 -0.504935,-1.78039 -0.504935,-18.45007 v -17.46842 l -6.434738,-0.0708 -6.434738,-0.0708 5.089135,-26.19375 c 2.799025,-14.40656 5.051912,-26.23126 5.006417,-26.27711 -0.193362,-0.19485 -2.338761,3.12367 -3.573663,5.52777 -2.189269,4.26206 -3.943183,9.16815 -5.38775,15.07075 -0.750576,3.0669 -1.877395,9.04383 -2.167965,11.49942 -0.348179,2.94245 -1.690642,4.45382 -3.956072,4.45382 -1.420752,0 -2.582919,-0.70799 -3.322647,-2.02416 -0.573564,-1.02052 -0.583046,-1.14656 -0.270507,-3.59571 0.518314,-4.06165 2.293394,-12.54696 3.453527,-16.50869 2.914718,-9.95344 6.654475,-16.94469 11.775054,-22.01276 3.538637,-3.50234 6.670203,-5.28659 10.210351,-5.81747 l 1.187179,-0.17803 0.416544,2.2064 c 0.502335,2.66081 1.52317,4.8419 2.932348,6.26516 1.363711,1.37735 2.491917,1.88957 4.161905,1.88957 3.404552,0 6.088099,-3.11444 7.097272,-8.23687 l 0.420521,-2.13451 1.019151,0.16297 c 2.033082,0.32511 4.578237,1.3449 6.540196,2.62054 8.950144,5.81926 15.602976,19.88979 18.671906,39.4905 0.73581,4.69954 0.65532,5.59818 -0.61006,6.81049 -1.30281,1.24817 -2.83304,1.4305 -4.58897,0.54679 -1.168872,-0.58827 -1.706514,-1.84909 -2.186964,-5.12866 -1.832493,-12.50867 -5.344536,-23.1059 -9.756182,-29.43828 -0.584241,-0.83861 -1.10522,-1.48178 -1.157731,-1.42927 -0.05251,0.0525 2.168465,11.74374 4.935502,25.98052 2.767037,14.23677 5.030977,26.04205 5.030977,26.23395 0,0.27913 -1.269911,0.34891 -6.35,0.34891 h -6.349999 v 17.33871 c 0,18.74843 0.04404,18.143 -1.448396,19.91299 -2.136876,2.53429 -6.323616,2.60437 -8.657881,0.14493 -1.576639,-1.6612 -1.535389,-1.12232 -1.535389,-20.05792 V 176.2125 H 71.437503 70.37917 l -0.0015,17.13177 c -8.87e-4,10.2995 -0.104235,17.50108 -0.259144,18.05781 -0.36015,1.29435 -1.751959,2.8884 -3.027955,3.46794 -1.347161,0.61187 -3.9403,0.64369 -5.0458,0.0619 z m 49.873955,-55.1236 v -3.43958 h 5.55625 5.55625 v 3.43958 3.43959 h -5.55625 -5.55625 z m 13.67536,3.26842 c -0.0999,-0.0999 -0.18161,-1.65005 -0.18161,-3.4448 v -3.2632 h 5.69645 5.69644 l -0.074,3.37344 -0.074,3.37344 -5.44079,0.0714 c -2.99243,0.0392 -5.52251,-0.0104 -5.62239,-0.11024 z m 13.31214,-3.26842 v -3.43958 h 10.58333 10.58334 v 3.43958 3.43959 h -10.58334 -10.58333 z m -31.8657,-16.76462 c -0.37553,-1.62076 -0.68172,-3.09566 -0.68042,-3.27756 0.003,-0.45365 1.2912,-0.41424 2.21543,0.0678 0.41681,0.21739 0.78911,0.39525 0.82731,0.39525 0.0382,0 0.33699,-0.62187 0.66395,-1.38192 1.05667,-2.45628 1.61376,-5.82357 1.76307,-10.65662 0.15457,-5.00366 -0.20903,-8.30887 -1.29525,-11.77396 l -0.62205,-1.98438 -2.82003,-0.075 -2.82002,-0.075 -0.55346,1.79192 c -0.68575,2.22019 -1.23807,5.51558 -1.47449,8.79746 l -0.18024,2.50196 -0.53016,-1.0334 c -0.49622,-0.96723 -0.51108,-1.22166 -0.23204,-3.97399 0.28512,-2.81238 1.09897,-6.56215 1.64613,-7.58455 0.24487,-0.45753 0.0224,-0.48177 -4.422258,-0.48177 h -4.680098 l -1.39879,-1.32291 -1.398789,-1.32292 h 6.719287 6.719288 l 1.00394,-0.68367 c 1.16319,-0.79213 2.30031,-0.74613 3.42498,0.13854 0.63441,0.49903 1.05219,0.54513 4.93977,0.54513 3.91008,0 4.29228,-0.0428 4.82117,-0.53964 0.94242,-0.88536 2.20621,-0.93931 3.37403,-0.14403 0.96809,0.65926 1.14395,0.68367 4.92526,0.68367 3.65406,0 3.97238,-0.0402 4.67049,-0.5893 0.98863,-0.77765 2.47894,-0.77765 3.53078,0 0.79256,0.58597 0.85619,0.5893 11.25882,0.5893 h 10.46176 v 1.32292 1.32291 h -3.57188 -3.57187 v 2.8515 c 0,2.83716 0.004,2.855 0.79375,3.548 0.94053,0.82531 1.02088,1.70706 0.24538,2.69295 -0.71682,0.91127 -2.03183,0.95046 -2.8451,0.0848 -0.82489,-0.87806 -0.74175,-1.93514 0.21847,-2.77772 0.78976,-0.693 0.79375,-0.71084 0.79375,-3.548 V 114.3 h -2.24896 -2.24896 v 3.02488 c 0,2.70972 0.051,3.04105 0.48901,3.18009 0.4874,0.15469 1.09849,1.17917 1.09849,1.84159 0,0.77756 -1.08425,1.74303 -1.95746,1.74303 -1.8932,0 -2.65708,-2.12692 -1.21754,-3.39009 0.78976,-0.693 0.79375,-0.71084 0.79375,-3.548 V 114.3 h -3.16075 -3.16075 l 0.51323,1.49172 c 1.10045,3.19852 1.42762,5.79613 1.41169,11.20828 -0.0171,5.81387 -0.53663,9.12351 -1.97412,12.57652 -0.54797,1.31628 -0.73272,2.11109 -0.62079,2.67074 0.35019,1.75091 -1.34979,3.79938 -3.15498,3.80175 -1.12871,10e-4 -2.52597,-0.76575 -2.97463,-1.63335 -0.22254,-0.43034 -0.37375,-1.31802 -0.34323,-2.01485 0.0375,-0.85663 -0.13161,-1.60876 -0.54159,-2.40853 -1.69354,-3.30365 -2.65071,-10.72183 -2.14784,-16.64599 0.25669,-3.02405 1.07943,-7.13262 1.7188,-8.58327 0.18611,-0.42225 -0.0108,-0.46302 -2.23634,-0.46302 -2.40576,0 -2.43796,0.008 -2.26711,0.59532 1.44625,4.96781 1.86828,8.49533 1.65395,13.82447 -0.17948,4.46249 -0.80631,7.90469 -1.90594,10.46628 -0.51493,1.19954 -0.71901,2.09651 -0.68882,3.02747 0.11191,3.45084 -3.48418,5.10473 -5.74212,2.64088 -0.79152,-0.86369 -0.87634,-1.10553 -0.81773,-2.33143 0.0462,-0.96669 -0.10779,-1.74076 -0.52519,-2.6397 -1.35992,-2.92887 -1.92545,-6.06154 -2.07096,-11.4718 -0.14358,-5.33867 0.087,-7.99279 0.98475,-11.33336 0.27374,-1.01865 0.5781,-2.06044 0.67636,-2.31511 0.16297,-0.42241 -0.0584,-0.46302 -2.52381,-0.46302 -2.46801,0 -2.68636,0.0402 -2.51702,0.46302 0.10199,0.25467 0.47378,1.58697 0.82621,2.96068 1.77564,6.92127 1.04185,18.05011 -1.50379,22.80668 -0.18176,0.33963 -0.30555,1.23361 -0.27509,1.98663 0.0482,1.19026 -0.05,1.48916 -0.75141,2.28801 -1.51604,1.72668 -1.73695,1.57162 -2.50918,-1.76131 z m 11.92556,-3.20979 c 0.97399,-0.50797 2.03453,-0.50441 3.02961,0.0102 l 0.79027,0.40867 0.5282,-1.19407 c 2.42151,-5.47423 2.70094,-16.03995 0.60079,-22.71696 l -0.64773,-2.05933 -2.80526,0.0749 -2.80525,0.075 -0.48542,1.42962 c -1.77186,5.21839 -2.04328,14.24532 -0.6014,20.00163 0.37071,1.47994 1.40651,4.36563 1.56703,4.36563 0.0392,0 0.41234,-0.17786 0.82916,-0.39525 z m 12.91311,-0.01 c 0.66747,-0.50485 2.08369,-0.49556 3.08108,0.0202 l 0.79027,0.40867 0.51587,-1.1662 c 2.44085,-5.51794 2.60535,-17.10801 0.33396,-23.52978 L 136.15588,114.3 h -2.73936 -2.73935 l -0.40365,0.96606 c -1.8717,4.4796 -2.23418,14.94242 -0.72277,20.86207 0.45135,1.76777 1.39332,4.1056 1.64902,4.09262 0.0912,-0.005 0.39697,-0.18322 0.67945,-0.39687 z M 67.40835,105.74215 c -4.899278,-1.66969 -8.248482,-5.972477 -8.601434,-11.050441 -0.360823,-5.191197 2.398821,-9.933263 7.140535,-12.270022 1.854568,-0.913947 2.300864,-1.022592 4.669064,-1.136629 2.160666,-0.104043 2.941075,-0.02811 4.463478,0.434308 4.673344,1.419485 7.994827,5.277449 8.810131,10.233132 0.784117,4.766118 -1.5739,9.909652 -5.760927,12.566292 -2.986605,1.89497 -7.304426,2.38768 -10.720847,1.22336 z"
       id="path1" /></g></svg>
