<?xml version="1.0" encoding="UTF-8" standalone="no"?>
<!-- Created with Inkscape (http://www.inkscape.org/) -->

<svg
   width="135.46666mm"
   height="122.18388mm"
   viewBox="0 0 135.46666 122.18388"
   version="1.1"
   id="svg1"
   xml:space="preserve"
   inkscape:version="1.4 (86a8ad7, 2024-10-11)"
   sodipodi:docname="bati_traditionnel_violet.svg"
   xmlns:inkscape="http://www.inkscape.org/namespaces/inkscape"
   xmlns:sodipodi="http://sodipodi.sourceforge.net/DTD/sodipodi-0.dtd"
   xmlns="http://www.w3.org/2000/svg"
   xmlns:svg="http://www.w3.org/2000/svg"><sodipodi:namedview
     id="namedview1"
     pagecolor="#ffffff"
     bordercolor="#000000"
     borderopacity="0.25"
     inkscape:showpageshadow="2"
     inkscape:pageopacity="0.0"
     inkscape:pagecheckerboard="0"
     inkscape:deskcolor="#d1d1d1"
     inkscape:document-units="mm"
     inkscape:zoom="1.0405163"
     inkscape:cx="256.12286"
     inkscape:cy="230.1742"
     inkscape:window-width="3840"
     inkscape:window-height="2054"
     inkscape:window-x="3829"
     inkscape:window-y="-11"
     inkscape:window-maximized="1"
     inkscape:current-layer="layer1" /><defs
     id="defs1" /><g
     inkscape:label="Calque 1"
     inkscape:groupmode="layer"
     id="layer1"
     transform="translate(-37.041672,-87.366121)"><path
       style="fill:#9f5cc0;fill-opacity:1"
       d="m 37.041672,205.58125 v -3.96875 h 3.96875 3.968749 V 187.325 173.0375 h 5.820833 5.820833 v 14.2875 14.2875 h 3.96875 3.96875 V 187.325 173.0375 h 5.820833 5.820833 v 14.2875 14.2875 h 3.96875 3.96875 V 187.325 173.0375 h 8.334374 8.334373 v 14.2875 14.2875 h 3.96875 3.96875 V 187.325 173.0375 h 8.33438 8.33437 v 14.2875 14.2875 h 3.96875 3.96875 V 187.325 173.0375 h 5.82083 5.82084 v 14.2875 14.2875 h 3.96875 3.96875 V 187.325 173.0375 h 5.82083 5.82083 v 14.2875 14.2875 h 3.96875 3.96875 v 3.96875 3.96875 H 104.775 37.041672 Z m 7.937499,-44.45 V 157.1625 H 104.775 164.57083 V 161.13125 165.1 H 104.775 44.979171 Z m 20.372916,-22.62187 c 5.892246,-5.8936 10.743491,-10.71563 10.780545,-10.71563 0.03705,0 0.06737,4.82203 0.06737,10.71563 V 149.225 H 65.419458 54.638912 Z m 18.785416,6.87916 v -3.83645 h 8.334374 8.334373 v 3.83645 3.83646 h -8.334373 -8.334374 z m 24.606247,0 v -3.83645 h 8.33438 8.33437 v 3.83645 3.83646 h -8.33437 -8.33438 z M 133.35,138.44446 v -10.78055 l 10.71562,10.71318 c 5.8936,5.89224 10.71563,10.74349 10.71563,10.78054 0,0.037 -4.82203,0.0674 -10.71563,0.0674 H 133.35 Z M 44.979171,138.0266 v -9.47616 l -2.006529,1.10763 c -1.103591,0.60919 -2.101712,1.00448 -2.218046,0.87842 -0.254344,-0.2756 -3.440763,-6.13088 -3.522958,-6.47369 -0.03172,-0.1323 15.15628,-8.44318 33.751114,-18.46861 L 104.79154,87.366121 138.4515,105.49485 c 18.51298,9.9708 33.73863,18.20381 33.83479,18.29559 0.15179,0.14487 -3.05431,6.31328 -3.52422,6.78045 -0.0959,0.0953 -1.07817,-0.32267 -2.18281,-0.92893 l -2.00843,-1.10229 v 9.48155 9.48154 l -10.71716,-10.7144 -10.71715,-10.7144 8.13747,-0.13229 c 7.16136,-0.11642 8.05812,-0.17677 7.47601,-0.5031 -0.3638,-0.20395 -3.60801,-1.96012 -7.20935,-3.9026 l -6.5479,-3.5318 H 104.80163 64.610507 l -7.235981,3.9026 -7.23598,3.90261 8.13747,0.13229 8.137471,0.13229 -10.717158,10.7144 -10.717158,10.7144 z m 39.158332,-8.24847 v -3.83646 H 104.775 125.4125 v 3.83646 3.83646 H 104.775 84.137503 Z"
       id="path1" /></g></svg>
