<?xml version="1.0" encoding="UTF-8" standalone="no"?>
<!-- Created with Inkscape (http://www.inkscape.org/) -->

<svg
   width="135.46666mm"
   height="135.46666mm"
   viewBox="0 0 135.46666 135.46666"
   version="1.1"
   id="svg1"
   xml:space="preserve"
   inkscape:version="1.4 (86a8ad7, 2024-10-11)"
   sodipodi:docname="cervides_violet.svg"
   xmlns:inkscape="http://www.inkscape.org/namespaces/inkscape"
   xmlns:sodipodi="http://sodipodi.sourceforge.net/DTD/sodipodi-0.dtd"
   xmlns:xlink="http://www.w3.org/1999/xlink"
   xmlns="http://www.w3.org/2000/svg"
   xmlns:svg="http://www.w3.org/2000/svg"><sodipodi:namedview
     id="namedview1"
     pagecolor="#ffffff"
     bordercolor="#000000"
     borderopacity="0.25"
     inkscape:showpageshadow="2"
     inkscape:pageopacity="0.0"
     inkscape:pagecheckerboard="0"
     inkscape:deskcolor="#d1d1d1"
     inkscape:document-units="mm"
     inkscape:zoom="1.0405163"
     inkscape:cx="256.12286"
     inkscape:cy="256.12286"
     inkscape:window-width="3840"
     inkscape:window-height="2054"
     inkscape:window-x="3829"
     inkscape:window-y="-11"
     inkscape:window-maximized="1"
     inkscape:current-layer="layer1" /><defs
     id="defs1" /><g
     inkscape:label="Calque 1"
     inkscape:groupmode="layer"
     id="layer1"
     transform="translate(-37.041672,-80.697922)"><image
       width="135.46666"
       height="135.46666"
       preserveAspectRatio="none"
       xlink:href="cervides.png"
       id="image1"
       x="37.041672"
       y="80.697922" /><path
       style="fill:#9f5cc0;fill-opacity:1"
       d="m 69.850003,215.91065 c -0.509323,-0.10135 -1.726769,-0.12819 -2.705437,-0.0596 -2.821289,0.19762 -2.692772,0.5804 -2.469735,-7.35598 0.162716,-5.78997 0.265291,-6.95725 0.721055,-8.20545 0.292244,-0.80036 1.009436,-2.82442 1.593761,-4.49791 l 1.062408,-3.04271 -0.17407,-5.68854 c -0.262273,-8.57102 -0.760745,-12.79653 -2.165713,-18.3586 -0.691085,-2.73591 -1.16272,-7.71541 -0.875383,-9.24225 0.666128,-3.53964 3.45195,-6.77037 8.059255,-9.34634 4.328951,-2.42035 4.274813,-2.39988 7.912358,-2.99111 2.703543,-0.43942 4.01769,-0.51656 6.593879,-0.38705 4.710459,0.23681 11.744913,-0.24327 13.188749,-0.9001 1.97607,-0.89894 1.98426,-0.91435 3.40178,-6.39955 1.76794,-6.84119 1.76241,-6.79337 0.96708,-8.36177 -0.75394,-1.48677 -1.23945,-1.96788 -2.64457,-2.62061 -1.03052,-0.47871 -1.98529,-1.6046 -4.788663,-5.6469 -1.828107,-2.63603 -2.439181,-3.95163 -2.026942,-4.36387 0.204959,-0.20496 0.501891,-0.0264 1.047794,0.63013 0.41898,0.50388 1.161623,1.12461 1.650317,1.37941 1.069264,0.55748 6.362014,2.35353 6.507344,2.2082 0.0565,-0.0565 -2.01809,-1.86014 -4.61015,-4.00816 -2.592053,-2.14801 -6.150737,-5.34536 -7.908183,-7.10522 -2.989288,-2.9934 -3.232435,-3.31528 -3.770312,-4.99124 -0.3471,-1.08153 -0.574956,-2.47191 -0.574956,-3.50841 0,-1.72138 -0.392701,-2.92341 -3.109102,-9.516767 -1.016185,-2.466525 -0.891536,-4.002381 0.606165,-7.468868 1.367652,-3.165485 1.97377,-4.072265 1.97377,-2.952852 0,0.369535 -0.245364,2.032158 -0.545254,3.694718 -0.551811,3.059178 -0.526582,4.261181 0.107641,5.128533 0.336293,0.459908 0.377885,0.459178 1.108382,-0.01946 0.587949,-0.385239 0.72285,-0.40803 0.598654,-0.101143 -0.577467,1.426909 -0.587273,1.368802 0.215532,1.27714 0.663512,-0.07576 1.117483,-0.626658 3.451372,-4.188274 1.478053,-2.255573 2.932285,-4.398698 3.231627,-4.7625 l 0.544259,-0.661458 0.0095,0.67901 c 0.0095,0.674772 -0.425632,3.396422 -0.684521,4.281927 -0.09803,0.335315 0.0155,0.463021 0.411626,0.463021 0.300848,0 0.546996,0.06544 0.546996,0.145431 0,0.366261 -0.970821,1.969425 -1.994826,3.294152 -1.827277,2.363898 -2.314565,3.557651 -2.448569,5.998473 -0.174241,3.173739 0.59846,5.545279 3.347304,10.273399 l 1.076768,1.85209 -0.03462,-2.79789 c -0.0513,-4.14589 0.271577,-4.11401 1.290213,0.12741 0.482182,2.00771 1.20148,4.24713 1.59844,4.97648 0.638018,1.17225 3.810796,4.44087 4.310656,4.44087 0.10431,0 0.0327,-0.98022 -0.15912,-2.17827 -0.51112,-3.19216 -0.76974,-7.19588 -0.45215,-6.9996 0.14435,0.0892 0.72711,1.86331 1.29504,3.94243 0.74032,2.71025 1.27135,4.11723 1.87614,4.97086 0.46395,0.65484 1.46422,2.10993 2.22281,3.23352 1.6247,2.40645 2.24882,2.71562 5.10761,2.53015 2.53708,-0.1646 3.49761,-0.68997 3.88384,-2.12433 0.16582,-0.6158 0.64768,-1.78482 1.07081,-2.59783 0.42312,-0.81301 0.95561,-2.42174 1.18331,-3.57496 0.77654,-3.93294 1.12327,-5.27139 1.67412,-6.46239 l 0.55068,-1.19062 -0.15037,2.77812 c -0.0827,1.52797 -0.32049,3.95996 -0.5284,5.40442 -0.46648,3.24088 -0.47143,3.06285 0.085,3.05928 0.59335,-0.004 5.45243,-4.72185 6.04742,-5.87188 0.89047,-1.72115 1.19926,-3.54035 1.34936,-7.94963 0.083,-2.43747 0.24424,-4.431769 0.35835,-4.431769 0.56722,0 1.30194,4.152409 1.30485,7.374579 0.002,1.75717 0.0713,2.15772 0.33703,1.93717 0.18426,-0.15293 1.26568,-2.17104 2.40314,-4.4847 1.94016,-3.94637 2.07723,-4.33965 2.21545,-6.35618 0.29707,-4.334218 -0.70659,-6.954323 -3.93132,-10.26289 -2.04665,-2.099863 -2.46833,-2.700866 -1.68376,-2.399798 0.51409,0.197274 0.51068,0.173882 -0.24605,-1.688438 -0.49835,-1.226448 -0.55962,-1.582242 -0.2725,-1.582242 0.20373,0 0.62967,0.35066 0.94654,0.779245 0.31687,0.428585 1.64486,1.589445 2.9511,2.579688 1.30623,0.990243 2.65597,2.017333 2.99941,2.282423 0.8068,0.622751 1.64058,0.486462 2.27944,-0.372596 0.75755,-1.018669 0.87129,-2.600253 0.33063,-4.597623 -0.52525,-1.940415 -0.40256,-2.37842 0.4023,-1.436223 2.04785,2.397299 2.61932,5.14492 1.6587,7.974981 -0.46056,1.356858 -0.47077,1.524744 -0.0944,1.552703 0.90344,0.06712 1.24051,-0.08419 1.91523,-0.859779 0.90898,-1.044867 1.39924,-2.830512 1.19209,-4.34185 -0.15108,-1.102236 -0.1261,-1.173867 0.32514,-0.93237 0.8452,0.452339 1.18484,1.711309 0.95287,3.532169 -0.11521,0.904442 -0.20176,2.269518 -0.19231,3.033502 0.0149,1.207083 -0.0505,1.389062 -0.49922,1.389062 -0.69278,0 -3.01471,2.206289 -3.88525,3.691753 -0.61906,1.056342 -0.71889,1.568527 -0.8527,4.374723 -0.25262,5.29816 -0.30088,5.36497 -10.70473,14.81962 -5.6428,5.12798 -6.9191,6.39862 -6.67365,6.64407 0.0931,0.0931 1.70435,-0.44663 3.58047,-1.1995 2.4688,-0.99069 3.65565,-1.62111 4.29625,-2.28204 1.0229,-1.05537 1.4247,-1.16542 1.16069,-0.3179 -0.2119,0.68022 -1.21246,2.00086 -3.25249,4.29297 -0.77984,0.87621 -1.71664,2.18266 -2.08177,2.90322 -0.36514,0.72056 -1.30466,1.92579 -2.08784,2.6783 -1.39188,1.33737 -1.42395,1.40176 -1.42395,2.85912 0,1.30601 0.21046,1.90918 1.69673,4.86278 1.85833,3.69298 2.93913,6.28269 3.89173,9.32497 0.57062,1.82237 0.62341,2.47037 0.64662,7.93749 0.0165,3.88487 0.18842,7.32705 0.49484,9.90773 0.25826,2.17503 0.41259,4.37928 0.34297,4.89834 -0.18545,1.38269 -1.97916,5.43741 -3.28598,7.42809 -1.11665,1.70097 -1.14141,1.78873 -1.53068,5.42396 -0.21761,2.03225 -0.64566,4.94516 -0.9512,6.47313 -0.51743,2.58754 -0.54311,3.29544 -0.3743,10.31875 0.11003,4.57775 0.28995,7.67366 0.4579,7.87919 0.19352,0.23682 0.18546,0.53874 -0.0268,1.00464 -0.44705,0.98117 -0.37638,1.4979 0.33714,2.46502 0.35234,0.47757 0.77946,1.48297 0.94914,2.23421 0.16969,0.75125 0.36568,1.57426 0.43554,1.82892 0.28208,1.02826 -4.46742,0.35119 -5.76212,-0.82142 -0.89687,-0.81229 -1.00435,-1.71057 -0.56432,-4.71596 0.21542,-1.47128 0.19489,-2.33594 -0.0911,-3.83646 -0.20307,-1.0654 -0.79179,-5.20202 -1.30828,-9.19248 -0.51649,-3.99047 -1,-7.35398 -1.07448,-7.47448 -0.0745,-0.1205 -0.35435,-0.21909 -0.62195,-0.21909 -0.2676,0 -1.00471,-0.29623 -1.63803,-0.65828 -2.18048,-1.24652 -5.91137,-0.73888 -6.78257,0.92286 -0.48509,0.92526 -0.19014,5.14891 0.62569,8.95987 0.70834,3.30884 0.82246,5.24085 0.39272,6.6488 -0.15516,0.50836 -0.28212,2.21727 -0.28212,3.79758 v 2.87329 l 1.19063,1.32426 c 0.67522,0.751 1.19062,1.58521 1.19062,1.92706 0,0.51051 -0.1801,0.62981 -1.17628,0.7792 -0.64695,0.097 -1.66041,0.046 -2.25214,-0.11331 -0.59172,-0.15933 -1.52091,-0.25495 -2.06486,-0.21249 l -0.98901,0.0772 0.0555,-1.5875 c 0.16823,-4.81365 0.0484,-8.54244 -0.31046,-9.65729 -0.21076,-0.65485 -0.51342,-2.17465 -0.67258,-3.37734 -0.2824,-2.13404 -2.24344,-9.80563 -2.59828,-10.16446 -0.32828,-0.33198 -5.455237,-0.7518 -6.660625,-0.5454 l -1.190625,0.20386 -1.852083,3.51926 c -1.018646,1.93559 -2.506927,4.34059 -3.307291,5.34445 -0.800365,1.00387 -1.794223,2.45465 -2.208573,3.22398 -0.723867,1.344 -0.748309,1.50755 -0.624247,4.1769 0.156873,3.37532 0.693269,5.04547 1.921251,5.9821 0.954748,0.72822 2.234485,3.00802 2.234485,3.98065 0,0.59193 -0.0295,0.59688 -2.711979,0.45512 -1.491588,-0.0788 -2.860807,-0.18918 -3.042708,-0.24522 -0.203226,-0.0626 -0.330729,-0.58134 -0.330729,-1.34556 0,-0.89244 -0.223771,-1.64018 -0.792337,-2.64763 -0.435785,-0.77217 -1.22409,-2.44867 -1.751789,-3.72556 -0.527699,-1.27689 -1.421304,-3.2417 -1.985788,-4.36626 -0.627918,-1.25093 -1.026336,-2.41739 -1.026336,-3.00485 0,-0.70499 0.634411,-2.13966 2.386887,-5.39775 1.969287,-3.66118 2.396425,-4.66305 2.441401,-5.7264 0.105864,-2.50289 -0.07018,-4.50102 -0.441284,-5.00853 -0.324472,-0.44374 -0.483305,-0.47282 -1.168893,-0.21404 -0.525712,0.19843 -0.882126,0.21074 -1.056381,0.0365 -0.455571,-0.45557 -1.495957,1.49617 -4.692604,8.80324 -2.664058,6.08965 -6.094289,15.39129 -6.587974,17.8644 -0.145714,0.72995 -0.02691,0.92364 1.202291,1.96012 1.391332,1.17319 2.095724,2.37356 2.095724,3.57138 0,0.70126 -0.06652,0.71869 -1.5875,0.41603 z"
       id="path1" /></g></svg>
