<?xml version="1.0" encoding="UTF-8" standalone="no"?>
<!-- Created with Inkscape (http://www.inkscape.org/) -->

<svg
   width="135.46666mm"
   height="135.46666mm"
   viewBox="0 0 135.46666 135.46666"
   version="1.1"
   id="svg1"
   xml:space="preserve"
   inkscape:version="1.4 (86a8ad7, 2024-10-11)"
   sodipodi:docname="chauve_souris_violet.svg"
   xmlns:inkscape="http://www.inkscape.org/namespaces/inkscape"
   xmlns:sodipodi="http://sodipodi.sourceforge.net/DTD/sodipodi-0.dtd"
   xmlns:xlink="http://www.w3.org/1999/xlink"
   xmlns="http://www.w3.org/2000/svg"
   xmlns:svg="http://www.w3.org/2000/svg"><sodipodi:namedview
     id="namedview1"
     pagecolor="#ffffff"
     bordercolor="#000000"
     borderopacity="0.25"
     inkscape:showpageshadow="2"
     inkscape:pageopacity="0.0"
     inkscape:pagecheckerboard="0"
     inkscape:deskcolor="#d1d1d1"
     inkscape:document-units="mm"
     inkscape:zoom="1.0405163"
     inkscape:cx="256.12286"
     inkscape:cy="256.12286"
     inkscape:window-width="3840"
     inkscape:window-height="2054"
     inkscape:window-x="3829"
     inkscape:window-y="-11"
     inkscape:window-maximized="1"
     inkscape:current-layer="layer1" /><defs
     id="defs1" /><g
     inkscape:label="Calque 1"
     inkscape:groupmode="layer"
     id="layer1"
     transform="translate(-37.041672,-80.697922)"><image
       width="135.46666"
       height="135.46666"
       preserveAspectRatio="none"
       xlink:href="chauve_souris.png"
       id="image1"
       x="37.041672"
       y="80.697922" /><path
       style="fill:#9f5cc0;fill-opacity:1"
       d="m 109.11578,197.88508 c -7.29527,-4.74121 -13.89974,-6.85591 -21.411832,-6.85591 -3.681278,0 -6.643312,0.42436 -9.270127,1.32812 -1.923943,0.66194 -2.694148,0.65761 -3.689026,-0.0207 -3.651894,-2.48996 -7.795542,-3.44889 -12.484119,-2.88908 -3.671238,0.43834 -6.587249,1.34911 -10.595526,3.30936 -1.925263,0.94155 -3.80591,1.71191 -4.179214,1.71191 -0.834812,0 -1.977598,-1.09084 -1.977598,-1.88771 0,-1.00189 2.807283,-6.35865 5.273033,-10.06182 6.008449,-9.02373 13.906719,-15.58617 23.220101,-19.2929 2.330147,-0.9274 3.585786,-1.03539 4.3194,-0.37147 0.275669,0.24947 1.111828,2.28566 1.858131,4.52486 1.432125,4.29694 1.808962,4.86404 3.232119,4.86404 0.408857,0 1.126506,-0.16102 1.594774,-0.35782 0.940446,-0.39524 2.839044,-2.33332 3.442924,-3.51453 0.897671,-1.75586 0.841629,-2.19579 -0.984839,-7.73092 -0.956438,-2.89849 -1.738978,-5.58657 -1.738978,-5.97351 0,-0.91732 1.092776,-2.00239 2.016618,-2.00239 0.394764,0 2.06623,0.71438 3.714368,1.5875 1.648138,0.87313 3.124442,1.5875 3.280676,1.5875 0.156233,0 0.66307,-0.28594 1.126303,-0.63544 1.29836,-0.97957 2.787758,-1.50217 4.762802,-1.67119 l 1.80388,-0.15437 1.56111,-3.11421 c 1.60813,-3.20802 2.25469,-3.94979 3.44283,-3.94979 1.19884,0 1.73344,0.9838 3.54302,6.52002 1.43208,4.38129 1.88941,5.47354 2.57073,6.13966 1.09155,1.06719 2.818,1.62782 5.01283,1.62782 1.54669,0 1.89628,-0.0939 2.62191,-0.70451 0.73749,-0.62056 0.82452,-0.83339 0.73027,-1.78594 -0.0589,-0.59478 -0.63132,-2.72592 -1.27214,-4.73587 -1.09201,-3.42508 -1.14012,-3.69909 -0.7665,-4.36562 0.50603,-0.90276 1.2552,-1.25648 4.28558,-2.02342 6.38034,-1.61475 15.31984,-1.61971 22.34585,-0.0124 4.81032,1.10044 10.66978,3.32591 14.79811,5.62044 2.70093,1.50118 3.36159,2.68119 2.26167,4.03954 -0.39445,0.48712 -1.03788,0.67433 -3.72718,1.08443 -9.78882,1.49272 -16.92395,6.04841 -19.51366,12.45924 -0.3708,0.9179 -0.85247,1.869 -1.07039,2.11356 -0.21792,0.24457 -1.24845,0.70134 -2.29006,1.01506 -2.41337,0.72687 -6.4271,2.8137 -8.73265,4.54031 -2.53114,1.89555 -5.61246,5.07708 -7.56003,7.80588 -1.81652,2.54519 -4.64553,8.13875 -5.58823,11.04914 -0.65596,2.02513 -1.48346,3.0585 -2.44918,3.0585 -0.3477,0 -1.93069,-0.84391 -3.51776,-1.87534 z M 97.489774,143.41699 c -0.771301,-0.31263 -0.975631,-0.65891 -1.95914,-3.32011 -3.483668,-9.42621 -9.951788,-16.21283 -18.037043,-18.92522 -2.072056,-0.69512 -2.472579,-1.039 -2.994606,-2.57106 -0.942043,-2.76474 -3.709629,-5.83498 -6.834559,-7.58196 -2.32114,-1.29762 -6.759262,-2.71969 -9.709488,-3.11113 -2.663585,-0.35341 -3.293799,-0.69518 -3.610793,-1.95818 -0.269473,-1.07367 0.577362,-1.95516 3.218141,-3.34986 4.37093,-2.30845 9.66247,-4.084183 14.933551,-5.011384 1.201397,-0.211329 3.915718,-0.341437 6.879166,-0.329743 5.196456,0.0205 9.058148,0.587065 11.574134,1.698077 1.865577,0.823803 1.921053,1.28947 0.638359,5.35844 -0.607328,1.92657 -1.103278,3.70257 -1.102113,3.94667 0.0039,0.82582 1.282237,1.54077 2.74978,1.53797 1.380932,-0.003 3.70022,-0.86975 4.303486,-1.60895 0.16735,-0.20506 0.979266,-2.48522 1.804257,-5.06702 1.572444,-4.920955 1.917324,-5.492276 3.315424,-5.492276 1.11689,0 1.65695,0.60744 3.03216,3.410476 1.30186,2.65352 1.32001,2.67494 2.26708,2.67494 1.31069,0 3.37842,0.65073 4.48376,1.41108 l 0.91945,0.63248 2.75484,-1.43823 c 2.80198,-1.46285 3.53231,-1.59177 4.49432,-0.79337 0.92543,0.76804 0.85793,1.4203 -0.62574,6.04609 -0.79798,2.48794 -1.45087,4.97639 -1.45087,5.52988 0,2.38597 3.61769,5.28677 5.28112,4.23461 0.21248,-0.1344 0.92685,-1.82013 1.5875,-3.74605 0.93597,-2.72856 1.36113,-3.61927 1.92563,-4.03424 0.71041,-0.52221 0.75402,-0.52337 2.24896,-0.0596 7.77662,2.41242 16.39884,9.38756 21.66141,17.52349 1.84441,2.85146 4.07247,7.32176 4.07247,8.17088 0,0.83175 -1.09013,1.97716 -1.88174,1.97716 -0.32058,0 -1.90357,-0.65152 -3.51775,-1.44781 -4.40957,-2.17528 -6.98773,-2.86114 -10.87239,-2.89233 -3.73997,-0.03 -5.17843,0.33093 -7.92413,1.9884 -1.77829,1.07349 -1.87394,1.09939 -2.91042,0.78805 -5.00551,-1.50357 -8.21417,-1.85998 -12.21326,-1.35661 -5.08369,0.63988 -9.48639,2.34021 -14.65461,5.65963 -2.83817,1.82288 -2.954333,1.86839 -3.846346,1.50682 z"
       id="path1" /></g></svg>
