<?xml version="1.0" encoding="UTF-8" standalone="no"?>
<!-- Created with Inkscape (http://www.inkscape.org/) -->

<svg
   width="135.46666mm"
   height="135.46666mm"
   viewBox="0 0 135.46666 135.46666"
   version="1.1"
   id="svg1"
   xml:space="preserve"
   inkscape:version="1.4 (86a8ad7, 2024-10-11)"
   sodipodi:docname="cheveche_violet.svg"
   xmlns:inkscape="http://www.inkscape.org/namespaces/inkscape"
   xmlns:sodipodi="http://sodipodi.sourceforge.net/DTD/sodipodi-0.dtd"
   xmlns="http://www.w3.org/2000/svg"
   xmlns:svg="http://www.w3.org/2000/svg"><sodipodi:namedview
     id="namedview1"
     pagecolor="#ffffff"
     bordercolor="#000000"
     borderopacity="0.25"
     inkscape:showpageshadow="2"
     inkscape:pageopacity="0.0"
     inkscape:pagecheckerboard="0"
     inkscape:deskcolor="#d1d1d1"
     inkscape:document-units="mm"
     inkscape:zoom="1.0405163"
     inkscape:cx="542.03862"
     inkscape:cy="52.377845"
     inkscape:window-width="3840"
     inkscape:window-height="2054"
     inkscape:window-x="3829"
     inkscape:window-y="-11"
     inkscape:window-maximized="1"
     inkscape:current-layer="layer1" /><defs
     id="defs1" /><g
     inkscape:label="Calque 1"
     inkscape:groupmode="layer"
     id="layer1"
     transform="translate(38.629162,-134.40834)"><path
       style="fill:#9f5cc0;fill-opacity:1"
       d="m 31.344506,269.34644 c -1.300065,-0.64354 -2.020696,-1.79577 -2.269417,-3.6286 -0.223557,-1.6474 -0.953284,-2.76469 -2.188509,-3.35085 -0.739463,-0.35089 -1.854543,-0.42949 -6.093428,-0.42949 h -5.188336 l 1.524156,-1.37066 c 4.614517,-4.14981 8.243259,-9.61924 10.112516,-15.24213 1.664474,-5.00689 1.670461,-5.07275 1.790765,-19.70127 0.06073,-7.38518 0.139684,-13.4276 0.175441,-13.4276 0.03576,0 0.65217,0.16942 1.369806,0.37648 3.716402,1.07234 5.792475,1.33163 10.565209,1.31957 6.864118,-0.0173 11.203741,-1.00899 17.197916,-3.92988 7.068658,-3.44447 13.542776,-9.63776 17.302111,-16.55159 l 1.078986,-1.98437 -8.63e-4,10.58333 c -4.75e-4,5.82083 -0.118222,11.71443 -0.26166,13.09687 -1.255354,12.09905 -6.651631,23.39496 -15.244322,31.91061 -3.432999,3.40222 -8.107001,6.87653 -11.660328,8.66744 l -1.377742,0.69439 1.289617,1.28962 c 1.956663,1.95666 3.450243,5.39616 3.450243,7.94541 0,1.53218 -0.931599,3.09439 -2.216106,3.71621 -1.405288,0.68029 -2.091189,0.68455 -3.460826,0.0215 -1.311408,-0.63484 -2.039506,-1.79031 -2.289646,-3.63361 -0.394402,-2.90636 -1.748982,-3.78034 -5.859129,-3.78034 h -2.765527 l 0.358118,1.38058 c 0.761071,2.93401 0.103277,5.06242 -1.857989,6.01185 -1.408136,0.68167 -2.13039,0.68509 -3.481056,0.0165 z m -47.811899,-7.95462 c -1.069583,-0.5647 -2.053437,-2.13871 -2.053437,-3.28516 0,-0.37231 4.822031,-16.80913 10.7156249,-36.52626 5.8935934,-19.71713 10.7193201,-35.93718 10.7238371,-36.04455 0.00452,-0.10737 0.4769814,1.03591 1.0499208,2.54063 2.997737,7.87301 8.3611502,14.65147 15.1475952,19.14405 l 2.05052,1.35743 -0.0052,13.64904 c -0.0029,7.64859 -0.12147,14.46326 -0.269625,15.50113 -1.54404,10.81642 -8.740816,19.44745 -19.0418084,22.83667 -3.1693659,1.04278 -6.0541953,1.37348 -11.8726686,1.36101 -4.907493,-0.0105 -5.55481,-0.0642 -6.444718,-0.53399 z m 54.30281,-55.42965 c -0.363802,-0.0623 -1.494895,-0.24775 -2.513541,-0.41213 -9.365245,-1.51122 -18.228766,-8.18012 -22.716517,-17.09188 -2.031127,-4.03341 -3.0360478,-8.06463 -3.2693879,-13.11508 l -0.1562992,-3.38296 0.7670816,-0.80066 c 1.3150115,-1.37258 4.1374675,-3.13137 6.1461255,-3.82991 5.706933,-1.98468 11.848596,-0.52964 16.183056,3.83397 3.018796,3.0391 4.263822,5.77275 4.728628,10.38245 0.261685,2.59525 0.786787,3.59464 2.254693,4.29121 1.753491,0.83208 3.879395,0.31204 4.966724,-1.21497 0.398908,-0.56022 0.625551,-1.44244 0.790291,-3.07624 0.464807,-4.6097 1.709833,-7.34335 4.728628,-10.38245 4.33446,-4.36361 10.476124,-5.81865 16.183056,-3.83397 2.008658,0.69854 4.831115,2.45733 6.146126,3.82991 l 0.767082,0.80066 -0.156299,3.38296 c -0.08597,1.86063 -0.342815,4.2566 -0.570779,5.32438 -2.683138,12.56777 -12.218495,22.10366 -24.79663,24.79802 -1.873528,0.40133 -8.126178,0.72885 -9.482038,0.49669 z m -14.353922,-24.4107 c 1.113311,-0.79275 1.744329,-2.23704 1.587044,-3.63246 -0.250713,-2.22433 -2.120854,-3.73869 -4.312036,-3.49171 -5.098191,0.57464 -4.405627,8.20399 0.707091,7.78939 0.687059,-0.0557 1.57131,-0.34722 2.017901,-0.66522 z m 39.687498,0 c 1.113311,-0.79275 1.744329,-2.23704 1.587044,-3.63246 -0.250714,-2.22433 -2.120854,-3.73869 -4.312036,-3.49171 -5.098191,0.57464 -4.405627,8.20399 0.707091,7.78939 0.687058,-0.0557 1.571309,-0.34722 2.017901,-0.66522 z M 40.502925,168.47344 c -2.344529,-3.77021 -7.633243,-7.50567 -12.867021,-9.08808 -2.114305,-0.63925 -2.793676,-0.71669 -6.336944,-0.72241 -3.563138,-0.006 -4.206616,0.0662 -6.29618,0.7042 -1.280086,0.39083 -3.032862,1.0667 -3.895059,1.50194 -0.862196,0.43523 -1.6305551,0.79133 -1.7074653,0.79133 -0.07691,0 -0.1398367,-5.42208 -0.1398367,-12.04908 0,-11.55379 0.021898,-12.09201 0.5327274,-13.09331 0.3428886,-0.67212 0.9048426,-1.23407 1.5769596,-1.57696 2.320137,-1.18365 3.634184,-0.54279 8.072953,3.93714 l 3.435766,3.46763 H 41.010417 59.14201 l 3.435765,-3.45848 c 4.557982,-4.58811 5.71388,-5.1498 8.0964,-3.93433 0.756027,0.3857 1.214639,0.86839 1.571149,1.65365 0.470849,1.0371 0.503847,1.88467 0.509281,13.08135 0.0032,6.58481 -0.05712,11.97239 -0.134026,11.97239 -0.07691,0 -0.84527,-0.3561 -1.707466,-0.79133 -0.862196,-0.43524 -2.614972,-1.11111 -3.895059,-1.50194 -2.089563,-0.63798 -2.733041,-0.70995 -6.296179,-0.7042 -3.527186,0.006 -4.227701,0.0848 -6.29618,0.7106 -4.178132,1.26416 -7.593616,3.30468 -10.552783,6.3046 -0.972243,0.98563 -1.980179,2.15173 -2.239859,2.59133 -0.565314,0.957 -0.652108,0.97266 -1.130128,0.20396 z"
       id="path1" /></g></svg>
