<?xml version="1.0" encoding="UTF-8" standalone="no"?>
<!-- Created with Inkscape (http://www.inkscape.org/) -->

<svg
   width="103.69182mm"
   height="106.79257mm"
   viewBox="0 0 103.69182 106.79257"
   version="1.1"
   id="svg1"
   xml:space="preserve"
   inkscape:version="1.4 (86a8ad7, 2024-10-11)"
   sodipodi:docname="cuisine_locale_violet.svg"
   xmlns:inkscape="http://www.inkscape.org/namespaces/inkscape"
   xmlns:sodipodi="http://sodipodi.sourceforge.net/DTD/sodipodi-0.dtd"
   xmlns:xlink="http://www.w3.org/1999/xlink"
   xmlns="http://www.w3.org/2000/svg"
   xmlns:svg="http://www.w3.org/2000/svg"><sodipodi:namedview
     id="namedview1"
     pagecolor="#ffffff"
     bordercolor="#000000"
     borderopacity="0.25"
     inkscape:showpageshadow="2"
     inkscape:pageopacity="0.0"
     inkscape:pagecheckerboard="0"
     inkscape:deskcolor="#d1d1d1"
     inkscape:document-units="mm"
     inkscape:zoom="1.3683502"
     inkscape:cx="475.39001"
     inkscape:cy="207.91462"
     inkscape:window-width="3840"
     inkscape:window-height="2054"
     inkscape:window-x="3829"
     inkscape:window-y="-11"
     inkscape:window-maximized="1"
     inkscape:current-layer="layer1" /><defs
     id="defs1" /><g
     inkscape:label="Calque 1"
     inkscape:groupmode="layer"
     id="layer1"
     transform="translate(-59.531253,-95.072885)"><image
       width="135.46666"
       height="135.46666"
       preserveAspectRatio="none"
       xlink:href="cuisine_locale.png"
       id="image1"
       x="43.656254"
       y="80.697922" /><path
       style="fill:#9f5cc0;fill-opacity:1"
       d="m 76.566162,201.3709 c -1.442345,-0.65499 -2.512386,-2.0898 -2.682219,-3.59655 l -0.13401,-1.18893 h 37.639647 37.63965 l -0.13401,1.18893 c -0.16983,1.50675 -1.23987,2.94156 -2.68222,3.59655 -1.04541,0.47474 -2.44078,0.49456 -34.82342,0.49456 -32.382636,0 -33.778008,-0.0198 -34.823418,-0.49456 z m -2.74741,-22.39297 v -14.43248 l -0.644887,-0.58262 c -1.820768,-1.64497 -11.163368,-12.13959 -11.824549,-13.28262 -1.335377,-2.30855 -1.818063,-4.34056 -1.818063,-7.65365 0,-3.6904 0.39733,-4.96683 2.139417,-6.87295 2.041922,-2.23419 3.230975,-2.6379 8.113187,-2.75463 3.250455,-0.0777 4.034895,-0.16901 4.034895,-0.4696 0,-0.29624 0.545207,-0.37313 2.645833,-0.37313 h 2.645834 v 25.49129 c 0,24.35952 0.02148,25.51072 0.483854,25.92916 0.650592,0.58878 1.518565,0.55213 2.161979,-0.0913 0.521817,-0.52182 0.529166,-0.88195 0.529166,-25.92917 v -25.4 h 33.337502 c 28.514,0 33.33749,0.054 33.33749,0.37313 0,0.30071 0.78314,0.39132 4.0349,0.46685 3.51826,0.0817 4.20429,0.17112 5.35781,0.69826 1.57591,0.72016 3.08748,2.11875 4.05662,3.75343 0.64707,1.09142 0.7136,1.4715 0.79854,4.56163 0.10378,3.77599 -0.32285,5.76171 -1.77695,8.27066 -0.66283,1.14367 -10.00919,11.6412 -11.82603,13.28262 l -0.64489,0.58262 v 14.43248 14.43249 H 111.38958 73.818752 Z m 0,-30.81126 V 136.525 h -3.400101 c -1.886217,0 -3.800546,0.13666 -4.299479,0.30693 -2.917307,0.99559 -4.039745,3.62269 -3.431462,8.03146 0.449253,3.25613 1.098683,4.28286 6.264147,9.90342 2.548324,2.77284 4.685872,5.04152 4.750106,5.04152 0.06423,0 0.116789,-5.23875 0.116789,-11.64166 z m 80.008558,6.60014 c 5.16574,-5.62085 5.81419,-6.6462 6.26572,-9.90743 0.51965,-3.75325 -0.18015,-6.14422 -2.18758,-7.47419 -1.05551,-0.69929 -1.25285,-0.73124 -5.02186,-0.8131 l -3.92318,-0.0852 v 11.66073 c 0,6.4134 0.0526,11.66072 0.11679,11.66072 0.0642,0 2.20179,-2.26868 4.75011,-5.04152 z M 69.585419,126.73542 v -2.64583 h 41.804161 41.80417 v 2.64583 2.64583 H 111.38958 69.585419 Z m 40.912821,-17.21565 c -20.062798,-1.43155 -36.510905,-2.63827 -36.551355,-2.6816 -0.119716,-0.12826 0.263428,-4.92457 0.404262,-5.06067 0.07099,-0.0686 5.725001,0.27081 12.56448,0.75425 6.839478,0.48344 23.686823,1.67448 37.438543,2.64676 13.75171,0.97228 25.03643,1.79873 25.07715,1.83655 0.0407,0.0378 -0.007,1.21616 -0.1052,2.61852 l -0.17923,2.54976 -1.08542,-0.0304 c -0.59699,-0.0167 -17.50044,-1.20165 -37.56323,-2.63319 z m 0.49447,-8.46587 c -3.34698,-0.26225 -6.17713,-0.48479 -6.28923,-0.49453 -0.34339,-0.0298 0.8722,-2.213399 1.75369,-3.150179 2.24261,-2.383274 5.95424,-3.023998 8.96191,-1.547056 2.03074,0.99721 3.50211,2.818086 4.04857,5.010265 0.17996,0.72188 0.17128,0.72733 -1.10407,0.69296 -0.707,-0.019 -4.02389,-0.24921 -7.37087,-0.51146 z"
       id="path1" /></g></svg>
