<?xml version="1.0" encoding="UTF-8" standalone="no"?>
<!-- Created with Inkscape (http://www.inkscape.org/) -->

<svg
   width="135.46666mm"
   height="135.46666mm"
   viewBox="0 0 135.46666 135.46666"
   version="1.1"
   id="svg1"
   xml:space="preserve"
   inkscape:version="1.4 (86a8ad7, 2024-10-11)"
   sodipodi:docname="curiosite_violet.svg"
   xmlns:inkscape="http://www.inkscape.org/namespaces/inkscape"
   xmlns:sodipodi="http://sodipodi.sourceforge.net/DTD/sodipodi-0.dtd"
   xmlns:xlink="http://www.w3.org/1999/xlink"
   xmlns="http://www.w3.org/2000/svg"
   xmlns:svg="http://www.w3.org/2000/svg"><sodipodi:namedview
     id="namedview1"
     pagecolor="#ffffff"
     bordercolor="#000000"
     borderopacity="0.25"
     inkscape:showpageshadow="2"
     inkscape:pageopacity="0.0"
     inkscape:pagecheckerboard="0"
     inkscape:deskcolor="#d1d1d1"
     inkscape:document-units="mm"
     inkscape:zoom="1.0405163"
     inkscape:cx="256.12286"
     inkscape:cy="256.12286"
     inkscape:window-width="3840"
     inkscape:window-height="2054"
     inkscape:window-x="3829"
     inkscape:window-y="-11"
     inkscape:window-maximized="1"
     inkscape:current-layer="layer1" /><defs
     id="defs1" /><g
     inkscape:label="Calque 1"
     inkscape:groupmode="layer"
     id="layer1"
     transform="translate(-37.041672,-80.697922)"><image
       width="135.46666"
       height="135.46666"
       preserveAspectRatio="none"
       xlink:href="curiosite.png"
       id="image1"
       x="37.041672"
       y="80.697922" /><path
       style="fill:#9f5cc0;fill-opacity:1"
       d="m 40.613547,215.84535 c -2.660358,-0.92994 -4.058541,-3.67776 -3.303985,-6.49326 0.312898,-1.16753 1.406373,-2.32994 15.31422,-16.27966 9.964431,-9.99443 15.337303,-15.19703 16.052986,-15.54427 1.953211,-0.94765 4.691192,-0.45545 6.121545,1.10044 1.417916,1.54237 1.788493,4.02792 0.879776,5.90089 -0.347414,0.71606 -5.544559,6.08142 -15.54427,16.04739 -12.906804,12.86327 -15.175721,15.01506 -16.111386,15.27969 -1.30098,0.36796 -2.333858,0.36456 -3.408886,-0.0112 z m 74.877083,-29.46486 c -0.43657,-0.0602 -1.86532,-0.24133 -3.175,-0.40246 -1.30969,-0.16114 -3.95549,-0.69359 -5.87956,-1.18322 -18.364695,-4.67347 -33.037118,-19.17763 -37.889517,-37.45501 -1.392512,-5.24513 -1.704908,-7.76005 -1.704908,-13.72521 0,-5.90803 0.304798,-8.40021 1.666487,-13.62605 6.138405,-23.557714 28.6211,-40.205142 52.935618,-39.196448 13.84816,0.574494 25.7432,5.772323 35.47064,15.499769 8.12313,8.123129 12.98203,17.615159 14.97435,29.252929 0.6291,3.67478 0.6291,12.46481 0,16.13959 -1.98267,11.58137 -6.91433,21.22044 -14.96676,29.25293 -8.16888,8.14866 -17.7112,13.04146 -29.12823,14.93542 -2.40085,0.39827 -10.63359,0.73804 -12.30312,0.50776 z m 12.13639,-11.21718 c 17.2577,-3.41824 30.43474,-16.82943 33.6743,-34.27268 0.73479,-3.9564 0.67819,-11.15683 -0.11902,-15.14267 -3.45637,-17.28104 -16.42169,-30.255008 -33.69877,-33.721253 -4.29383,-0.861458 -11.48466,-0.862559 -15.77109,-0.0024 -17.262988,3.464097 -30.246982,16.44416 -33.708652,33.69844 -0.860265,4.28788 -0.862469,11.48535 -0.0048,15.75849 3.055633,15.22444 13.595189,27.29826 28.149889,32.24772 2.27872,0.7749 6.51167,1.71913 9.20948,2.05433 2.35717,0.29287 9.47632,-0.0669 12.26869,-0.61996 z m -9.87496,-10.14399 c -2.06416,-0.65804 -3.72676,-3.41572 -3.37313,-5.59487 0.37604,-2.31724 1.72283,-3.81954 3.96076,-4.4181 3.90243,-1.04374 7.3773,2.59926 6.26584,6.56901 -0.7979,2.8498 -3.87182,4.39449 -6.85347,3.44396 z m 0,-21.16666 c -1.24445,-0.39673 -2.73459,-1.95166 -3.12768,-3.26366 -0.45226,-1.50951 -0.40471,-5.54681 0.094,-7.97776 0.85813,-4.18327 2.98808,-7.33061 6.54712,-9.67442 2.63076,-1.73249 3.35051,-2.72492 3.53419,-4.87316 0.44997,-5.26255 -6.46313,-7.67333 -9.52787,-3.32261 -0.53201,0.75525 -0.80976,1.55979 -0.96185,2.78619 -0.38514,3.10555 -1.53683,4.60684 -4.04962,5.27891 -1.0098,0.27008 -1.49415,0.27008 -2.50395,0 -3.36768,-0.90071 -4.61804,-3.70944 -3.66889,-8.24156 1.51894,-7.25283 8.16245,-12.69081 15.5042,-12.69081 7.28899,0 13.9802,5.42947 15.47696,12.55851 1.37305,6.53983 -1.3717,12.98635 -7.14259,16.77557 -2.50358,1.64388 -3.04271,2.69598 -3.04271,5.93782 0,2.93641 -0.38521,4.26245 -1.5875,5.46474 -1.43776,1.43776 -3.48879,1.89735 -5.54377,1.24224 z"
       id="path1" /></g></svg>
