<?xml version="1.0" encoding="UTF-8" standalone="no"?>
<!-- Created with Inkscape (http://www.inkscape.org/) -->

<svg
   width="135.46666mm"
   height="135.46666mm"
   viewBox="0 0 135.46666 135.46666"
   version="1.1"
   id="svg1"
   xml:space="preserve"
   inkscape:version="1.4 (86a8ad7, 2024-10-11)"
   sodipodi:docname="effraie_violet.svg"
   xmlns:inkscape="http://www.inkscape.org/namespaces/inkscape"
   xmlns:sodipodi="http://sodipodi.sourceforge.net/DTD/sodipodi-0.dtd"
   xmlns="http://www.w3.org/2000/svg"
   xmlns:svg="http://www.w3.org/2000/svg"><sodipodi:namedview
     id="namedview1"
     pagecolor="#ffffff"
     bordercolor="#000000"
     borderopacity="0.25"
     inkscape:showpageshadow="2"
     inkscape:pageopacity="0.0"
     inkscape:pagecheckerboard="0"
     inkscape:deskcolor="#d1d1d1"
     inkscape:document-units="mm"
     inkscape:zoom="1.0405163"
     inkscape:cx="256.12286"
     inkscape:cy="256.12286"
     inkscape:window-width="3840"
     inkscape:window-height="2054"
     inkscape:window-x="3829"
     inkscape:window-y="-11"
     inkscape:window-maximized="1"
     inkscape:current-layer="layer1" /><defs
     id="defs1" /><g
     inkscape:label="Calque 1"
     inkscape:groupmode="layer"
     id="layer1"
     transform="translate(-37.041672,-80.697922)"><path
       style="fill:#9f5cc0;fill-opacity:1"
       d="m 107.01534,215.63602 c -1.30007,-0.64354 -2.0207,-1.79576 -2.26942,-3.6286 -0.22355,-1.6474 -0.95328,-2.76469 -2.18851,-3.35084 -0.81108,-0.38489 -3.052465,-0.4295 -21.579288,-0.4295 -20.198122,0 -20.698245,-0.0123 -21.718431,-0.53273 -1.113167,-0.56789 -2.109687,-2.10891 -2.109687,-3.26241 0,-1.00505 25.25646,-98.2013 26.157938,-100.66547 1.776427,-4.855824 4.724482,-9.246906 8.866846,-13.207032 5.002967,-4.782868 10.652522,-7.696858 17.925022,-9.245569 3.08448,-0.656854 10.0784,-0.656854 13.16288,0 7.60648,1.619833 13.28016,4.65988 18.57082,9.950541 4.24192,4.241917 7.12008,8.88871 8.80066,14.2087 1.67245,5.29425 1.59077,3.88439 1.69949,29.3321 0.0669,15.66732 0.004,24.27861 -0.19171,26.32604 -1.60315,16.75207 -11.03413,31.55469 -25.54505,40.09482 l -2.52123,1.48382 1.22183,1.35898 c 1.97955,2.20174 3.29,5.35803 3.29,7.92416 0,1.4488 -0.95883,3.01784 -2.21611,3.62648 -1.40528,0.68029 -2.09118,0.68455 -3.46082,0.0215 -1.31141,-0.63484 -2.03951,-1.79031 -2.28965,-3.63361 -0.3925,-2.89237 -1.75456,-3.78034 -5.79867,-3.78034 h -2.70506 l 0.18178,0.8599 c 0.76313,3.6099 0.2279,5.5496 -1.80257,6.53253 -1.40814,0.68167 -2.13039,0.68509 -3.48106,0.0165 z M 73.677442,199.88688 c 10.933501,-1.90664 19.524445,-9.90762 22.437089,-20.89626 0.534919,-2.0181 0.565448,-2.83264 0.65565,-17.49348 l 0.09461,-15.37682 -1.79958,-1.33594 c -3.59089,-2.66574 -7.202653,-6.86932 -9.76404,-11.36397 -0.698301,-1.22536 -1.200968,-1.86472 -1.286372,-1.63617 -0.0771,0.20633 -4.06928,15.55561 -8.871512,34.10951 -4.802232,18.55391 -8.78747,33.8832 -8.856085,34.0651 -0.181233,0.48046 4.482836,0.43504 7.390244,-0.072 z m 32.737658,0.008 c 9.35202,-1.23552 17.56593,-5.20209 24.38511,-11.7758 6.00995,-5.79361 10.21869,-12.87797 12.2148,-20.56058 1.2084,-4.65086 1.44749,-7.72456 1.44749,-18.6084 v -10.03772 l -2.04243,2.13778 c -5.87207,6.14624 -13.44228,9.87165 -22.03465,10.8436 -4.51653,0.51089 -10.69368,-0.11648 -14.55272,-1.47803 l -1.01965,-0.35975 -0.10847,13.54144 c -0.10195,12.72843 -0.14311,13.69624 -0.68558,16.11952 -1.58378,7.07491 -4.677072,12.76932 -9.702382,17.86099 l -2.676631,2.71198 h 5.892498 c 3.714025,0 6.997955,-0.14604 8.882615,-0.39503 z m 16.78422,-56.46123 c 10.09968,-2.51411 17.96809,-10.42855 20.54646,-20.66665 0.83029,-3.29686 0.80962,-9.46164 -0.0433,-12.89918 l -0.60739,-2.44814 -1.89601,-0.90604 c -3.03497,-1.4503 -4.89172,-1.8501 -8.64288,-1.86099 -2.74906,-0.008 -3.64066,0.0951 -5.28234,0.61058 -2.59563,0.81505 -4.58917,1.84064 -6.73509,3.46487 -2.31106,1.74924 -2.56126,1.86807 -3.93334,1.86807 -0.79392,0 -1.43077,-0.19098 -1.98523,-0.59532 -4.16425,-3.03677 -5.52941,-3.79495 -8.52901,-4.73682 -1.64459,-0.51639 -2.53475,-0.61937 -5.28499,-0.61138 -3.751155,0.0109 -5.607913,0.41069 -8.642883,1.86099 l -1.89601,0.90604 -0.60739,2.44814 c -0.856255,3.45121 -0.873676,9.59954 -0.03664,12.93022 1.268241,5.04647 3.76574,9.49139 7.368264,13.11364 4.362827,4.38672 9.280717,6.84649 16.250077,8.12775 1.60484,0.29504 7.87003,-0.0861 9.95765,-0.60578 z m -8.23786,-3.70842 c -1.39768,-0.65061 -9.22801,-8.56193 -9.77865,-9.87978 -0.28788,-0.68901 -0.40917,-1.89277 -0.41245,-4.09339 l -0.005,-3.11735 -2.68526,-2.38125 c -3.03596,-2.69224 -3.653058,-3.53436 -3.654469,-4.9871 -0.0026,-2.69612 2.474849,-4.60955 4.991909,-3.85543 1.29148,0.38694 7.8664,6.22336 8.69929,7.72217 0.52567,0.94597 0.59531,1.44636 0.59531,4.27745 v 3.20615 l 1.98438,1.97113 1.98437,1.97113 1.98438,-1.97113 1.98437,-1.97113 0.001,-3.31391 c 0.001,-2.97314 0.0624,-3.41209 0.59531,-4.26864 0.93207,-1.49821 7.51682,-7.26935 8.69793,-7.62322 2.51706,-0.75412 4.99453,1.15931 4.99191,3.85543 -0.001,1.45274 -0.61851,2.29486 -3.65446,4.9871 l -2.68527,2.38125 -0.005,3.11735 c -0.003,2.20062 -0.12457,3.40438 -0.41245,4.09339 -0.55064,1.31785 -8.38097,9.22917 -9.77865,9.87978 -0.58208,0.27096 -1.35599,0.49265 -1.71979,0.49265 -0.3638,0 -1.13771,-0.22169 -1.71979,-0.49265 z m 3.48153,-39.16997 c 2.30717,-1.39152 5.10557,-2.534098 7.94662,-3.244579 1.84332,-0.460973 3.12331,-0.585066 6.12619,-0.593932 l 3.79601,-0.01121 -1.15018,-1.025138 c -3.13308,-2.792486 -7.34864,-5.042843 -11.60121,-6.192982 -2.22214,-0.600994 -3.01966,-0.679806 -6.87917,-0.679806 -3.86861,0 -4.65731,0.07834 -6.9277,0.688109 -3.31005,0.888997 -7.03022,2.685354 -9.64651,4.658003 -3.552083,2.678227 -3.598472,2.547853 0.91664,2.576172 3.28989,0.02063 4.27621,0.129086 6.45161,0.709398 2.67034,0.712342 6.2759,2.266326 8.0406,3.465471 0.56299,0.38256 1.06203,0.69556 1.10898,0.69556 0.0469,0 0.8651,-0.47028 1.81812,-1.04507 z"
       id="path1" /></g></svg>
