<?xml version="1.0" encoding="UTF-8" standalone="no"?>
<!-- Created with Inkscape (http://www.inkscape.org/) -->

<svg
   width="135.46666mm"
   height="135.46666mm"
   viewBox="0 0 135.46666 135.46666"
   version="1.1"
   id="svg1"
   xml:space="preserve"
   inkscape:version="1.4 (86a8ad7, 2024-10-11)"
   sodipodi:docname="etangs_et_rivieres_violet.svg"
   xmlns:inkscape="http://www.inkscape.org/namespaces/inkscape"
   xmlns:sodipodi="http://sodipodi.sourceforge.net/DTD/sodipodi-0.dtd"
   xmlns="http://www.w3.org/2000/svg"
   xmlns:svg="http://www.w3.org/2000/svg"><sodipodi:namedview
     id="namedview1"
     pagecolor="#ffffff"
     bordercolor="#000000"
     borderopacity="0.25"
     inkscape:showpageshadow="2"
     inkscape:pageopacity="0.0"
     inkscape:pagecheckerboard="0"
     inkscape:deskcolor="#d1d1d1"
     inkscape:document-units="mm"
     inkscape:zoom="1.0405163"
     inkscape:cx="256.12286"
     inkscape:cy="256.12286"
     inkscape:window-width="3840"
     inkscape:window-height="2054"
     inkscape:window-x="3829"
     inkscape:window-y="-11"
     inkscape:window-maximized="1"
     inkscape:current-layer="layer1" /><defs
     id="defs1" /><g
     inkscape:label="Calque 1"
     inkscape:groupmode="layer"
     id="layer1"
     transform="translate(-37.041672,-80.697922)"><path
       style="fill:#9f5cc0;fill-opacity:1"
       d="m 39.270445,215.6303 c -0.671246,-0.33227 -1.295699,-0.92029 -1.653646,-1.55717 -0.529724,-0.94252 -0.575127,-1.38985 -0.575127,-5.6664 v -4.6431 l 8.135937,-0.0834 c 7.826278,-0.0802 8.171183,-0.10534 9.061979,-0.66041 1.229518,-0.76614 1.89618,-1.95861 1.89618,-3.39172 0,-1.4331 -0.666662,-2.62557 -1.89618,-3.39171 -0.891122,-0.55528 -1.232844,-0.58006 -9.061979,-0.6573 l -8.135937,-0.0803 v -3.81098 -3.81098 l 13.427603,-0.0775 c 13.272872,-0.0766 13.438275,-0.0842 14.353645,-0.65454 1.229518,-0.76614 1.896181,-1.95861 1.896181,-3.39172 0,-1.4331 -0.666663,-2.62557 -1.896181,-3.39171 -0.915498,-0.57047 -1.078917,-0.57789 -14.353645,-0.6524 l -13.427603,-0.0754 v -4.65111 c 0,-5.30891 0.248681,-6.15504 2.117735,-7.20551 l 0.997021,-0.56035 h 66.175952 66.17595 v 6.21334 6.21335 l -30.36093,0.0705 c -29.81955,0.0693 -30.37696,0.0799 -31.25933,0.59967 -1.44864,0.85328 -2.01203,1.81639 -2.01203,3.43958 0,1.6232 0.56339,2.5863 2.01203,3.43959 0.88237,0.51973 1.43978,0.53042 31.25933,0.59967 l 30.36093,0.0705 v 3.82094 3.82094 l -10.78177,0.0773 c -10.22968,0.0734 -10.82777,0.1044 -11.68015,0.60647 -1.44865,0.85328 -2.01204,1.81639 -2.01204,3.43958 0,1.6232 0.56339,2.5863 2.01204,3.43959 0.85238,0.50207 1.45047,0.53312 11.68015,0.60647 l 10.78177,0.0773 v 4.53552 c 0,4.03886 -0.0597,4.65881 -0.54507,5.66148 -0.39574,0.81748 -0.85355,1.27529 -1.67103,1.67103 l -1.12597,0.54507 -64.40865,-2.1e-4 c -64.064771,-2e-4 -64.414405,-0.003 -65.487165,-0.53407 z m 44.924987,-12.17736 c 2.988305,-0.82993 4.040143,-4.17353 2.03231,-6.46033 -1.21346,-1.38205 -2.325747,-1.52124 -11.350656,-1.42043 -7.285897,0.0814 -7.866198,0.12302 -8.721887,0.62572 -3.105018,1.82413 -2.358372,6.42885 1.181263,7.28509 1.260084,0.30482 15.746202,0.27899 16.85897,-0.03 z m 52.652078,0 c 4.00831,-1.11322 4.07314,-6.62677 0.0897,-7.62981 -1.62678,-0.40963 -37.157441,-0.41213 -38.632094,-0.003 -2.925935,0.81234 -4.010985,4.56932 -1.894034,6.55809 1.414722,1.32906 1.377855,1.32672 21.063908,1.33758 11.86911,0.007 18.7374,-0.0867 19.37251,-0.26314 z m -39.158329,-15.875 c 2.988309,-0.82993 4.040139,-4.17353 2.03231,-6.46032 -1.236782,-1.40862 -2.222207,-1.51784 -12.805864,-1.41939 -8.752303,0.0814 -9.310713,0.11569 -10.177095,0.62467 -3.105018,1.82413 -2.358372,6.42885 1.181263,7.28509 1.268167,0.30677 18.65175,0.28035 19.769386,-0.03 z M 69.056253,146.05 v -13.22916 h -4.990154 c -2.744586,0 -5.535743,-0.0748 -6.202572,-0.16618 l -1.212416,-0.16618 -0.08128,5.56944 c -0.08062,5.52438 -0.08663,5.57516 -0.742741,6.27673 -1.822738,1.94905 -4.263021,1.94898 -6.085416,-1.7e-4 l -0.661458,-0.70747 -0.07817,-7.2672 -0.07817,-7.26719 -1.546364,-1.54637 c -8.063492,-8.06349 -6.047073,-21.56084 4.05047,-27.11272 0.891544,-0.490189 2.065612,-1.032199 2.60904,-1.204461 1.226697,-0.388855 2.054658,-1.40321 2.054658,-2.517214 0,-1.470949 1.005841,-4.855449 2.030707,-6.833019 1.470263,-2.837001 4.579414,-5.862818 7.494292,-7.293423 2.963324,-1.454381 5.512958,-1.985227 8.598958,-1.790344 3.331893,0.210412 6.287385,1.187947 8.667159,2.866681 l 0.729659,0.514715 -0.923412,1.651216 c -0.507877,0.908169 -1.320363,2.864467 -1.805524,4.347329 l -0.882111,2.696112 -1.569969,0.944616 c -12.657425,7.615692 -16.353749,23.647512 -8.230548,35.697802 1.30172,1.93103 3.739137,4.51575 5.644849,5.986 l 1.412605,1.08981 v 11.34491 11.34491 h -4.101041 -4.101042 z m 31.485417,0 v -13.22916 h -3.968751 -3.96875 l -4.11e-4,8.26822 c -4.6e-4,9.24873 -0.04681,9.51744 -1.851672,10.73392 -0.760712,0.51272 -1.175996,0.60409 -2.326077,0.51176 -1.609114,-0.12917 -2.55529,-0.72411 -3.269479,-2.05579 -0.449039,-0.83728 -0.489861,-1.65751 -0.489861,-9.84276 v -8.92936 l -1.260666,-0.63882 c -8.330657,-4.22147 -11.80981,-14.06769 -7.942446,-22.47763 1.903793,-4.13997 6.006749,-7.87682 10.058871,-9.161311 1.226697,-0.388855 2.054658,-1.40321 2.054658,-2.517214 0,-1.470949 1.005841,-4.855449 2.030707,-6.833019 1.470263,-2.837001 4.579414,-5.862818 7.494292,-7.293423 2.963325,-1.454381 5.512955,-1.985227 8.598955,-1.790344 4.58249,0.289388 7.84572,1.770635 11.12491,5.049823 3.12678,3.126785 4.63751,6.309485 5.08198,10.70635 l 0.19728,1.951622 2.38125,0.957976 c 4.5547,1.83235 7.51323,4.5605 9.51365,8.77283 2.30646,4.85675 2.25473,10.06405 -0.14867,14.96445 -1.96775,4.01214 -5.78758,7.31422 -10.10198,8.73271 -2.05816,0.67668 -2.50666,0.72069 -8.45727,0.82981 l -6.28386,0.11523 v 13.20165 13.20165 h -4.23333 -4.23333 z m 16.58872,12.23698 c 0.47324,-3.10364 2.10563,-6.67875 4.23736,-9.28024 3.32069,-4.05247 9.41846,-6.66387 14.77951,-6.32941 l 2.16748,0.13522 0.54937,-0.96096 c 2.54618,-4.45377 7.79424,-8.34011 13.13901,-9.72982 2.77186,-0.72072 8.05451,-0.66384 10.79275,0.11621 3.88912,1.1079 8.41511,3.882 9.26886,5.68112 0.39127,0.82456 0.4436,2.13952 0.4436,11.14745 v 10.21262 H 144.74372 116.9791 Z"
       id="path1" /></g></svg>
