<?xml version="1.0" encoding="UTF-8" standalone="no"?>
<!-- Created with Inkscape (http://www.inkscape.org/) -->

<svg
   width="135.46666mm"
   height="135.46666mm"
   viewBox="0 0 135.46666 135.46666"
   version="1.1"
   id="svg1"
   xml:space="preserve"
   inkscape:version="1.4 (86a8ad7, 2024-10-11)"
   sodipodi:docname="ferme_producteur_violet.svg"
   xmlns:inkscape="http://www.inkscape.org/namespaces/inkscape"
   xmlns:sodipodi="http://sodipodi.sourceforge.net/DTD/sodipodi-0.dtd"
   xmlns:xlink="http://www.w3.org/1999/xlink"
   xmlns="http://www.w3.org/2000/svg"
   xmlns:svg="http://www.w3.org/2000/svg"><sodipodi:namedview
     id="namedview1"
     pagecolor="#ffffff"
     bordercolor="#000000"
     borderopacity="0.25"
     inkscape:showpageshadow="2"
     inkscape:pageopacity="0.0"
     inkscape:pagecheckerboard="0"
     inkscape:deskcolor="#d1d1d1"
     inkscape:document-units="mm"
     inkscape:zoom="1.0405163"
     inkscape:cx="255.64233"
     inkscape:cy="256.12286"
     inkscape:window-width="3840"
     inkscape:window-height="2054"
     inkscape:window-x="3829"
     inkscape:window-y="-11"
     inkscape:window-maximized="1"
     inkscape:current-layer="layer1" /><defs
     id="defs1" /><g
     inkscape:label="Calque 1"
     inkscape:groupmode="layer"
     id="layer1"
     transform="translate(-37.306255,-80.697922)"><image
       width="135.46666"
       height="135.46666"
       preserveAspectRatio="none"
       xlink:href="ferme_producteur.png"
       id="image1"
       x="37.306255"
       y="80.697922" /><path
       style="fill:#9f5cc0;fill-opacity:1"
       d="m 41.539588,205.58125 v -4.23333 h 9.757968 9.757968 l -1.059652,4.23333 -1.059652,4.23333 h -8.698316 -8.698316 z m 27.582513,-19.05 5.821093,-23.28333 h 6.052363 c 5.657211,0 6.052362,0.0312 6.052362,0.4774 0,0.26257 -1.131093,10.6443 -2.513541,23.07051 -1.382448,12.42622 -2.513542,22.68889 -2.513542,22.80594 0,0.11704 -4.211961,0.21281 -9.359914,0.21281 h -9.359915 z m 17.194842,22.42344 c 0.07261,-0.47295 1.247688,-10.95045 2.611294,-23.28334 l 2.479283,-22.42343 h 5.757699 5.757701 v 23.28333 23.28333 h -8.368995 -8.368993 z m 20.839307,-35.12344 v -35.98333 h 2.11667 2.11666 v -3.2879 -3.28789 l -1.41194,-0.64641 c -1.80673,-0.82715 -3.23637,-2.26354 -4.1126,-4.132 -0.61454,-1.31044 -0.68905,-1.7782 -0.65692,-4.12393 0.0424,-3.09214 1.00218,-8.25153 2.38178,-12.80296 1.70763,-5.63363 3.31601,-8.6769 5.01361,-9.48643 0.83376,-0.397594 0.97172,-0.397594 1.80548,0 1.69761,0.80953 3.30599,3.8528 5.01362,9.48643 1.3796,4.55143 2.33941,9.71082 2.38177,12.80296 0.0321,2.34573 -0.0424,2.81349 -0.65691,4.12393 -0.87977,1.876 -2.3071,3.30541 -4.13729,4.1433 l -1.43662,0.6577 0.11671,3.60733 c 0.0899,2.77878 7.13782,67.50778 8.0343,73.78805 l 0.16051,1.12448 h -8.36441 -8.36442 z m 7.87136,-42.50009 0.59531,-0.15954 v -6.18685 -6.18685 h -2.11667 -2.11667 v 6.19831 c 0,5.68066 0.0387,6.20841 0.46303,6.31931 0.70874,0.18521 2.50911,0.19407 3.175,0.0156 z m 13.03072,78.27587 c 0,-0.11415 -1.78593,-16.27278 -3.96875,-35.90807 -2.18281,-19.63529 -3.96875,-35.73439 -3.96875,-35.77578 0,-0.0414 1.94966,-0.0753 4.33257,-0.0753 h 4.33256 l 8.996,35.98333 8.99601,35.98333 h -9.35982 c -5.1479,0 -9.35982,-0.0934 -9.35982,-0.20755 z m 22.02497,-4.02578 -1.05965,-4.23333 h 9.75796 9.75797 v 4.23333 4.23333 h -8.69831 -8.69832 z m -108.543712,-12.7 v -4.23333 h 11.345468 11.345468 l -1.059652,4.23333 -1.059652,4.23333 H 51.825404 41.539588 Z m 105.368712,0 -1.05965,-4.23333 h 11.34546 11.34547 v 4.23333 4.23333 h -10.28581 -10.28582 z m -105.368712,-12.7 v -4.23333 h 12.932968 12.932968 l -1.059652,4.23333 -1.059652,4.23333 H 53.412904 41.539588 Z m 102.193712,0 -1.05965,-4.23333 h 12.93296 12.93297 v 4.23333 4.23333 h -11.87331 -11.87332 z m -102.193712,-12.7 v -4.23333 h 14.520468 14.520468 l -1.059652,4.23333 -1.059652,4.23333 H 55.000404 41.539588 Z m 99.018712,0 -1.05965,-4.23333 h 14.52046 14.52047 v 4.23333 4.23333 h -13.46081 -13.46082 z m -99.018712,-19.05 v -10.58333 h 3.175 3.175 v 3.5839 c 0,3.45235 0.02384,3.60774 0.649432,4.23333 l 0.649432,0.64943 h 24.101135 24.101135 l 0.649432,-0.64943 c 0.625594,-0.62559 0.649431,-0.78098 0.649431,-4.23333 v -3.5839 h 2.116665 2.11667 v 10.58333 10.58333 H 72.231254 41.539588 Z m 95.843712,6.35 -1.05965,-4.23333 h 16.10796 16.10797 v 4.23333 4.23333 h -15.04831 -15.04832 z m -3.175,-12.7 -1.05965,-4.23333 h 0.76213 0.76214 v -3.2879 -3.28789 l -1.41195,-0.64641 c -1.80673,-0.82715 -3.23637,-2.26354 -4.1126,-4.132 -0.61454,-1.31044 -0.68905,-1.7782 -0.65692,-4.12393 0.0424,-3.09214 1.00218,-8.25153 2.38178,-12.80296 1.70763,-5.63363 3.31601,-8.6769 5.01361,-9.48643 0.83377,-0.397594 0.97172,-0.397594 1.80548,0 1.69761,0.80953 3.30599,3.8528 5.01362,9.48643 1.3796,4.55143 2.33942,9.71082 2.38177,12.80296 0.0321,2.34573 -0.0424,2.81349 -0.65691,4.12393 -0.87623,1.86846 -2.30587,3.30485 -4.11261,4.132 l -1.41194,0.64641 v 3.28789 3.2879 h 9.525 9.525 v -3.2879 -3.28789 l -1.41195,-0.64641 c -1.80673,-0.82715 -3.23637,-2.26354 -4.1126,-4.132 -0.61454,-1.31044 -0.68905,-1.7782 -0.65691,-4.12393 0.0423,-3.09214 1.00217,-8.25153 2.38177,-12.80296 1.70763,-5.63363 3.31601,-8.6769 5.01361,-9.48643 0.83377,-0.397594 0.97172,-0.397594 1.80549,0 1.6976,0.80953 3.30598,3.8528 5.01361,9.48643 1.3796,4.55143 2.33942,9.71082 2.38178,12.80296 0.0321,2.34573 -0.0424,2.81349 -0.65692,4.12393 -0.87623,1.86846 -2.30587,3.30485 -4.1126,4.132 l -1.41195,0.64641 v 3.28789 3.2879 h 3.175 3.175 v 4.23333 4.23333 h -16.63581 -16.63582 z m 4.10264,-10.75009 0.59531,-0.15954 v -6.18685 -6.18685 h -2.11667 -2.11666 v 6.19831 c 0,5.68066 0.0387,6.20841 0.46302,6.31931 0.70874,0.18521 2.50911,0.19407 3.175,0.0156 z m 23.28333,0 0.59531,-0.15954 v -6.18685 -6.18685 h -2.11666 -2.11667 v 6.19831 c 0,5.68066 0.0387,6.20841 0.46302,6.31931 0.70874,0.18521 2.50911,0.19407 3.175,0.0156 z M 52.122921,130.83268 v -11.24857 l 6.004045,-7.0025 6.004044,-7.00249 4.425951,-2.65102 c 2.434273,-1.45806 4.563955,-2.65101 4.732626,-2.65101 0.168671,0 2.298352,1.19295 4.732625,2.65101 l 4.425952,2.65102 6.004044,7.00249 6.004044,7.0025 v 11.24857 11.24857 h -6.349999 -6.35 v -7.81723 -7.81724 l -0.649432,-0.64943 -0.649432,-0.64943 h -7.167802 -7.167803 l -0.649432,0.64943 -0.649431,0.64943 v 7.81724 7.81723 h -6.35 -6.35 z m 16.933333,4.89857 v -6.35 h 4.233333 4.233333 v 6.35 6.35 H 73.289587 69.056254 Z M 47.144777,114.00201 c -2.443803,-1.84285 -2.446728,-1.84647 -1.975787,-2.44058 0.259402,-0.32725 3.187271,-3.69845 6.506376,-7.49156 l 6.034736,-6.896552 7.584546,-4.731969 c 4.171501,-2.602583 7.769223,-4.731969 7.994939,-4.731969 0.225715,0 3.823438,2.129386 7.994938,4.731969 l 7.584547,4.731969 6.034736,6.896552 c 3.319104,3.79311 6.245872,7.1629 6.503922,7.48843 0.46718,0.58935 0.45984,0.5989 -1.719796,2.23899 -1.203935,0.90592 -2.32588,1.7515 -2.493209,1.87908 -0.206418,0.15737 -2.163009,-1.9405 -6.085417,-6.52484 l -5.78118,-6.75679 -5.733429,-3.440076 c -3.153386,-1.892042 -5.990687,-3.440076 -6.305112,-3.440076 -0.314426,0 -3.151726,1.547709 -6.305112,3.439353 l -5.733429,3.439359 -5.664537,6.62524 c -3.115495,3.64388 -5.738735,6.6711 -5.829421,6.72714 -0.09069,0.0561 -1.266226,-0.7286 -2.612311,-1.74367 z"
       id="path1" /></g></svg>
