<?xml version="1.0" encoding="UTF-8" standalone="no"?>
<!-- Created with Inkscape (http://www.inkscape.org/) -->

<svg
   width="135.46666mm"
   height="135.46666mm"
   viewBox="0 0 135.46666 135.46666"
   version="1.1"
   id="svg1"
   xml:space="preserve"
   inkscape:version="1.4 (86a8ad7, 2024-10-11)"
   sodipodi:docname="flore_violet.svg"
   xmlns:inkscape="http://www.inkscape.org/namespaces/inkscape"
   xmlns:sodipodi="http://sodipodi.sourceforge.net/DTD/sodipodi-0.dtd"
   xmlns="http://www.w3.org/2000/svg"
   xmlns:svg="http://www.w3.org/2000/svg"><sodipodi:namedview
     id="namedview1"
     pagecolor="#ffffff"
     bordercolor="#000000"
     borderopacity="0.25"
     inkscape:showpageshadow="2"
     inkscape:pageopacity="0.0"
     inkscape:pagecheckerboard="0"
     inkscape:deskcolor="#d1d1d1"
     inkscape:document-units="mm"
     inkscape:zoom="1.4715122"
     inkscape:cx="353.03818"
     inkscape:cy="274.88728"
     inkscape:window-width="3840"
     inkscape:window-height="2054"
     inkscape:window-x="3829"
     inkscape:window-y="-11"
     inkscape:window-maximized="1"
     inkscape:current-layer="layer1" /><defs
     id="defs1" /><g
     inkscape:label="Calque 1"
     inkscape:groupmode="layer"
     id="layer1"
     transform="translate(-37.041672,-80.697922)"><path
       style="fill:#9f5cc0;fill-opacity:1"
       d="m 73.987124,210.96913 c -0.383645,-0.38365 -0.697537,-0.77373 -0.697537,-0.86684 0,-1.01186 -0.662024,-5.07399 -1.076778,-6.60702 -2.014922,-7.44766 -7.098349,-13.59792 -14.533638,-17.58374 -2.776116,-1.48818 -7.129976,-2.96677 -10.07976,-3.42312 -1.940612,-0.30023 -2.233819,-0.41605 -2.305567,-0.91079 -0.10446,-0.7203 0.22383,-0.88955 3.654077,-1.88387 13.452038,-3.8993 23.999098,-2.93973 31.731675,2.88694 6.91841,5.21318 11.163072,14.7471 12.036638,27.03545 l 0.145769,2.05052 h -3.960334 c -3.899057,0 -3.961983,-0.009 -4.066876,-0.59531 -0.0586,-0.32742 -0.364207,-2.23202 -0.679133,-4.23244 -1.066819,-6.77647 -3.143356,-12.52203 -5.944271,-16.44716 -2.366609,-3.31651 -6.878537,-6.77092 -8.843733,-6.77092 -0.595193,0 -0.952368,0.18925 -1.268876,0.6723 -0.659631,1.00672 -0.170826,1.76687 1.800541,2.80004 2.114094,1.10798 5.352608,4.29506 6.67744,6.5714 2.219437,3.81346 3.933839,9.3533 4.731794,15.29012 l 0.364512,2.71197 h -3.494203 c -3.422567,0 -3.508502,-0.0143 -4.19174,-0.69753 z m 21.933132,-1.74986 c -1.007018,-13.71696 -5.899964,-23.92 -14.403953,-30.03593 -1.114654,-0.80165 -1.216483,-0.99202 -2.312796,-4.32385 -1.242182,-3.77514 -3.049318,-7.75719 -4.846796,-10.67998 -2.136009,-3.47325 -4.342046,-6.09368 -9.719944,-11.54578 -3.912018,-3.96599 -5.335313,-5.57276 -5.214737,-5.88698 0.461242,-1.20197 10.373952,0.0652 16.51339,2.111 6.129886,2.04259 11.25641,5.09336 15.676646,9.32909 7.4281,7.11804 12.166434,16.25614 14.870874,28.67915 l 0.62006,2.84828 -1.39845,3.23714 c -1.71451,3.96877 -3.75007,10.22368 -4.90664,15.07723 l -0.866918,3.63802 h -1.915531 -1.915532 z m 7.364244,1.9898 c 0.0749,-0.25765 0.5079,-1.95673 0.96233,-3.77574 5.04599,-20.19842 14.30269,-32.54057 27.77224,-37.02931 7.17793,-2.39205 16.89773,-2.53057 27.05688,-0.38559 4.36401,0.92141 5.08103,1.18056 5.17958,1.87208 0.0929,0.65161 0.0312,0.67837 -2.96991,1.28935 -15.43333,3.14195 -27.28417,15.70746 -31.79143,33.70861 -1.25175,4.99923 -0.92149,4.77819 -7.13915,4.77819 H 117.475 v -0.65007 c 0,-1.22964 1.83938,-7.82457 3.03563,-10.88397 2.6872,-6.87252 6.17789,-12.5373 10.71303,-17.38538 1.23961,-1.32515 1.59717,-1.89025 1.59717,-2.52425 0,-0.89696 -0.57496,-1.36466 -1.67762,-1.36466 -1.17025,0 -6.05103,5.76856 -8.96098,10.5909 -3.47334,5.75601 -6.14935,12.61222 -7.48399,19.17473 l -0.5919,2.91041 -5.47897,0.0716 c -5.13583,0.0671 -5.47045,0.0422 -5.34287,-0.39688 z m 5.60509,-28.05126 c -0.75455,-3.2228 -2.3525,-7.83644 -3.97726,-11.48322 l -1.49131,-3.34729 1.35874,-2.70762 c 7.36096,-14.66842 19.90509,-25.93292 35.5817,-31.95202 2.80856,-1.07835 2.66473,-0.32947 -1.01586,5.28894 -5.25381,8.01996 -7.95133,13.0364 -10.57247,19.66111 -1.36027,3.43799 -3.36063,9.75136 -3.36063,10.60659 0,0.2045 -0.72491,0.81871 -1.61092,1.36491 -5.18196,3.19454 -10.28514,8.25222 -13.22553,13.10762 -0.49844,0.82307 -0.97378,1.49987 -1.05632,1.504 -0.0825,0.004 -0.3661,-0.91523 -0.63014,-2.04302 z m -8.47945,-19.57843 c -1.266817,-2.00506 -3.686448,-4.93839 -5.80037,-7.03184 l -1.956593,-1.93763 -0.291546,-4.72558 c -0.573757,-9.29985 -1.837935,-15.24152 -5.592866,-26.28662 -0.723606,-2.12848 -1.25821,-4.01965 -1.188009,-4.20259 0.314695,-0.82008 1.968091,-0.11724 6.891121,2.92935 7.886493,4.88051 13.384733,11.47796 16.679623,20.01423 0.79599,2.06222 2.23808,6.79999 2.23808,7.35286 0,0.12685 -0.82067,1.25349 -1.82372,2.50366 -2.32006,2.89163 -4.87432,6.76463 -6.63497,10.06051 -0.75793,1.41883 -1.45674,2.57947 -1.55291,2.57921 -0.0962,-2.6e-4 -0.5317,-0.56526 -0.96784,-1.25556 z M 88.232892,151.26689 c -0.58256,-0.38393 -1.288433,-1.52213 -2.602238,-4.19606 -3.237049,-6.58821 -7.186846,-12.02492 -13.072606,-17.99384 l -2.778548,-2.81781 1.099609,-1.14437 1.09961,-1.14436 3.397964,3.47794 c 5.311969,5.43701 8.52292,9.69253 11.785031,15.6189 1.615148,2.93428 2.078233,4.63838 1.949448,7.17376 l -0.07887,1.55267 z m 25.643618,-4.79398 c -0.29874,-0.77849 -0.20185,-1.59681 0.65156,-5.5029 1.72533,-7.89694 3.40135,-19.36766 3.90651,-26.73615 l 0.17686,-2.57969 h 1.58257 1.58258 l -0.17948,2.4474 c -0.5326,7.26274 -1.86422,16.83187 -3.49964,25.14868 l -0.97813,4.97421 -1.54065,1.33469 c -1.23151,1.06688 -1.57307,1.25023 -1.70218,0.91376 z M 59.928129,125.32295 c -1.96866,-0.65231 -2.63906,-1.17124 -6.681362,-5.1718 -2.994403,-2.96348 -4.034263,-4.15787 -4.034263,-4.63377 0,-1.61963 3.881895,-3.22952 7.26392,-3.01248 3.204155,0.20563 4.70747,1.09237 9.106755,5.37168 2.055712,1.99965 3.737658,3.77411 3.737658,3.94324 0,0.56673 -2.234927,2.50284 -3.567612,3.09061 -1.605355,0.70803 -4.347231,0.9022 -5.825096,0.41252 z m 7.372728,-10.20519 c -3.640737,-3.55823 -6.004482,-5.11178 -8.347697,-5.48648 -0.561624,-0.0898 -1.078184,-0.25559 -1.147912,-0.36841 -0.233987,-0.3786 0.874428,-3.43606 1.581957,-4.36368 1.237891,-1.62296 1.624996,-1.42871 6.036116,3.02894 4.456735,4.50374 5.206499,5.71882 5.426554,8.79437 0.07126,0.99596 0.0838,1.80653 0.02787,1.80126 -0.05593,-0.005 -1.665532,-1.53797 -3.576885,-3.406 z m -15.971686,-6.63859 c 0,-1.79151 0.589738,-2.38125 2.38125,-2.38125 1.465347,0 1.444287,-0.037 1.021414,1.79498 -0.296136,1.28293 -0.324755,1.31155 -1.607685,1.60768 -1.831989,0.42288 -1.794979,0.44394 -1.794979,-1.02141 z m 65.975579,-0.55093 c -1.95347,-0.75125 -3.62197,-2.33284 -4.63774,-4.39617 l -0.85869,-1.74425 -0.10945,-5.647185 c -0.0972,-5.015908 -0.0585,-5.724973 0.34647,-6.343021 0.40556,-0.618955 0.5841,-0.681385 1.61602,-0.565073 2.76529,0.311688 5.91043,2.711326 7.38552,5.6349 l 0.79375,1.573188 0.084,6.019271 0.084,6.01927 -1.67153,-0.0138 c -0.99928,-0.008 -2.21884,-0.22426 -3.03241,-0.53714 z m 7.78792,-6.52667 c -0.0917,-4.962647 -0.15883,-5.627839 -0.69827,-6.923699 -0.32823,-0.788475 -0.83986,-1.774967 -1.13696,-2.192203 -0.2971,-0.417237 -0.47827,-0.919948 -0.4026,-1.117137 0.20868,-0.543828 2.94336,-1.78819 4.25463,-1.93599 1.03193,-0.116312 1.21047,-0.05388 1.61602,0.565073 0.40502,0.618137 0.44346,1.323289 0.34427,6.315257 -0.10841,5.455409 -0.13292,5.665759 -0.83996,7.206929 -0.65422,1.42604 -2.3651,3.57187 -2.84788,3.57187 -0.10327,0 -0.23343,-2.47055 -0.28925,-5.4901 z m -5.84826,-13.296895 c -0.55479,-0.417501 -1.15011,-0.819228 -1.32292,-0.892729 -0.52517,-0.223369 1.66577,-2.016108 2.46393,-2.016108 0.66436,0 2.95067,1.652168 2.64583,1.911971 -0.25726,0.219252 -2.67313,1.791933 -2.72524,1.774076 -0.0291,-0.01 -0.50681,-0.35971 -1.0616,-0.77721 z"
       id="path1" /></g></svg>
