<?xml version="1.0" encoding="UTF-8" standalone="no"?>
<!-- Created with Inkscape (http://www.inkscape.org/) -->

<svg
   width="135.46666mm"
   height="135.46666mm"
   viewBox="0 0 135.46666 135.46666"
   version="1.1"
   id="svg1"
   xml:space="preserve"
   inkscape:version="1.4 (86a8ad7, 2024-10-11)"
   sodipodi:docname="heron_violet.svg"
   xmlns:inkscape="http://www.inkscape.org/namespaces/inkscape"
   xmlns:sodipodi="http://sodipodi.sourceforge.net/DTD/sodipodi-0.dtd"
   xmlns="http://www.w3.org/2000/svg"
   xmlns:svg="http://www.w3.org/2000/svg"><sodipodi:namedview
     id="namedview1"
     pagecolor="#ffffff"
     bordercolor="#000000"
     borderopacity="0.25"
     inkscape:showpageshadow="2"
     inkscape:pageopacity="0.0"
     inkscape:pagecheckerboard="0"
     inkscape:deskcolor="#d1d1d1"
     inkscape:document-units="mm"
     inkscape:zoom="1.4715122"
     inkscape:cx="379.54153"
     inkscape:cy="254.50009"
     inkscape:window-width="3840"
     inkscape:window-height="2054"
     inkscape:window-x="3829"
     inkscape:window-y="-11"
     inkscape:window-maximized="1"
     inkscape:current-layer="layer1" /><defs
     id="defs1" /><g
     inkscape:label="Calque 1"
     inkscape:groupmode="layer"
     id="layer1"
     transform="translate(-37.041672,-80.697922)"><path
       style="fill:#9f5cc0;fill-opacity:1"
       d="m 86.877792,215.90223 c -1.473086,-0.59447 -1.898285,-2.85321 -0.78151,-4.15154 0.581407,-0.67593 0.819326,-0.74757 2.778125,-0.83652 1.178244,-0.0535 2.142262,-0.13407 2.142262,-0.17903 0,-0.045 -0.769189,-5.02646 -1.709309,-11.07002 -1.676322,-10.77624 -1.702436,-11.02435 -1.353168,-12.85738 0.422706,-2.21845 1.060539,-1.89654 -5.249415,-2.64933 -2.647657,-0.31588 -4.7181,-0.69294 -5.069617,-0.92326 -0.326801,-0.21413 -0.726089,-0.789 -0.887308,-1.2775 -0.361157,-1.09432 -0.376989,-1.04817 3.139674,-9.15194 1.476182,-3.4017 2.636516,-6.23236 2.578521,-6.29036 -0.058,-0.058 -1.283222,0.0959 -2.722725,0.34195 -1.453944,0.24854 -4.218,0.46295 -6.218598,0.4824 l -3.60132,0.035 -2.74868,1.36356 c -3.723591,1.8472 -7.75827,3.15587 -10.855969,3.5212 -5.460643,0.64401 -9.752084,-0.93341 -9.752084,-3.58461 0,-1.45901 0.722173,-4.77263 1.412774,-6.48239 1.877841,-4.64906 5.957578,-9.00435 11.154934,-11.90833 1.110239,-0.62034 2.678645,-2.0162 5.216948,-4.64302 3.774671,-3.9063 4.985174,-4.77302 6.271601,-4.49047 1.463469,0.32143 2.418318,2.00962 1.903108,3.36472 -0.145052,0.38152 -1.236095,1.62703 -2.424541,2.7678 -1.188445,1.14077 -2.940686,2.99716 -3.893869,4.12529 -1.431494,1.69425 -2.116795,2.2553 -3.938345,3.22431 -2.701773,1.43726 -4.946186,3.13811 -6.566448,4.97615 -1.285132,1.45786 -3.203603,5.02569 -3.479315,6.47057 -0.144536,0.75745 -0.086,0.86618 0.552553,1.02645 1.884915,0.47309 7.0847,-0.73781 10.953477,-2.55078 4.699376,-2.2022 14.381936,-7.99321 19.866757,-11.88204 6.481528,-4.5955 13.19858,-10.67107 16.344945,-14.78398 2.37176,-3.10035 2.79854,-3.48079 3.90475,-3.48079 1.25571,0 1.88494,0.35743 2.40722,1.3674 0.61366,1.1867 0.31995,2.14205 -1.33428,4.33989 -4.63899,6.16346 -11.627535,12.40845 -20.896306,18.67303 -4.288302,2.89838 -4.315158,2.823 0.585559,1.64347 1.495807,-0.36002 2.946935,-0.58245 3.224729,-0.49428 0.277795,0.0882 1.578055,0.91975 2.889467,1.84796 l 2.384387,1.68766 1.431175,-2.69247 c 1.356097,-2.55121 1.56846,-2.80258 4.048175,-4.79175 4.872024,-3.90821 9.914474,-9.42977 13.975594,-15.30348 0.98343,-1.42236 2.04474,-2.76539 2.35848,-2.98451 0.31373,-0.21912 1.52293,-1.00393 2.68709,-1.74402 2.70773,-1.72137 6.70331,-5.74582 8.70998,-8.7729 2.73228,-4.12168 3.92419,-8.03791 3.92137,-12.88434 -0.003,-4.68824 -0.75628,-7.01193 -3.94692,-12.17083 -1.36907,-2.213634 -1.77008,-3.46012 -1.5598,-4.848485 0.44581,-2.943442 2.42183,-4.561141 6.02562,-4.932955 3.19276,-0.329407 4.41347,-0.717903 5.42075,-1.725181 2.32809,-2.328087 -0.20991,-4.647664 -5.05912,-4.62373 -2.66595,0.01316 -5.79969,0.632611 -7.10322,1.404105 -1.62256,0.960319 -3.28314,2.779422 -3.75187,4.110033 -0.57863,1.642616 -0.51945,4.800093 0.13418,7.158797 0.2981,1.075748 1.1787,3.335546 1.95687,5.021766 2.0752,4.49674 2.57089,6.26531 2.72558,9.72459 0.11191,2.50286 0.0467,3.23583 -0.42668,4.79426 -1.10474,3.63713 -3.56904,6.36682 -7.40866,8.20654 l -1.94942,0.93405 -2.15162,-0.71018 c -2.51451,-0.82997 -5.5862,-0.94908 -7.76777,-0.30122 -0.74062,0.21994 -2.42431,1.10757 -3.74154,1.9725 -4.105278,2.69567 -9.983565,5.56511 -11.400599,5.56511 -1.870515,0 -3.024841,-1.78327 -2.291085,-3.53939 0.356105,-0.85228 0.766313,-1.11898 4.444801,-2.88983 2.22887,-1.073 4.851035,-2.50185 5.827034,-3.17524 4.214519,-2.90778 6.912949,-3.74521 11.454619,-3.55483 1.75736,0.0737 3.41292,0.29935 4.17877,0.56965 1.22239,0.43143 1.29909,0.42856 2.11667,-0.0793 2.56581,-1.59374 3.92042,-4.01399 3.92042,-7.00453 0,-2.47523 -0.37385,-3.99164 -1.67271,-6.78488 -2.72165,-5.85302 -3.64362,-9.107162 -3.6465,-12.87057 -0.004,-5.735064 2.78416,-9.901326 8.01899,-11.980821 3.43753,-1.365533 5.09784,-1.705577 8.38332,-1.716969 2.4095,-0.0084 3.42814,0.109831 4.89479,0.567907 2.37758,0.742587 4.15426,1.879908 5.04913,3.232141 l 0.70973,1.072477 h 4.03785 c 5.85478,0 12.79719,0.787966 15.41049,1.749098 1.9442,0.715047 2.48426,2.629834 1.15981,4.112148 -0.93394,1.045252 -1.43982,1.067438 -5.8618,0.257064 -2.44337,-0.447771 -4.73535,-0.64455 -8.77422,-0.753312 l -5.46693,-0.147217 -0.66177,1.293713 c -0.82315,1.609185 -2.28481,3.020292 -4.03042,3.891036 -1.42119,0.70891 -4.7634,1.503719 -6.32321,1.503719 -0.57598,0 -0.93531,0.12747 -0.9323,0.330729 0.003,0.181901 0.77309,1.629484 1.712,3.216847 2.66596,4.50722 3.61547,7.98791 3.61547,13.25346 0,8.31599 -3.29591,15.40636 -10.27572,22.10574 -1.43548,1.37781 -3.62656,3.15892 -4.86906,3.95802 -1.8939,1.21804 -2.47826,1.77369 -3.61489,3.43729 -3.68057,5.38696 -10.13786,12.46475 -14.48624,15.87824 -2.03512,1.59757 -2.18428,1.79156 -3.8717,5.03536 l -1.755034,3.37378 -1.083718,6.02988 c -0.596045,3.31644 -1.056436,6.04891 -1.023091,6.07217 0.03334,0.0233 3.126773,0.4111 6.874283,0.86187 3.86154,0.46448 7.027,0.96918 7.30606,1.16487 0.27081,0.1899 2.58227,2.21818 5.13657,4.50728 4.96533,4.4498 5.34091,4.97859 4.6761,6.58358 -0.37791,0.91235 -1.46297,1.55755 -2.6194,1.55755 -0.64724,0 -1.43036,-0.55027 -3.9759,-2.79371 -1.74345,-1.53654 -3.23916,-2.90576 -3.3238,-3.04271 -0.3208,-0.51906 -0.66877,-0.20034 -1.43201,1.31162 -1.3834,2.74049 -3.22571,3.47003 -4.79642,1.89932 -1.04195,-1.04196 -1.03413,-2.2937 0.0261,-4.17226 0.56748,-1.00552 0.70184,-1.44755 0.46302,-1.52332 -0.31999,-0.10153 -7.293414,-0.92775 -8.654356,-1.02538 -0.58382,-0.0419 -0.675107,0.10134 -0.962362,1.50992 -0.296151,1.45219 -0.204424,2.28107 1.372607,12.40319 0.929481,5.96585 1.689966,10.9508 1.689966,11.07766 0,0.12687 2.141247,0.23066 4.758325,0.23066 h 4.75833 l 0.85805,0.76668 c 0.71008,0.63445 0.85806,0.95853 0.85806,1.87916 0,0.92063 -0.14798,1.2447 -0.85806,1.87916 l -0.85805,0.76667 -9.1901,-0.0168 c -5.054553,-0.009 -9.445247,-0.11974 -9.757098,-0.24558 z M 90.137691,174.625 c 0.474607,-2.69214 0.924897,-5.14899 1.000644,-5.45967 0.110621,-0.45372 -0.148147,-0.76177 -1.314958,-1.56538 -0.798975,-0.55028 -1.490417,-0.95093 -1.536537,-0.89033 -0.352712,0.46341 -5.177288,12.00271 -5.065194,12.1148 0.188859,0.18886 4.564765,0.78313 5.40272,0.73372 0.632461,-0.0373 0.674211,-0.17339 1.513325,-4.93314 z M 78.845836,139.24856 c -0.738212,-0.26986 -1.55918,-1.19855 -1.724365,-1.95063 -0.214046,-0.97455 0.490262,-2.45999 1.35269,-2.85293 2.394382,-1.09096 4.600968,1.11563 3.510015,3.51001 -0.461378,1.01262 -2.080849,1.68012 -3.13834,1.29355 z"
       id="path1" /></g></svg>
