<?xml version="1.0" encoding="UTF-8" standalone="no"?>
<!-- Created with Inkscape (http://www.inkscape.org/) -->

<svg
   width="135.46666mm"
   height="135.46666mm"
   viewBox="0 0 135.46666 135.46666"
   version="1.1"
   id="svg1"
   xml:space="preserve"
   inkscape:version="1.4 (86a8ad7, 2024-10-11)"
   sodipodi:docname="hirondelle_violet.svg"
   xmlns:inkscape="http://www.inkscape.org/namespaces/inkscape"
   xmlns:sodipodi="http://sodipodi.sourceforge.net/DTD/sodipodi-0.dtd"
   xmlns="http://www.w3.org/2000/svg"
   xmlns:svg="http://www.w3.org/2000/svg"><sodipodi:namedview
     id="namedview1"
     pagecolor="#ffffff"
     bordercolor="#000000"
     borderopacity="0.25"
     inkscape:showpageshadow="2"
     inkscape:pageopacity="0.0"
     inkscape:pagecheckerboard="0"
     inkscape:deskcolor="#d1d1d1"
     inkscape:document-units="mm"
     inkscape:zoom="1.0405163"
     inkscape:cx="80.248625"
     inkscape:cy="57.183152"
     inkscape:window-width="3840"
     inkscape:window-height="2054"
     inkscape:window-x="3829"
     inkscape:window-y="-11"
     inkscape:window-maximized="1"
     inkscape:current-layer="layer1" /><defs
     id="defs1" /><g
     inkscape:label="Calque 1"
     inkscape:groupmode="layer"
     id="layer1"
     transform="translate(-83.608337,-133.35001)"><path
       style="fill:#9f5cc0;fill-opacity:1"
       d="m 85.042462,268.2642 c -0.736962,-0.81433 -0.878981,-2.78537 -1.069098,-14.83767 -0.173023,-10.96868 0.02592,-16.7875 0.848824,-24.82653 0.525544,-5.13412 1.887481,-14.58532 2.370774,-16.45205 3.045923,-11.76495 10.364493,-22.45124 20.029438,-29.24621 1.12779,-0.79289 2.05052,-1.56216 2.05052,-1.70948 0,-0.14732 -0.24083,-0.60608 -0.53518,-1.01945 -1.63166,-2.29145 -3.16899,-7.08113 -3.16899,-9.87325 0,-1.24968 -0.36905,-2.71539 -1.70479,-6.77069 -2.17611,-6.60664 -3.05771,-9.67007 -3.05771,-10.62512 0,-0.4659 0.29877,-1.09433 0.77212,-1.62405 0.67349,-0.7537 0.92433,-0.8583 1.96386,-0.81892 0.68386,0.0259 4.04765,0.99836 7.89299,2.28182 5.33082,1.77927 7.15656,2.27503 8.92772,2.42424 3.88768,0.32751 7.52974,1.56485 10.45233,3.55102 l 0.77255,0.52503 1.30253,-1.89076 c 7.70984,-11.1917 19.85847,-18.98924 33.04333,-21.20871 9.53857,-1.60567 19.09841,-2.46692 29.99028,-2.70182 7.97143,-0.17192 19.64629,0.23149 21.22867,0.73354 1.16327,0.36907 1.92237,1.40146 1.92237,2.61445 0,1.81286 -0.52606,2.15211 -6.14697,3.96407 -17.89965,5.77014 -32.8989,14.39496 -46.86183,26.94634 -4.17412,3.75214 -12.34328,12.42095 -12.34328,13.09823 0,0.0882 0.91094,1.32493 2.02432,2.74827 2.3497,3.00384 7.09966,10.12978 8.82359,13.23723 l 1.19063,2.14615 1.71979,0.31929 c 8.15223,1.51351 17.48271,6.43527 22.68802,11.96778 1.21391,1.29022 1.38906,1.61439 1.38906,2.5709 0,0.84942 -0.16811,1.26264 -0.75073,1.84526 -0.92606,0.92605 -1.43503,0.9962 -8.50968,1.17283 -7.17574,0.17916 -13.14818,0.86244 -13.72073,1.56973 -0.7099,0.87695 -1.32007,6.77854 -1.5743,15.22667 l -0.18524,6.15548 -0.863,0.77109 c -0.66297,0.59237 -1.12058,0.77109 -1.97431,0.77109 -1.03028,0 -1.2484,-0.13987 -2.99147,-1.91823 -5.05923,-5.16166 -9.0822,-12.40668 -10.83506,-19.51302 -0.3769,-1.52797 -0.76998,-3.1203 -0.87352,-3.53851 -0.15512,-0.62656 -0.81684,-1.13913 -3.75979,-2.91233 -4.38271,-2.64069 -8.59568,-5.49837 -11.84584,-8.0351 -1.35174,-1.05502 -2.52785,-1.91822 -2.61356,-1.91822 -0.59514,0 -10.77292,9.78358 -14.31268,13.75833 -4.44965,4.99645 -10.9811,14.11793 -14.48107,20.22349 -4.875721,8.50551 -9.398214,19.09515 -11.784921,27.59497 -0.433514,1.54388 -0.98536,3.02491 -1.226324,3.29117 -0.665475,0.73535 -3.528338,0.68891 -4.213643,-0.0684 z m 7.575459,-25.0138 c 7.703519,-16.02959 19.166619,-30.89884 32.662289,-42.36757 l 1.32292,-1.12422 -2.38125,-2.1531 c -2.75989,-2.49547 -7.67716,-7.51301 -9.85527,-10.05623 l -1.50741,-1.7601 -2.38305,1.62781 c -7.95265,5.43228 -14.716455,14.86181 -17.45563,24.33518 -1.826927,6.31838 -3.412203,20.17148 -3.714352,32.45825 l -0.152902,6.2177 0.579779,-1.19062 c 0.318879,-0.65484 1.617073,-3.34904 2.884876,-5.9871 z m 69.313719,-19.14832 c 0.15888,-1.52796 0.34922,-3.02555 0.42298,-3.32797 0.12135,-0.49762 -0.0498,-0.58269 -1.80141,-0.89552 -1.06453,-0.19011 -2.58753,-0.56065 -3.38445,-0.82342 -0.79692,-0.26277 -1.48957,-0.43714 -1.53922,-0.38748 -0.0497,0.0497 0.2708,1.16803 0.71212,2.48529 0.88763,2.64939 2.47484,5.98011 3.95535,8.3002 l 0.96653,1.51463 0.18961,-2.0438 c 0.10428,-1.12409 0.3196,-3.29396 0.47849,-4.82193 z m 2.51893,-9.90984 c 1.21826,-1.21827 0.62482,-4.00461 -1.99029,-9.34477 -6.78888,-13.86321 -21.50856,-31.97991 -32.23421,-39.67327 -4.67079,-3.35029 -8.7478,-4.89172 -11.45191,-4.32973 -2.92773,0.60847 -5.84802,3.05424 -7.16357,5.99957 -1.98835,4.45162 1.17114,10.92057 9.79007,20.0448 9.80325,10.37799 25.25635,21.82776 35.30882,26.16162 4.43461,1.91187 6.64498,2.23789 7.74109,1.14178 z m 9.64526,-2.50785 c 1.23693,-0.14101 3.35784,-0.33769 4.71314,-0.43707 l 2.46418,-0.1807 -1.14126,-0.77348 c -1.91257,-1.29623 -6.19743,-3.36448 -8.72389,-4.21092 -1.31544,-0.44071 -2.43078,-0.76221 -2.47855,-0.71445 -0.0478,0.0478 0.13669,0.74042 0.40989,1.53923 0.27321,0.79881 0.63899,2.32125 0.81286,3.38321 0.30813,1.88195 0.33358,1.92728 1.0054,1.7907 0.3791,-0.0771 1.70131,-0.25551 2.93823,-0.39652 z m -22.22501,-37.52241 c 4.47036,-5.38046 13.73674,-13.96781 20.49299,-18.9913 8.16917,-6.07405 14.73399,-9.86648 27.13202,-15.67389 l 1.19063,-0.55771 -2.64584,-0.0117 c -12.17793,-0.0536 -30.75964,2.04445 -37.65279,4.25145 -8.9803,2.87526 -17.58306,9.48424 -23.29599,17.8969 l -1.06004,1.56098 1.23879,1.03155 c 2.75906,2.29751 7.47586,6.85056 9.95874,9.61301 1.449,1.61215 2.70277,2.93118 2.78617,2.93118 0.0834,0 0.91829,-0.92273 1.85532,-2.05052 z m -41.80799,-14.48197 c 0.49154,-0.50714 0.84232,-0.96615 0.7795,-1.02001 -0.20148,-0.17276 -2.7145,-0.96976 -2.79716,-0.88711 -0.13114,0.13114 0.78605,2.8292 0.96177,2.8292 0.0892,0 0.56435,-0.41494 1.05589,-0.92208 z"
       id="path1" /></g></svg>
