<?xml version="1.0" encoding="UTF-8" standalone="no"?>
<!-- Created with Inkscape (http://www.inkscape.org/) -->

<svg
   width="135.46666mm"
   height="135.46666mm"
   viewBox="0 0 135.46666 135.46666"
   version="1.1"
   id="svg1"
   xml:space="preserve"
   inkscape:version="1.4 (86a8ad7, 2024-10-11)"
   sodipodi:docname="lieux_historiques_violet.svg"
   xmlns:inkscape="http://www.inkscape.org/namespaces/inkscape"
   xmlns:sodipodi="http://sodipodi.sourceforge.net/DTD/sodipodi-0.dtd"
   xmlns="http://www.w3.org/2000/svg"
   xmlns:svg="http://www.w3.org/2000/svg"><sodipodi:namedview
     id="namedview1"
     pagecolor="#ffffff"
     bordercolor="#000000"
     borderopacity="0.25"
     inkscape:showpageshadow="2"
     inkscape:pageopacity="0.0"
     inkscape:pagecheckerboard="0"
     inkscape:deskcolor="#d1d1d1"
     inkscape:document-units="mm"
     inkscape:zoom="1.0405163"
     inkscape:cx="261.88922"
     inkscape:cy="294.56531"
     inkscape:window-width="3840"
     inkscape:window-height="2054"
     inkscape:window-x="3829"
     inkscape:window-y="-11"
     inkscape:window-maximized="1"
     inkscape:current-layer="layer1" /><defs
     id="defs1" /><g
     inkscape:label="Calque 1"
     inkscape:groupmode="layer"
     id="layer1"
     transform="translate(-35.539871,-70.395119)"><path
       style="fill:#9f5cc0;fill-opacity:1"
       d="m 41.748592,202.59502 c -1.071566,-0.48563 -2.495996,-1.9398 -2.939227,-3.0006 -0.272034,-0.65107 -0.357669,-2.54505 -0.353266,-7.81321 0.0065,-7.8166 0.103436,-8.31464 1.929797,-9.9182 2.127537,-1.86801 5.20364,-1.83089 7.328076,0.0884 1.784057,1.61178 1.884368,2.18673 1.795142,10.289 l -0.07862,7.13907 -0.702754,1.01703 c -1.150784,1.66544 -2.458778,2.3947 -4.45662,2.48476 -1.054403,0.0475 -2.030372,-0.0632 -2.522529,-0.28626 z M 148.91155,202.4724 c -1.34121,-0.62761 -2.66547,-2.12345 -3.02453,-3.41641 -0.40221,-1.44836 -0.36592,-13.35212 0.0449,-14.72706 0.45044,-1.50755 2.15126,-3.14777 3.71931,-3.58679 2.60789,-0.73017 5.31925,0.41604 6.52414,2.75802 0.67486,1.31176 0.67594,1.32512 0.67594,8.33201 0,6.99527 -0.002,7.02199 -0.66146,8.19703 -0.99801,1.7787 -2.54714,2.74573 -4.5695,2.85249 -1.20175,0.0634 -1.93549,-0.0474 -2.70881,-0.40929 z M 55.38362,191.70576 v -5.68935 l 42.267185,0.067 42.267185,0.0669 0.0714,5.6224 0.0714,5.62239 H 97.722213 55.38362 Z m 0,-53.57731 V 95.795117 h 42.333331 42.333329 v 16.822173 16.82218 l -2.14458,2.55855 c -10.62789,12.67943 -18.43725,26.34521 -22.58809,39.52748 -1.10769,3.51779 -1.08324,4.30594 0.16618,5.35725 0.54805,0.46116 1.10995,0.66861 1.81099,0.66861 2.03139,0 2.00818,0.0351 4.23029,-6.40313 0.86527,-2.50699 1.79608,-4.86008 2.06847,-5.22908 0.36288,-0.49157 2.54017,-1.5327 8.14527,-3.89485 4.20751,-1.77317 7.79884,-3.23168 7.98074,-3.24115 0.25949,-0.0135 0.33073,2.31959 0.33073,10.83071 v 10.84792 H 97.716951 55.38362 Z m 21.178808,22.15044 c 1.230622,-0.96976 1.310774,-1.38298 1.310774,-6.75765 v -5.12696 l -0.899583,-0.89958 c -1.299106,-1.29911 -3.013012,-1.19439 -4.187762,0.25586 -0.378913,0.46778 -0.458145,1.1416 -0.463021,3.93778 l -0.0059,3.37344 h -1.455209 -1.455208 v -3.33375 -3.33375 l -0.899583,-0.89958 c -1.299107,-1.29911 -3.013012,-1.19439 -4.187763,0.25586 -0.399149,0.49276 -0.457883,1.24657 -0.46302,5.94251 l -0.0059,5.37817 0.773398,0.77339 0.773397,0.7734 5.378165,-0.008 c 3.816156,-0.006 5.496958,-0.10203 5.787182,-0.33073 z m 11.425737,-0.18106 c 1.118217,-0.87959 1.312873,-1.76886 1.217507,-5.56207 l -0.08768,-3.48745 -0.86407,-0.77139 c -1.19532,-1.06711 -2.633347,-1.06686 -3.828109,6.6e-4 l -0.86407,0.77204 v 4.01216 4.01216 l 0.86407,0.77204 c 1.053498,0.9413 2.551241,1.04719 3.562351,0.25185 z m 25.399995,0 c 1.0228,-0.80453 1.37869,-1.89679 0.99592,-3.05659 -0.46183,-1.39934 -1.56265,-1.97725 -3.76869,-1.97847 l -1.78594,-9.9e-4 -0.006,-3.37344 c -0.005,-2.79618 -0.0841,-3.47 -0.46302,-3.93778 -1.17475,-1.45025 -2.88866,-1.55497 -4.18777,-0.25586 l -0.89958,0.89958 v 5.07094 c 0,7.20444 -0.0517,7.13835 5.58672,7.14693 3.44936,0.005 3.93833,-0.0503 4.52824,-0.51432 z M 73.458826,137.8329 c 0.997358,-0.51006 1.491853,-1.35807 1.498077,-2.56907 0.0047,-0.91704 -0.148006,-1.29873 -0.767515,-1.91823 l -0.773397,-0.7734 h -4.009455 -4.009455 l -0.773397,0.7734 c -0.6208,0.6208 -0.771737,0.99928 -0.764983,1.91823 0.009,1.22161 0.265923,1.69605 1.307228,2.41374 0.536213,0.36957 1.290829,0.45088 4.184581,0.45088 2.078902,0 3.768004,-0.12151 4.108316,-0.29555 z m 14.237942,-0.1189 c 1.2067,-0.62401 1.553517,-1.77 1.553517,-5.1333 v -2.91892 h 3.055847 c 3.553084,0 4.442258,-0.31074 5.04979,-1.76477 0.510914,-1.22279 0.260589,-2.2834 -0.737056,-3.12287 -0.791605,-0.66609 -0.814442,-0.66861 -6.06179,-0.66861 h -5.267192 l -0.86407,0.77144 -0.86407,0.77145 -0.086,4.71866 c -0.09922,5.44413 0.09362,6.47342 1.357183,7.24387 1.024065,0.62441 1.801545,0.65239 2.863842,0.10305 z m 19.628722,0.1189 c 1.42921,-0.7309 1.49175,-1.01489 1.49808,-6.80241 l 0.006,-5.37816 -0.7734,-0.7734 c -1.33331,-1.33331 -3.62242,-0.96063 -4.4873,0.73056 -0.18729,0.36624 -0.29555,2.43532 -0.29555,5.64886 v 5.07093 l 0.89958,0.89959 c 0.96183,0.96182 2.04667,1.16966 3.15271,0.60403 z m 16.93333,0 c 1.33013,-0.68023 1.4918,-1.19801 1.49808,-4.79768 l 0.006,-3.37344 h 1.73293 c 2.13801,0 3.19953,-0.50266 3.72688,-1.76477 0.51091,-1.22279 0.26059,-2.2834 -0.73706,-3.12287 -0.77167,-0.64931 -0.90663,-0.66844 -4.6769,-0.66272 -5.65613,0.009 -5.6021,-0.0604 -5.6021,7.14693 v 5.07093 l 0.89959,0.89959 c 0.96182,0.96182 2.04666,1.16966 3.1527,0.60403 z m -47.285201,-9.0707 c 1.299106,-1.29911 1.194391,-3.01301 -0.255863,-4.18776 -0.492757,-0.39915 -1.246573,-0.45789 -5.94251,-0.46302 l -5.378165,-0.006 -0.773397,0.7734 c -0.6208,0.6208 -0.771737,0.99928 -0.764983,1.91823 0.009,1.22161 0.265923,1.69605 1.307228,2.41374 0.561159,0.38677 1.383235,0.45088 5.781145,0.45088 h 5.126962 z m -0.829283,-13.49937 c 0.930705,-0.38887 1.728866,-1.55891 1.728866,-2.53438 0,-0.97547 -0.798161,-2.14551 -1.728866,-2.53438 -0.593257,-0.24788 -1.89475,-0.37604 -3.818885,-0.37604 h -2.918915 v -3.05584 c 0,-3.55309 -0.310743,-4.44226 -1.764773,-5.04979 -1.222789,-0.51092 -2.283403,-0.26059 -3.122866,0.73705 -0.665797,0.79126 -0.668611,0.81663 -0.668611,6.03029 0,4.94779 0.03111,5.27523 0.565711,5.95486 0.31114,0.39556 0.817156,0.82078 1.124479,0.94496 0.995594,0.40226 9.588116,0.30768 10.60386,-0.11673 z m 14.16136,-0.0193 c 1.519678,-0.78585 1.590422,-1.08775 1.590422,-6.78695 0,-5.18885 -0.003,-5.2161 -0.66861,-6.0071 -0.839463,-0.99764 -1.900077,-1.24797 -3.122867,-0.73705 -1.586706,0.66296 -1.764772,1.34735 -1.764772,6.78272 0,5.36205 0.185028,6.1103 1.670768,6.75649 1.085247,0.472 1.368563,0.471 2.295059,-0.008 z m 14.176904,-0.0281 c 0.58388,-0.27707 1.04989,-0.78026 1.34767,-1.45521 l 0.45518,-1.03169 h 1.82763 c 1.72569,0 1.87779,-0.0502 2.7272,-0.89958 l 0.89959,-0.89959 v -3.61147 c 0,-4.15406 -0.25884,-4.97619 -1.76478,-5.60541 -1.1615,-0.48531 -2.20428,-0.27922 -3.03064,0.59895 -0.51518,0.54748 -0.6524,1.03414 -0.76083,2.69826 l -0.13229,2.0303 -3.52957,0.13229 c -3.468277,0.12999 -3.540647,0.14518 -4.167191,0.87465 -1.287346,1.49882 -0.557345,4.09505 1.281178,4.55649 0.411333,0.10324 0.800663,0.52281 1.086683,1.17109 0.27625,0.62612 0.77044,1.17031 1.2998,1.4313 1.07682,0.53089 1.35953,0.532 2.46037,0.01 z m 25.38694,0.006 c 0.80814,-0.38349 1.71408,-1.70116 1.71408,-2.4931 0,-0.79194 -0.90594,-2.10961 -1.71408,-2.4931 -1.17602,-0.55805 -6.62942,-0.58643 -7.93414,-0.0413 -0.93071,0.38887 -1.72887,1.55891 -1.72887,2.53438 0,0.9478 0.7893,2.13978 1.67077,2.52316 1.24404,0.54107 6.83297,0.52005 7.99224,-0.0301 z m 0,-8.46667 c 0.80814,-0.38349 1.71408,-1.70116 1.71408,-2.4931 0,-0.79193 -0.90594,-2.10961 -1.71408,-2.49309 -1.27505,-0.60505 -9.5843,-0.60505 -10.85935,0 -0.80813,0.38348 -1.71407,1.70116 -1.71407,2.49309 0,0.76538 0.90076,2.10302 1.67242,2.48357 1.22649,0.60485 9.63097,0.6122 10.901,0.01 z m -3.31301,52.6383 c 0,-0.0612 0.4311,-0.97151 0.95801,-2.0229 6.96995,-13.90801 24.72018,-34.72881 37.25056,-43.69445 1.15442,-0.826 2.19413,-1.39635 2.31858,-1.2719 0.42636,0.42636 1.00325,3.89866 1.00784,6.06618 0.009,4.40636 -1.24881,7.50892 -3.74705,9.2402 -0.94333,0.65373 -1.01184,0.79091 -1.02564,2.0536 -0.0187,1.71449 -0.61854,3.18986 -2.16214,5.31829 -1.29335,1.78336 -4.38419,4.41567 -6.75774,5.75522 -1.19566,0.67478 -1.39881,0.89525 -1.25605,1.36311 0.39067,1.28034 0.4418,2.80821 0.12599,3.76512 -0.82654,2.50443 -4.86841,5.1022 -11.23423,7.22041 -1.74625,0.58106 -5.94321,2.24041 -9.32656,3.68744 -3.38336,1.44702 -6.15157,2.58088 -6.15157,2.51968 z M 42.055173,95.406416 c -1.339685,-0.47753 -2.701178,-1.81923 -3.21721,-3.170441 -0.34484,-0.902951 -0.399707,-2.256986 -0.334002,-8.242785 l 0.07862,-7.162352 0.723311,-1.035047 c 0.397821,-0.569276 1.163003,-1.332704 1.700406,-1.696506 0.831207,-0.562697 1.279166,-0.661458 3.000241,-0.661458 1.721076,0 2.169035,0.09876 3.000242,0.661458 0.537403,0.363802 1.302585,1.12723 1.700406,1.696506 l 0.72331,1.035047 0.07862,7.162352 c 0.08922,8.127984 -0.01032,8.699815 -1.795142,10.312291 -1.586975,1.433736 -3.617088,1.8287 -5.658799,1.100935 z m 107.258247,0.04064 c -1.26513,-0.402888 -2.98528,-2.193032 -3.38149,-3.519096 -0.41332,-1.383289 -0.447,-13.279092 -0.0417,-14.73855 0.15439,-0.556003 0.69708,-1.47178 1.20597,-2.035061 2.57784,-2.853357 7.19632,-2.308227 9.09369,1.073349 0.64596,1.151248 0.66352,1.327079 0.74902,7.502452 0.0573,4.141584 -0.0167,6.743527 -0.21447,7.540625 -0.84537,3.406553 -4.08874,5.234274 -7.41099,4.176281 z M 55.38362,84.551135 v -5.68935 h 42.338593 42.338597 l -0.0714,5.622395 -0.0714,5.622396 -42.267185,0.06695 -42.267185,0.06696 z"
       id="path1" /></g></svg>
