<?xml version="1.0" encoding="UTF-8" standalone="no"?>
<!-- Created with Inkscape (http://www.inkscape.org/) -->

<svg
   width="135.30757mm"
   height="132.61006mm"
   viewBox="0 0 135.30757 132.61006"
   version="1.1"
   id="svg1"
   xml:space="preserve"
   inkscape:version="1.4 (86a8ad7, 2024-10-11)"
   sodipodi:docname="lieux_de_memoire_violet.svg"
   xmlns:inkscape="http://www.inkscape.org/namespaces/inkscape"
   xmlns:sodipodi="http://sodipodi.sourceforge.net/DTD/sodipodi-0.dtd"
   xmlns="http://www.w3.org/2000/svg"
   xmlns:svg="http://www.w3.org/2000/svg"><sodipodi:namedview
     id="namedview1"
     pagecolor="#ffffff"
     bordercolor="#000000"
     borderopacity="0.25"
     inkscape:showpageshadow="2"
     inkscape:pageopacity="0.0"
     inkscape:pagecheckerboard="0"
     inkscape:deskcolor="#d1d1d1"
     inkscape:document-units="mm"
     inkscape:zoom="1.0405163"
     inkscape:cx="256.12286"
     inkscape:cy="250.35649"
     inkscape:window-width="3840"
     inkscape:window-height="2054"
     inkscape:window-x="3829"
     inkscape:window-y="-11"
     inkscape:window-maximized="1"
     inkscape:current-layer="layer1" /><defs
     id="defs1" /><g
     inkscape:label="Calque 1"
     inkscape:groupmode="layer"
     id="layer1"
     transform="translate(-37.121534,-82.102905)"><path
       style="display:inline;fill:#9f5cc0;fill-opacity:1"
       d="m 45.371257,209.09219 -5.561039,-5.62079 9.28185,-9.27909 9.281849,-9.27908 5.621473,5.62147 5.621473,5.62147 -9.342283,9.2784 -9.342284,9.2784 z m 103.770923,-3.72603 -9.2081,-9.21093 5.62099,-5.62099 5.621,-5.62099 9.21092,9.2081 c 5.06601,5.06446 9.21092,9.32889 9.21092,9.47653 0,0.3475 -10.63633,10.9792 -10.98398,10.9792 -0.145,0 -4.40729,-4.14491 -9.47175,-9.21092 z M 81.874182,194.77813 c -1.172066,-0.40803 -2.719878,-1.13776 -3.439583,-1.62163 -1.702627,-1.1447 -15.917228,-15.3593 -17.061929,-17.06193 -0.483868,-0.7197 -1.213603,-2.26752 -1.621632,-3.43958 -0.610965,-1.755 -0.741942,-2.57456 -0.742271,-4.64457 -6.44e-4,-4.05539 1.20583,-7.34126 3.710632,-10.10602 l 1.271399,-1.40336 4.250275,4.22799 4.250275,4.22799 32.479842,-32.42767 c 22.15848,-22.12288 33.40472,-33.165151 35.39027,-34.748409 8.54515,-6.813813 18.35696,-11.872497 28.80623,-14.851646 1.74304,-0.49695 3.20757,-0.86514 3.25451,-0.818199 0.11855,0.118553 -1.31573,5.129501 -2.24611,7.847242 -2.86347,8.364458 -7.58209,16.871662 -13.42803,24.209372 -1.5875,1.99261 -12.54532,13.15288 -34.74781,35.38977 l -32.429091,32.47935 4.228484,4.25077 4.228484,4.25077 -1.455208,1.31895 c -2.735455,2.47932 -5.986324,3.66373 -10.054167,3.66308 -2.070017,-3.3e-4 -2.889569,-0.1313 -4.64457,-0.74227 z m 36.452748,0.10154 c -2.05926,-0.66682 -4.75727,-2.27699 -6.01494,-3.58972 l -0.77009,-0.80379 4.22039,-4.22659 4.22039,-4.22658 -4.75793,-4.76345 -4.75794,-4.76345 8.53006,-8.53006 8.53005,-8.53005 4.76345,4.75794 4.76345,4.75793 4.22659,-4.22039 4.22658,-4.22039 0.82109,0.78374 c 1.37228,1.30984 2.87276,3.84534 3.5643,6.02291 1.32064,4.1585 0.71086,8.87589 -1.6254,12.57464 -1.18249,1.87211 -15.2728,16.00308 -17.29823,17.34815 -3.41663,2.26895 -8.60227,2.93723 -12.64182,1.62916 z M 68.497395,130.50573 C 60.498304,122.46941 54.19874,115.90957 52.807609,114.16771 46.647672,106.45473 41.905624,97.723953 38.939967,88.635421 c -0.97507,-2.98819 -1.924012,-6.412477 -1.808926,-6.527563 0.107169,-0.107169 5.865694,1.551636 8.245005,2.375062 6.15906,2.131511 13.054745,5.629328 18.653124,9.461744 5.054979,3.460427 8.342573,6.449746 21.563541,19.607156 l 13.493749,13.42887 -8.465116,8.47632 c -4.655813,4.66198 -8.531139,8.47633 -8.611835,8.47633 -0.08069,0 -6.161146,-6.04243 -13.512114,-13.42761 z"
       id="path1" /></g></svg>
