<?xml version="1.0" encoding="UTF-8" standalone="no"?>
<!-- Created with Inkscape (http://www.inkscape.org/) -->

<svg
   width="135.46666mm"
   height="135.46666mm"
   viewBox="0 0 135.46666 135.46666"
   version="1.1"
   id="svg1"
   xml:space="preserve"
   inkscape:version="1.4 (86a8ad7, 2024-10-11)"
   sodipodi:docname="musees_violet.svg"
   xmlns:inkscape="http://www.inkscape.org/namespaces/inkscape"
   xmlns:sodipodi="http://sodipodi.sourceforge.net/DTD/sodipodi-0.dtd"
   xmlns:xlink="http://www.w3.org/1999/xlink"
   xmlns="http://www.w3.org/2000/svg"
   xmlns:svg="http://www.w3.org/2000/svg"><sodipodi:namedview
     id="namedview1"
     pagecolor="#ffffff"
     bordercolor="#000000"
     borderopacity="0.25"
     inkscape:showpageshadow="2"
     inkscape:pageopacity="0.0"
     inkscape:pagecheckerboard="0"
     inkscape:deskcolor="#d1d1d1"
     inkscape:document-units="mm"
     inkscape:zoom="1.0405163"
     inkscape:cx="256.12286"
     inkscape:cy="256.12286"
     inkscape:window-width="3840"
     inkscape:window-height="2054"
     inkscape:window-x="3829"
     inkscape:window-y="-11"
     inkscape:window-maximized="1"
     inkscape:current-layer="layer1" /><defs
     id="defs1" /><g
     inkscape:label="Calque 1"
     inkscape:groupmode="layer"
     id="layer1"
     transform="translate(-37.041672,-101.07084)"><image
       width="135.46666"
       height="135.46666"
       preserveAspectRatio="none"
       xlink:href="musees.png"
       id="image1"
       x="37.041672"
       y="101.07084" /><path
       style="fill:#9f5cc0;fill-opacity:1"
       d="m 51.952793,236.27514 c -1.274477,-0.51431 -1.417372,-1.12186 -1.417372,-6.02625 0,-4.47896 0.01439,-4.59775 0.631897,-5.21526 0.347543,-0.34754 1.032153,-0.70479 1.521354,-0.79388 0.489202,-0.0891 8.688051,-0.12675 18.219665,-0.0837 18.952925,0.0856 18.218774,0.0218 18.78069,1.63369 0.14812,0.42489 0.269309,2.54662 0.269309,4.71494 0,4.31485 -0.212485,5.15385 -1.447816,5.7167 -0.828975,0.37771 -35.628173,0.42886 -36.557727,0.0537 z m 68.990917,-0.10389 c -1.16755,-0.65262 -1.33265,-1.34289 -1.34267,-5.61354 -0.005,-2.19748 0.11182,-4.34306 0.25994,-4.76795 0.56191,-1.61192 -0.17224,-1.54805 18.78069,-1.63369 9.53161,-0.0431 17.73046,-0.005 18.21966,0.0837 0.4892,0.0891 1.17381,0.44634 1.52136,0.79388 0.61796,0.61797 0.63189,0.73391 0.63189,5.25938 0,4.51005 -0.0162,4.64632 -0.63846,5.36984 l -0.63846,0.74236 -18.08081,0.0597 c -14.67835,0.0485 -18.1998,-0.007 -18.71314,-0.29371 z M 58.605212,222.83048 c -0.868051,-0.30119 -1.360293,-0.6791 -1.681166,-1.29069 -0.223287,-0.42559 -0.303209,-9.47978 -0.303209,-34.35004 v -33.77212 l 0.773398,-0.7734 0.773397,-0.77339 h 4.614481 c 4.576288,0 4.619987,0.006 5.279698,0.66521 0.365869,0.36587 0.739292,1.0356 0.829829,1.48828 0.296801,1.48401 0.186622,65.88683 -0.114573,66.9714 -0.469138,1.68931 -1.09925,1.90824 -5.661467,1.96704 -2.189672,0.0282 -4.219346,-0.0313 -4.510388,-0.13229 z m 14.948958,0.0407 c -1.033527,-0.34049 -1.576184,-0.74907 -1.838419,-1.3842 -0.200865,-0.48648 -0.265031,-10.74531 -0.215886,-34.51568 l 0.06993,-33.82346 0.742358,-0.63852 c 0.721703,-0.62076 0.867356,-0.63852 5.23483,-0.63852 5.084838,0 5.593657,0.15236 6.054952,1.81314 0.174359,0.62773 0.268405,12.47728 0.269098,33.9056 9.96e-4,30.83265 -0.02854,32.99989 -0.461546,33.86667 -0.315116,0.63079 -0.757858,1.02673 -1.388651,1.24184 -0.90225,0.30768 -7.640049,0.44546 -8.466666,0.17313 z m 21.034374,-0.0523 c -0.851707,-0.27694 -1.357105,-0.66148 -1.681167,-1.27915 -0.215732,-0.41119 -0.303208,-4.26625 -0.303208,-13.3623 0,-11.75578 0.04025,-12.92268 0.500272,-14.50333 2.628277,-9.03084 13.252209,-12.30247 20.455619,-6.29929 1.63945,1.36628 3.25348,3.82399 3.91249,5.9576 0.50205,1.62546 0.53162,2.44854 0.53162,14.7995 0,14.58512 0.0575,14.12122 -1.81314,14.64079 -1.0583,0.29396 -20.711277,0.33596 -21.602486,0.0462 z m 32.732286,-0.16189 c -1.73522,-0.7777 -1.6439,1.17553 -1.64227,-35.12511 9.6e-4,-21.38812 0.0952,-33.22031 0.26951,-33.84796 0.46129,-1.66078 0.97011,-1.81314 6.05495,-1.81314 4.36747,0 4.51313,0.0178 5.23483,0.63852 l 0.74236,0.63852 0.0699,33.82346 c 0.0476,23.04147 -0.0181,34.03664 -0.20618,34.49224 -0.52648,1.27525 -1.1334,1.44083 -5.55229,1.51472 -3.15966,0.0528 -4.3007,-0.0209 -4.97084,-0.32125 z m 15.09253,0.10265 c -0.47219,-0.14274 -1.0675,-0.57844 -1.32292,-0.96822 -0.43542,-0.66446 -0.46928,-2.75695 -0.54256,-33.52873 -0.043,-18.05102 -0.007,-33.31554 0.0789,-33.92115 0.0968,-0.67875 0.4197,-1.36378 0.84185,-1.78593 0.68396,-0.68397 0.69064,-0.68483 5.2642,-0.68483 4.45934,0 4.59884,0.0167 5.32174,0.63852 l 0.74235,0.63852 0.0699,33.82346 c 0.0476,23.04147 -0.0181,34.03664 -0.20617,34.49224 -0.52425,1.26985 -1.14003,1.44029 -5.42001,1.50015 -2.18281,0.0305 -4.35508,-0.0613 -4.82726,-0.20403 z m -49.035794,-44.67476 -0.773397,-0.7734 v -6.31476 c 0,-6.99407 0.188076,-8.25822 1.631549,-10.96645 4.601054,-8.63246 17.253902,-8.73068 22.130682,-0.17179 1.42269,2.49686 1.63777,3.94862 1.63777,11.05469 v 6.39831 l -0.7734,0.7734 -0.7734,0.77339 h -11.1532 -11.153206 z m -42.19332,-29.56003 c -0.638388,-0.68883 -0.64869,-0.77502 -0.64041,-5.35781 0.0088,-4.86728 0.07738,-5.19073 1.230962,-5.80513 0.423073,-0.22533 5.399227,-0.3078 18.572224,-0.3078 h 17.994305 l 0.742359,0.63855 0.742358,0.63855 v 4.76409 c 0,4.67789 -0.01161,4.77645 -0.641433,5.44687 L 88.543178,149.225 H 70.188124 51.833071 Z m 69.181144,0.0173 c -0.62982,-0.67042 -0.64143,-0.76898 -0.64143,-5.44687 v -4.76409 l 0.74236,-0.63855 0.74236,-0.63855 h 17.9943 c 13.173,0 18.14915,0.0825 18.57223,0.3078 1.15358,0.6144 1.22216,0.93785 1.23096,5.80513 0.008,4.58279 -0.002,4.66898 -0.64041,5.35781 l -0.64883,0.70009 H 139.36188 121.00683 Z M 51.184853,133.22974 c -0.934136,-0.93414 -0.898588,-2.46209 0.07817,-3.36007 1.011389,-0.92981 53.327295,-28.79883 54.061355,-28.79883 0.71842,0 51.92575,27.84358 52.9626,28.79799 0.97671,0.89906 1.01224,2.42683 0.0782,3.36091 l -0.64943,0.64943 H 104.775 51.834285 Z"
       id="path1" /></g></svg>
