<?xml version="1.0" encoding="UTF-8" standalone="no"?>
<!-- Created with Inkscape (http://www.inkscape.org/) -->

<svg
   width="135.46666mm"
   height="135.46666mm"
   viewBox="0 0 135.46666 135.46666"
   version="1.1"
   id="svg1"
   xml:space="preserve"
   inkscape:version="1.4 (86a8ad7, 2024-10-11)"
   sodipodi:docname="patrimoine_religieux_violet.svg"
   xmlns:inkscape="http://www.inkscape.org/namespaces/inkscape"
   xmlns:sodipodi="http://sodipodi.sourceforge.net/DTD/sodipodi-0.dtd"
   xmlns:xlink="http://www.w3.org/1999/xlink"
   xmlns="http://www.w3.org/2000/svg"
   xmlns:svg="http://www.w3.org/2000/svg"><sodipodi:namedview
     id="namedview1"
     pagecolor="#ffffff"
     bordercolor="#000000"
     borderopacity="0.25"
     inkscape:showpageshadow="2"
     inkscape:pageopacity="0.0"
     inkscape:pagecheckerboard="0"
     inkscape:deskcolor="#d1d1d1"
     inkscape:document-units="mm"
     inkscape:zoom="1.0405163"
     inkscape:cx="256.12286"
     inkscape:cy="256.12286"
     inkscape:window-width="3840"
     inkscape:window-height="2054"
     inkscape:window-x="3829"
     inkscape:window-y="-11"
     inkscape:window-maximized="1"
     inkscape:current-layer="layer1" /><defs
     id="defs1" /><g
     inkscape:label="Calque 1"
     inkscape:groupmode="layer"
     id="layer1"
     transform="translate(-37.041672,-80.697922)"><image
       width="135.46666"
       height="135.46666"
       preserveAspectRatio="none"
       xlink:href="patrimoine_religieux.png"
       id="image1"
       x="37.041672"
       y="80.697922"
       style="fill:#9f5cc0;fill-opacity:1" /><path
       style="fill:#9f5cc0;fill-opacity:1"
       d="m 38.761463,215.91578 c -0.291041,-0.11985 -0.767291,-0.48255 -1.058333,-0.80599 -0.518171,-0.57586 -0.530642,-1.01211 -0.600163,-20.99365 -0.04203,-12.08057 0.02926,-20.69316 0.174751,-21.11051 0.444566,-1.27528 17.717813,-24.04394 18.452695,-24.32334 0.428594,-0.16295 12.358019,-0.23191 32.52764,-0.18803 l 31.850827,0.0693 0.73358,0.73362 0.73358,0.73362 v 32.26714 32.26713 l -0.73359,0.73362 -0.7336,0.73362 -40.409108,0.0507 c -22.225012,0.0279 -40.647237,-0.0474 -40.938279,-0.16721 z M 69.951575,204.0846 c 0.386594,-0.38659 0.77038,-0.97177 0.852858,-1.30039 0.08248,-0.32862 0.109832,-3.1377 0.06079,-6.24241 l -0.08917,-5.64493 -0.95801,-1.98437 c -4.236836,-8.77598 -16.244592,-8.77598 -20.44404,0 l -0.822949,1.71979 -0.08348,6.28687 -0.08348,6.28687 0.790733,0.79074 0.790733,0.79073 h 9.641564 9.641565 z m 39.606275,-0.0705 0.7734,-0.7734 v -5.79316 c 0,-6.6571 -0.17093,-7.56054 -1.92386,-10.16858 -1.28503,-1.91187 -3.12798,-3.40891 -5.21989,-4.24012 -1.14108,-0.4534 -2.02635,-0.5815 -4.10104,-0.59342 -2.513747,-0.0145 -2.744898,0.0326 -4.630208,0.9428 -1.186481,0.5728 -2.50345,1.47708 -3.275323,2.24896 -0.771873,0.77187 -1.676153,2.08884 -2.248958,3.27532 l -0.95801,1.98437 -0.08917,5.64493 c -0.04905,3.10471 -0.01447,5.94259 0.07685,6.3064 0.09131,0.36382 0.476248,0.94899 0.855414,1.30039 l 0.689392,0.63891 h 9.639009 9.639012 z m 19.11203,11.63409 c -0.5669,-0.34566 -0.93529,-0.84442 -1.123,-1.52037 -0.18958,-0.6827 -0.27982,-12.29243 -0.28082,-36.12938 l -0.001,-35.12344 h -1.4637 c -2.5472,0 -4.09255,-1.12923 -4.09255,-2.99053 0,-0.35225 5.01208,-9.41011 11.24381,-20.31991 l 11.24381,-19.684348 9.8e-4,-3.902604 9.9e-4,-3.902604 -1.46371,0 c -1.87628,0 -3.15376,-0.539572 -3.6781,-1.553517 -0.52349,-1.01232 -0.52349,-1.701478 0,-2.713798 0.52434,-1.013945 1.80182,-1.553518 3.6781,-1.553518 l 1.46371,0 v -1.463706 c 0,-1.876276 0.53957,-3.153764 1.55351,-3.678095 1.06183,-0.549094 1.83974,-0.521386 2.86202,0.101944 0.95651,0.583223 1.40147,1.782342 1.40382,3.783087 l 0.001,1.25677 1.46371,0 c 1.87627,0 3.15376,0.539573 3.67809,1.553518 0.52349,1.01232 0.52349,1.701478 0,2.713798 -0.52433,1.013945 -1.80182,1.553517 -3.67809,1.553517 h -1.46371 l 9.8e-4,3.902604 9.8e-4,3.902604 11.24381,19.684348 c 6.23173,10.9098 11.24381,19.96766 11.24381,20.31991 0,1.8613 -1.54535,2.99053 -4.09254,2.99053 h -1.46371 l -0.001,35.12344 c -0.001,23.83695 -0.0912,35.44668 -0.28082,36.12938 -0.18771,0.67595 -0.55611,1.17471 -1.12301,1.52037 -0.81326,0.49588 -1.47752,0.51441 -18.43845,0.51441 -16.96092,0 -17.62518,-0.0185 -18.43845,-0.51441 z m 22.0884,-45.48688 c 1.72826,-0.89168 3.1345,-2.30203 3.94894,-3.9605 0.62104,-1.26464 0.73444,-1.82705 0.72878,-3.61435 -0.009,-2.68915 -0.71645,-4.38512 -2.54396,-6.09454 -1.86256,-1.74221 -3.35115,-2.34601 -5.78371,-2.34601 -2.43256,0 -3.92115,0.6038 -5.7837,2.34601 -3.94216,3.68742 -3.39717,9.99613 1.1265,13.04015 1.73733,1.16907 2.5801,1.38477 5.05408,1.29357 1.553,-0.0572 2.41929,-0.23416 3.25307,-0.66433 z"
       id="path2" /></g></svg>
