<?xml version="1.0" encoding="UTF-8" standalone="no"?>
<!-- Created with Inkscape (http://www.inkscape.org/) -->

<svg
   width="135.46666mm"
   height="135.46666mm"
   viewBox="0 0 135.46666 135.46666"
   version="1.1"
   id="svg1"
   xml:space="preserve"
   inkscape:version="1.4 (86a8ad7, 2024-10-11)"
   sodipodi:docname="patrimoine_bati_monumental.svg"
   xmlns:inkscape="http://www.inkscape.org/namespaces/inkscape"
   xmlns:sodipodi="http://sodipodi.sourceforge.net/DTD/sodipodi-0.dtd"
   xmlns:xlink="http://www.w3.org/1999/xlink"
   xmlns="http://www.w3.org/2000/svg"
   xmlns:svg="http://www.w3.org/2000/svg"><sodipodi:namedview
     id="namedview1"
     pagecolor="#ffffff"
     bordercolor="#000000"
     borderopacity="0.25"
     inkscape:showpageshadow="2"
     inkscape:pageopacity="0.0"
     inkscape:pagecheckerboard="0"
     inkscape:deskcolor="#d1d1d1"
     inkscape:document-units="mm"
     inkscape:zoom="1.0405163"
     inkscape:cx="265.73347"
     inkscape:cy="159.05566"
     inkscape:window-width="3840"
     inkscape:window-height="2054"
     inkscape:window-x="3829"
     inkscape:window-y="-11"
     inkscape:window-maximized="1"
     inkscape:current-layer="layer1" /><defs
     id="defs1" /><g
     inkscape:label="Calque 1"
     inkscape:groupmode="layer"
     id="layer1"
     transform="translate(-34.696438,-85.89595)"><image
       width="135.46666"
       height="135.46666"
       preserveAspectRatio="none"
       xlink:href="patrimoine_bati_monumental.png"
       id="image1"
       x="34.696438"
       y="85.89595" /><path
       style="fill:#9f5cc0;fill-opacity:1"
       d="m 42.367678,190.47251 -0.0017,-30.89011 -3.831491,-2.64583 -3.831491,-2.64583 -0.0033,-14.35365 -0.0033,-14.35364 h 3.96875 3.968749 v 3.83646 3.83645 h 4.101042 4.101041 v -3.83645 -3.83646 h 3.96875 3.96875 v 3.83646 3.83645 h 3.96875 3.968749 v -3.83645 -3.83646 h 3.96875 3.96875 l -0.0058,14.35364 -0.0058,14.35365 -3.896772,2.66155 -3.896772,2.66155 -0.06724,30.87438 -0.06724,30.87439 H 54.539089 42.369354 Z m 32.081033,6.35 0.06752,-24.54011 27.847393,-0.0674 27.8474,-0.0673 v 24.60746 24.60746 h -6.19738 -6.19737 l -0.1101,-11.04635 c -0.0919,-9.22344 -0.18146,-11.28617 -0.54248,-12.49956 -1.97486,-6.63757 -7.85028,-11.10668 -14.60163,-11.10668 -7.170617,0 -13.341729,5.01116 -14.815503,12.03072 -0.303485,1.44548 -0.389859,4.13192 -0.393444,12.23697 l -0.0046,10.3849 h -6.483661 -6.483662 z m 20.88961,13.89062 c 0.07624,-10.15064 0.105868,-10.70539 0.632478,-11.84307 0.666935,-1.44085 1.90422,-2.72487 3.380686,-3.5084 0.863225,-0.4581 1.540275,-0.58051 3.210575,-0.58051 2.53145,0 3.75125,0.53458 5.34113,2.34079 1.7495,1.98753 1.75668,2.04029 1.86782,13.72348 l 0.10004,10.51719 h -7.30636 -7.306357 z m 42.545609,-20.25275 v -30.90223 l -3.70416,-2.60281 -3.70417,-2.6028 v -14.38455 -14.38454 h 3.82919 l 3.8292,0 0.0734,3.77031 0.0734,3.77031 4.03489,0.073 4.0349,0.073 v -3.84335 -3.84335 h 3.96875 3.96875 v 3.83646 3.83645 h 3.96875 3.96875 v -3.83645 -3.83646 h 3.96875 3.96875 v 14.36886 14.36887 l -3.83646,2.61085 -3.83646,2.61086 v 30.90986 30.90986 H 150.18706 137.88393 Z M 82.586019,141.62429 v -22.58832 l -3.945832,-2.61324 -3.945831,-2.61324 -0.02292,-13.95677 -0.02292,-13.95677 h 3.96875 3.96875 v 3.836458 3.836459 h 3.968749 3.96875 V 89.732408 85.89595 h 3.96875 3.96875 v 3.836458 3.836459 h 3.968752 3.96875 V 89.732408 85.89595 h 3.96875 3.96875 v 3.836458 3.836459 h 3.96875 3.96875 V 89.732408 85.89595 h 3.96875 3.96875 v 13.886391 13.886389 l -3.96875,2.6543 -3.96875,2.6543 v 22.61764 22.61764 H 102.42977 82.586019 Z m 23.812501,-3.20855 v -5.95313 h -3.96875 -3.968752 v 5.95313 5.95312 h 3.968752 3.96875 z m 0,-23.41562 v -5.82084 h -3.96875 -3.968752 v 5.82084 5.82083 h 3.968752 3.96875 z"
       id="path1" /></g></svg>
