<?xml version="1.0" encoding="UTF-8" standalone="no"?>
<!-- Created with Inkscape (http://www.inkscape.org/) -->

<svg
   width="135.46666mm"
   height="135.46666mm"
   viewBox="0 0 135.46666 135.46666"
   version="1.1"
   id="svg1"
   xml:space="preserve"
   inkscape:version="1.4 (86a8ad7, 2024-10-11)"
   sodipodi:docname="personnages_celebres_violet.svg"
   xmlns:inkscape="http://www.inkscape.org/namespaces/inkscape"
   xmlns:sodipodi="http://sodipodi.sourceforge.net/DTD/sodipodi-0.dtd"
   xmlns:xlink="http://www.w3.org/1999/xlink"
   xmlns="http://www.w3.org/2000/svg"
   xmlns:svg="http://www.w3.org/2000/svg"><sodipodi:namedview
     id="namedview1"
     pagecolor="#ffffff"
     bordercolor="#000000"
     borderopacity="0.25"
     inkscape:showpageshadow="2"
     inkscape:pageopacity="0.0"
     inkscape:pagecheckerboard="0"
     inkscape:deskcolor="#d1d1d1"
     inkscape:document-units="mm"
     inkscape:zoom="1.0405163"
     inkscape:cx="256.12286"
     inkscape:cy="256.12286"
     inkscape:window-width="3840"
     inkscape:window-height="2054"
     inkscape:window-x="3829"
     inkscape:window-y="-11"
     inkscape:window-maximized="1"
     inkscape:current-layer="layer1" /><defs
     id="defs1" /><g
     inkscape:label="Calque 1"
     inkscape:groupmode="layer"
     id="layer1"
     transform="translate(-37.041672,-80.697922)"><image
       width="135.46666"
       height="135.46666"
       preserveAspectRatio="none"
       xlink:href="personnages_celebres.png"
       id="image1"
       x="37.041672"
       y="80.697922" /><path
       style="fill:#9f5cc0;fill-opacity:1"
       d="m 96.837502,210.83857 c -10.389181,-1.05607 -18.3058,-4.34589 -20.842734,-8.66139 -0.681591,-1.15943 -0.719463,-1.39887 -0.696118,-4.40114 0.115606,-14.86753 12.620745,-27.58344 27.88885,-28.35891 10.29888,-0.52308 19.81137,4.08217 25.81742,12.49889 0.67865,0.95105 1.17998,1.78311 1.11407,1.84902 -0.0659,0.0659 -1.24114,0.18742 -2.61161,0.27 -3.5973,0.21677 -4.7955,0.53405 -5.74852,1.52218 -0.95452,0.9897 -1.37344,1.9806 -1.37344,3.24871 0,1.82572 0.5821,2.56563 4.67186,5.93843 2.1599,1.78126 4.09506,3.39407 4.30036,3.58403 0.3196,0.29571 0.23267,0.88949 -0.60457,4.12984 -0.53781,2.08146 -1.08353,4.03778 -1.21271,4.34737 -0.49018,1.1747 -7.70004,3.17352 -14.18211,3.93177 -3.72135,0.43531 -12.69331,0.49027 -16.520748,0.1012 z m 34.173848,-0.84036 c -0.21182,-0.25524 0.13065,-1.95899 1.31042,-6.51909 1.31629,-5.08776 1.53553,-6.23059 1.24657,-6.49787 -0.19285,-0.17838 -2.41061,-2.02071 -4.92835,-4.09406 -4.47364,-3.68401 -4.975,-4.28144 -4.02124,-4.7918 0.21828,-0.1168 3.03553,-0.35418 6.26054,-0.5275 3.22502,-0.17333 5.99053,-0.39354 6.14559,-0.48937 0.15505,-0.0958 1.2824,-2.70853 2.50522,-5.806 1.22282,-3.09747 2.3486,-5.75706 2.50174,-5.91019 0.4193,-0.4193 1.08183,-0.0484 1.38822,0.77724 2.0431,5.50539 4.36182,10.92857 4.71563,11.02919 0.23532,0.0669 3.04723,0.26424 6.24868,0.43847 3.20146,0.17424 5.96967,0.43472 6.15157,0.57885 0.1819,0.14412 0.33073,0.41774 0.33073,0.60803 0,0.19029 -2.05383,2.03727 -4.56407,4.1044 -2.51023,2.06712 -4.72184,3.90436 -4.91469,4.08274 -0.28896,0.26728 -0.0697,1.41011 1.24657,6.49787 1.54414,5.96847 1.65232,6.86463 0.82865,6.86463 -0.10724,0 -2.52901,-1.48828 -5.38171,-3.30729 -2.8527,-1.81901 -5.36347,-3.30729 -5.57948,-3.30729 -0.21602,0 -2.73884,1.48828 -5.60628,3.30729 -2.86744,1.81901 -5.29993,3.30729 -5.40553,3.30729 -0.1056,0 -0.32105,-0.1555 -0.47878,-0.34554 z m -29.47482,-49.01455 c -6.832609,-1.65606 -11.420032,-8.55738 -10.259957,-15.43508 0.88027,-5.21884 4.731333,-9.50904 9.878977,-11.00551 1.95202,-0.56746 5.28399,-0.5674 7.2502,1.4e-4 5.2607,1.51849 9.12229,5.95545 9.90566,11.38162 0.58718,4.06717 -0.87705,8.38184 -3.85042,11.34612 -3.46893,3.45833 -8.2763,4.83931 -12.92446,3.71271 z M 50.089976,135.70914 c -0.205872,-0.20587 0.19405,-2.15068 1.418594,-6.89856 1.428175,-5.53741 1.649341,-6.67928 1.360998,-7.02671 -0.189361,-0.22816 -2.577947,-2.25327 -5.307969,-4.50024 -5.002427,-4.11728 -5.691518,-4.93966 -4.368365,-5.21335 0.327422,-0.0677 3.489309,-0.295 7.026416,-0.50507 3.537107,-0.21006 6.477938,-0.42876 6.53518,-0.486 0.05724,-0.0572 1.227606,-2.95762 2.600811,-6.44529 2.250856,-5.716722 2.556662,-6.341208 3.105251,-6.341208 0.548108,0 0.84971,0.61249 3.03818,6.169888 1.336315,3.39344 2.557994,6.29822 2.714843,6.45506 0.165293,0.1653 2.932693,0.43795 6.583029,0.64858 3.463818,0.19987 6.57347,0.42469 6.910339,0.4996 1.300887,0.28928 0.54582,1.1998 -4.315361,5.20379 -2.618663,2.15691 -4.974864,4.13531 -5.236003,4.39645 -0.456673,0.45667 -0.409469,0.72512 1.236666,7.03278 0.941304,3.6069 1.643566,6.73493 1.560581,6.95118 -0.08873,0.23122 -0.380704,0.34913 -0.708792,0.28623 -0.306852,-0.0588 -3.010575,-1.67683 -6.008273,-3.59557 -2.997698,-1.91874 -5.583219,-3.48861 -5.745603,-3.48861 -0.162384,0 -2.821226,1.60734 -5.90854,3.57187 -3.087313,1.96453 -5.746494,3.57188 -5.909292,3.57188 -0.162797,0 -0.425008,-0.12902 -0.58269,-0.2867 z m 84.506864,-0.0591 c -0.083,-0.21625 0.61597,-3.33163 1.55324,-6.92305 0.93726,-3.59142 1.6382,-6.63651 1.55764,-6.76686 -0.0806,-0.13035 -2.46322,-2.15277 -5.29481,-4.49426 -3.45177,-2.85434 -5.14833,-4.42619 -5.14833,-4.76989 0,-0.28196 0.0298,-0.52649 0.0662,-0.54342 0.0364,-0.0169 3.13786,-0.2371 6.89218,-0.48927 3.90967,-0.2626 6.9483,-0.58075 7.1122,-0.74465 0.15739,-0.15738 1.37951,-3.0626 2.71582,-6.45604 2.18847,-5.557398 2.49007,-6.169888 3.03818,-6.169888 0.54859,0 0.8544,0.624486 3.10525,6.341208 1.37321,3.48767 2.54245,6.38692 2.59831,6.44278 0.0559,0.0559 2.9967,0.27259 6.53518,0.4816 3.53848,0.20902 6.7015,0.43743 7.02892,0.50758 1.33136,0.28523 0.64744,1.10324 -4.38641,5.24639 -2.73995,2.25513 -5.12768,4.27611 -5.30608,4.49107 -0.26185,0.3155 0.005,1.66751 1.38453,7.01569 1.43662,5.56938 1.65023,6.67355 1.3407,6.93044 -0.2025,0.16806 -0.56476,0.23014 -0.80501,0.13794 -0.24025,-0.0922 -2.85321,-1.71286 -5.80657,-3.60147 -2.95335,-1.88862 -5.50117,-3.43385 -5.66181,-3.43385 -0.16064,0 -2.75819,1.56982 -5.77233,3.4885 -3.01413,1.91868 -5.73131,3.53669 -6.03816,3.59557 -0.32816,0.063 -0.62005,-0.0548 -0.70879,-0.28612 z m -42.2038,-12.42209 c -0.197508,-0.23798 0.204204,-2.17419 1.413522,-6.81302 0.929194,-3.5643 1.628557,-6.65915 1.55414,-6.87743 -0.07442,-0.21828 -2.451487,-2.28723 -5.282377,-4.59768 -4.931136,-4.02457 -5.80702,-4.991542 -4.816343,-5.317238 0.181901,-0.0598 3.294257,-0.287109 6.916347,-0.505127 3.668026,-0.220782 6.708163,-0.518941 6.862229,-0.673007 0.152136,-0.152136 1.361872,-3.046483 2.688302,-6.431881 3.20508,-8.180224 2.8672,-8.180456 6.08827,0.0042 1.33322,3.387693 2.54182,6.277212 2.68576,6.421152 0.14394,0.143941 3.23006,0.443518 6.85805,0.665728 3.628,0.222209 6.74518,0.454345 6.92708,0.515856 0.98928,0.334532 0.12178,1.294026 -4.81196,5.322296 -2.82849,2.30937 -5.2061,4.37745 -5.28359,4.59573 -0.0775,0.21828 0.62255,3.30993 1.55566,6.87032 1.66603,6.35696 1.76269,7.1526 0.86896,7.1526 -0.14517,0 -2.78874,-1.60734 -5.87459,-3.57188 -3.08586,-1.96453 -5.76477,-3.57187 -5.95313,-3.57187 -0.18836,0 -2.86726,1.60734 -5.953123,3.57187 -3.085858,1.96454 -5.735894,3.57188 -5.888968,3.57188 -0.153074,0 -0.402482,-0.14961 -0.554239,-0.33247 z"
       id="path1" /></g></svg>
