<?xml version="1.0" encoding="UTF-8" standalone="no"?>
<!-- Created with Inkscape (http://www.inkscape.org/) -->

<svg
   width="135.46666mm"
   height="135.46666mm"
   viewBox="0 0 135.46666 135.46666"
   version="1.1"
   id="svg1"
   xml:space="preserve"
   inkscape:version="1.4 (86a8ad7, 2024-10-11)"
   sodipodi:docname="pisciculture_violet.svg"
   xmlns:inkscape="http://www.inkscape.org/namespaces/inkscape"
   xmlns:sodipodi="http://sodipodi.sourceforge.net/DTD/sodipodi-0.dtd"
   xmlns="http://www.w3.org/2000/svg"
   xmlns:svg="http://www.w3.org/2000/svg"><sodipodi:namedview
     id="namedview1"
     pagecolor="#ffffff"
     bordercolor="#000000"
     borderopacity="0.25"
     inkscape:showpageshadow="2"
     inkscape:pageopacity="0.0"
     inkscape:pagecheckerboard="0"
     inkscape:deskcolor="#d1d1d1"
     inkscape:document-units="mm"
     inkscape:zoom="1.0405163"
     inkscape:cx="256.12286"
     inkscape:cy="256.12286"
     inkscape:window-width="3840"
     inkscape:window-height="2054"
     inkscape:window-x="3829"
     inkscape:window-y="-11"
     inkscape:window-maximized="1"
     inkscape:current-layer="layer1" /><defs
     id="defs1" /><g
     inkscape:label="Calque 1"
     inkscape:groupmode="layer"
     id="layer1"
     transform="translate(-37.041672,-80.697922)"><path
       style="fill:#9f5cc0;fill-opacity:1"
       d="m 71.305212,215.68496 c -3.155827,-1.50315 -11.341133,-8.11667 -16.153301,-13.05145 -12.721939,-13.0461 -18.679586,-26.94435 -18.017249,-42.03143 0.405952,-9.24699 2.998487,-17.64815 8.12391,-26.32567 6.915568,-11.70831 22.017383,-24.71939 34.098467,-29.37779 1.372567,-0.52926 4.289599,-1.41908 6.482291,-1.97739 12.216113,-3.11048 25.91178,-3.449514 37.70594,-0.9334 2.27014,0.4843 6.95871,1.82355 8.17617,2.33545 l 0.83019,0.34907 -2.04821,1.15353 c -3.92566,2.2109 -6.82055,4.38282 -9.8843,7.41579 -5.25769,5.20485 -8.15726,10.45592 -9.68763,17.54408 -0.36621,1.69617 -0.46418,3.34661 -0.45064,7.59134 0.0154,4.83197 0.0948,5.79125 0.72749,8.78927 1.44668,6.85531 5.24025,16.43091 8.18187,20.6524 l 0.51173,0.73438 -1.14732,-0.16999 c -8.42431,-1.24819 -24.802568,-5.57546 -34.479796,-9.10984 -5.038909,-1.84034 -6.630143,-2.26672 -9.798426,-2.62551 -7.447705,-0.84341 -14.750873,2.14149 -21.105788,8.62621 -2.152107,2.19607 -4.243331,4.83263 -5.660851,7.13705 l -0.835309,1.35794 1.206148,1.81706 c 1.76774,2.66311 6.115467,6.84572 8.721887,8.39066 7.116098,4.21803 16.394618,4.73737 26.225185,1.46789 2.657085,-0.88371 3.521854,-0.88408 4.967467,-0.002 1.178215,0.71879 1.626422,1.90649 2.116626,5.60883 0.814361,6.15059 0.153367,11.60171 -1.914206,15.78615 -1.207862,2.44453 -3.92846,5.40393 -6.209211,6.75423 -3.5323,2.09128 -8.601862,3.08463 -10.683134,2.0933 z m 61.690848,-45.55675 c -1.57712,-0.12317 -2.89527,-0.2631 -2.92922,-0.31097 -0.034,-0.0479 -1.11535,-1.74994 -2.40311,-3.78239 -4.20332,-6.63404 -7.26546,-13.79485 -8.60259,-20.11714 -0.71843,-3.39691 -0.9736,-9.09671 -0.5403,-12.06863 1.13914,-7.81322 5.46794,-14.3315 12.71249,-19.14245 1.99938,-1.32774 9.862,-5.69829 10.25122,-5.69829 0.14532,0 1.20223,0.61055 2.34869,1.35678 7.8537,5.11199 14.82646,12.89774 19.63696,21.92655 3.90845,7.33575 7.13136,17.18007 8.68103,26.51607 l 0.47072,2.83586 -0.57854,1.19081 c -0.45077,0.92782 -0.87604,1.34156 -1.92559,1.87341 -4.49352,2.27704 -11.1918,4.11759 -18.34467,5.04074 -3.76338,0.4857 -14.61087,0.70503 -18.77709,0.37965 z m 12.21375,-31.13767 c 2.28598,-1.67526 2.08402,-5.21689 -0.37798,-6.62837 -1.29795,-0.74413 -2.53114,-0.75686 -3.80784,-0.0393 -2.76216,1.55242 -2.72974,5.53064 0.0566,6.95211 1.10857,0.56553 3.1624,0.42406 4.12917,-0.28443 z M 80.650836,94.740842 c -1.610535,-1.029264 -3.867363,-1.969905 -6.686016,-2.786719 -2.636756,-0.764102 -2.975695,-0.925604 -3.806183,-1.813626 -0.771163,-0.824585 -1.112694,-2.270607 -0.831138,-3.518989 0.369384,-1.637803 1.339232,-2.355022 4.593123,-3.396694 11.077645,-3.546298 21.910057,-3.253965 30.525998,0.823801 2.88718,1.366451 6.44546,3.857612 9.01329,6.310229 l 2.2953,2.192314 -5.95313,-0.140596 c -8.36699,-0.197605 -16.324505,0.547636 -23.415619,2.192933 -4.445384,1.031428 -4.340545,1.028917 -5.735625,0.137347 z"
       id="path1" /></g></svg>
