<?xml version="1.0" encoding="UTF-8" standalone="no"?>
<!-- Created with Inkscape (http://www.inkscape.org/) -->

<svg
   width="135.46666mm"
   height="133.87917mm"
   viewBox="0 0 135.46666 133.87917"
   version="1.1"
   id="svg1"
   xml:space="preserve"
   inkscape:version="1.4 (86a8ad7, 2024-10-11)"
   sodipodi:docname="rapace_violet.svg"
   xmlns:inkscape="http://www.inkscape.org/namespaces/inkscape"
   xmlns:sodipodi="http://sodipodi.sourceforge.net/DTD/sodipodi-0.dtd"
   xmlns="http://www.w3.org/2000/svg"
   xmlns:svg="http://www.w3.org/2000/svg"><sodipodi:namedview
     id="namedview1"
     pagecolor="#ffffff"
     bordercolor="#000000"
     borderopacity="0.25"
     inkscape:showpageshadow="2"
     inkscape:pageopacity="0.0"
     inkscape:pagecheckerboard="0"
     inkscape:deskcolor="#d1d1d1"
     inkscape:document-units="mm"
     inkscape:zoom="1.0405163"
     inkscape:cx="86.014993"
     inkscape:cy="19.701758"
     inkscape:window-width="3840"
     inkscape:window-height="2054"
     inkscape:window-x="3829"
     inkscape:window-y="-11"
     inkscape:window-maximized="1"
     inkscape:current-layer="layer1" /><defs
     id="defs1" /><g
     inkscape:label="Calque 1"
     inkscape:groupmode="layer"
     id="layer1"
     transform="translate(-82.020836,-143.13959)"><path
       style="fill:#9f5cc0;fill-opacity:1"
       d="m 127,276.76422 c -0.72682,-0.22173 -0.69789,-0.24267 1.28509,-0.92994 1.10116,-0.38164 3.8752,-2.2101 3.66776,-2.41754 -0.0545,-0.0545 -0.98284,0.0156 -2.06296,0.15579 -2.98609,0.38756 -9.13215,0.32406 -11.68262,-0.1207 -2.53322,-0.44176 -5.53702,-1.44094 -5.68423,-1.89079 -0.0593,-0.18126 0.86722,-0.53363 2.36102,-0.89791 3.41927,-0.83382 5.68932,-1.6735 9.07323,-3.35613 4.75803,-2.3659 7.81577,-4.55505 11.54198,-8.26336 3.64315,-3.62565 6.29147,-7.02079 8.99059,-11.52593 2.27267,-3.79335 9.8494,-18.12498 9.67458,-18.29979 -0.0743,-0.0743 -1.42439,0.69254 -3.00026,1.70402 -5.69201,3.65344 -7.18269,4.09417 -13.84543,4.09353 -4.42154,-4.2e-4 -6.87917,-0.30578 -6.87917,-0.85474 0,-0.13184 1.23381,-0.83483 2.7418,-1.5622 3.34236,-1.61216 6.22067,-3.74211 9.07578,-6.71607 2.1267,-2.21521 3.72692,-4.31574 3.47768,-4.56497 -0.0704,-0.0704 -1.42728,0.72092 -3.01528,1.7585 -3.71186,2.42529 -6.66512,3.81943 -9.71198,4.58468 -4.74641,1.19213 -8.8123,1.1024 -13.23379,-0.29203 -2.41028,-0.76015 -5.4523,-2.20618 -5.9808,-2.84298 -0.45888,-0.55292 0.11078,-0.76131 3.57782,-1.30882 4.79295,-0.75689 8.92091,-2.33101 12.86533,-4.90596 2.22187,-1.45045 5.00247,-4.00292 4.54507,-4.17217 -0.15872,-0.0587 -1.6709,0.48509 -3.36041,1.2085 -6.42362,2.75045 -10.23622,3.59015 -15.40101,3.39197 -3.84674,-0.14761 -5.91702,-0.66333 -8.88561,-2.21344 -2.15776,-1.12671 -5.47636,-3.75838 -7.525098,-5.96744 -1.50283,-1.62044 -1.528318,-1.67215 -0.862945,-1.75099 0.377093,-0.0447 1.679493,0.10873 2.894223,0.34091 6.51225,1.24471 13.93862,0.5873 19.80182,-1.75293 1.92484,-0.76827 3.70574,-1.88335 3.70574,-2.32028 0,-0.1181 -0.89648,-0.001 -1.99218,0.2599 -5.25697,1.25247 -13.67228,1.37601 -18.08798,0.26553 -2.70086,-0.67922 -6.128592,-2.25147 -8.321148,-3.81681 -3.523621,-2.51562 -7.110104,-6.95363 -9.159079,-11.33369 -1.205591,-2.57717 -1.525538,-3.6541 -1.085598,-3.6541 0.167822,0 1.460652,0.83424 2.872954,1.85387 4.11209,2.96878 9.113492,5.19788 13.944901,6.21518 4.17542,0.87918 9.73119,1.13221 8.96796,0.40843 -0.13019,-0.12346 -1.67006,-0.64601 -3.42193,-1.16122 -11.151212,-3.27952 -19.046797,-9.27708 -23.387921,-17.76571 -4.269151,-8.34788 -4.587926,-19.72976 -0.799138,-28.53332 1.089186,-2.53082 2.307651,-4.5586 2.577216,-4.28904 0.09263,0.0926 0.183283,1.97879 0.201453,4.19147 0.05454,6.64169 1.332711,11.23812 4.6933,16.87754 3.413106,5.72756 7.202542,9.83052 12.07544,13.07455 3.64869,2.42903 7.22513,3.94219 17.33734,7.33529 12.09814,4.05947 13.58414,4.71508 17.84083,7.87122 2.84238,2.1075 5.46037,4.623 9.78282,9.39986 5.81303,6.42415 7.89328,8.60124 10.45286,10.93949 3.06943,2.80401 4.85579,4.02285 8.20366,5.5974 4.49285,2.11305 4.9199,1.98529 1.82038,-0.54458 -4.98107,-4.06561 -10.82646,-10.27824 -17.4029,-18.49622 -9.00247,-11.24958 -12.85711,-13.93488 -27.32486,-19.03564 -8.02654,-2.82984 -12.94736,-5.02527 -15.33265,-6.84068 -1.24587,-0.9482 -1.10185,-1.22527 0.52916,-1.01798 3.85271,0.48964 6.11805,0.70164 11.57552,1.08325 11.84971,0.82859 16.19531,1.59444 20.35397,3.58712 4.52971,2.17047 7.74847,5.16628 12.60816,11.7348 5.76271,7.78908 7.47511,9.90618 10.42954,12.8944 7.8103,7.89962 14.7716,10.86803 27.83302,11.86845 5.2285,0.40047 11.64502,2.09367 14.72506,3.88567 0.8736,0.50827 1.29634,0.99773 1.75507,2.03203 0.37361,0.84241 1.03079,1.70413 1.72164,2.25749 1.27034,1.01752 1.85479,2.1864 1.85479,3.70949 0,1.72887 -0.85689,3.31327 -2.17673,4.02482 -0.37095,0.19998 -0.52665,0.0795 -0.82735,-0.64016 -0.561,-1.34268 -1.89276,-1.87552 -4.97235,-1.98947 -3.04756,-0.11276 -5.93763,0.51675 -9.59108,2.0891 -8.76014,3.77014 -16.17299,10.57488 -18.17351,16.68265 -0.53769,1.64161 -0.63919,2.47665 -0.63919,5.25878 0,3.0269 0.0596,3.43437 0.70271,4.80623 0.84247,1.79708 1.38677,2.17632 3.73646,2.60343 2.021,0.36735 3.20596,1.0513 4.08735,2.3592 1.02517,1.52125 0.7065,4.76737 -0.5721,5.82778 -0.43152,0.35788 -0.45,0.30358 -0.28075,-0.82505 0.24598,-1.64029 -0.36188,-2.86534 -1.42175,-2.86534 -0.89956,0 -1.62224,0.73414 -1.85815,1.88761 -0.0957,0.46802 -0.3142,0.89767 -0.4855,0.95477 -0.17131,0.0571 -0.8231,-0.56232 -1.44841,-1.37649 -1.35771,-1.76777 -1.98076,-2.00272 -3.10555,-1.17113 l -0.81991,0.60619 -0.57733,-0.57733 c -0.53055,-0.53055 -0.55449,-0.68887 -0.29539,-1.95371 0.26182,-1.27812 0.23866,-1.41966 -0.32439,-1.98271 -0.52824,-0.52825 -0.71109,-0.56982 -1.41969,-0.3228 -0.44735,0.15595 -0.8797,0.39088 -0.96078,0.52207 -0.31122,0.50357 -1.15285,0.20078 -1.94284,-0.69897 -1.79302,-2.04213 -3.20044,-5.86443 -3.20044,-8.69184 0,-0.81574 -0.0893,-1.47948 -0.19843,-1.47498 -0.4673,0.0193 -2.01264,2.4913 -2.5129,4.0198 -1.14289,3.49203 -0.53047,10.44169 0.97598,11.0752 0.2996,0.12599 1.43012,0.34451 2.51226,0.4856 2.13352,0.27816 2.96281,0.73002 3.91945,2.13561 0.73254,1.07633 0.75735,2.39825 0.0733,3.9053 -0.73653,1.62261 -0.9842,1.53241 -1.44177,-0.52514 -0.10538,-0.47384 -0.38263,-0.77922 -0.80331,-0.8848 -0.92422,-0.23197 -1.20163,0.0477 -1.20163,1.2115 0,0.56491 -0.11695,1.09939 -0.2599,1.18773 -0.14294,0.0883 -0.70636,-0.14275 -1.25204,-0.51355 -1.25628,-0.85367 -2.5407,-0.88932 -3.10326,-0.0861 -0.61788,0.88215 -0.51432,1.33953 0.65465,2.89112 0.97798,1.29809 1.02153,1.4227 0.52458,1.50078 -1.5562,0.2445 -4.41004,-1.90872 -5.03349,-3.79777 -0.36837,-1.11619 -0.12322,-1.98236 1.10107,-3.89025 l 0.82835,-1.29086 -0.89717,-0.93267 c -1.36299,-1.41692 -1.62259,-1.49055 -2.63125,-0.74638 -0.48524,0.358 -1.04038,0.65091 -1.23364,0.65091 -1.22617,0 -4.67458,-4.70495 -5.04689,-6.88589 -0.22243,-1.30293 -0.74969,-1.67142 -0.99471,-0.69518 -0.24488,0.97568 0.36412,3.5436 1.23316,5.19982 1.15697,2.20494 1.05016,2.91502 -0.71724,4.76795 -2.96056,3.10384 -9.65539,6.83561 -14.44104,8.04959 -4.21975,1.07042 -7.88092,1.43775 -9.47701,0.95084 z m 78.52833,-55.36088 c 0.60315,-0.60315 0.31534,-0.94563 -0.93927,-1.11769 -0.69123,-0.0948 -1.61162,-0.24286 -2.04533,-0.32904 -0.73349,-0.14574 -0.76121,-0.12356 -0.39688,0.31749 0.99224,1.20118 2.72941,1.7813 3.38148,1.12924 z m -24.28875,-14.25118 c -2.20163,-0.57317 -5.68519,-2.15473 -7.60926,-3.45464 -1.99435,-1.3474 -4.03241,-3.15037 -4.03241,-3.56729 0,-1.0057 3.83315,-7.58016 6.29859,-10.80308 1.71942,-2.2477 5.91194,-6.53616 8.16184,-8.34862 1.04099,-0.8386 4.6724,-3.37479 8.06979,-5.63598 7.05385,-4.69481 9.53185,-6.62041 13.1425,-10.21276 3.18846,-3.1723 4.99069,-5.5664 6.49554,-8.62874 1.65887,-3.37576 2.50978,-6.12554 3.05037,-9.85756 0.25836,-1.78364 0.54686,-3.32008 0.6411,-3.41433 0.3505,-0.3505 1.25566,2.3354 1.63485,4.85113 1.00343,6.65719 -0.0279,13.15115 -2.88215,18.14778 -3.09602,5.41988 -6.55855,9.21543 -14.45761,15.84812 -7.72018,6.48249 -10.34629,9.64947 -12.61418,15.21216 -0.79082,1.93973 -0.95902,2.76593 -1.27363,6.25608 -0.19936,2.21166 -0.36912,4.05096 -0.37724,4.08734 -0.0533,0.23882 -2.5876,-0.0473 -4.2481,-0.47961 z"
       id="path1" /></g></svg>
