<?xml version="1.0" encoding="UTF-8" standalone="no"?>
<!-- Created with Inkscape (http://www.inkscape.org/) -->

<svg
   width="135.46666mm"
   height="135.46666mm"
   viewBox="0 0 135.46666 135.46666"
   version="1.1"
   id="svg1"
   xml:space="preserve"
   inkscape:version="1.4 (86a8ad7, 2024-10-11)"
   sodipodi:docname="usine_violet.svg"
   xmlns:inkscape="http://www.inkscape.org/namespaces/inkscape"
   xmlns:sodipodi="http://sodipodi.sourceforge.net/DTD/sodipodi-0.dtd"
   xmlns="http://www.w3.org/2000/svg"
   xmlns:svg="http://www.w3.org/2000/svg"><sodipodi:namedview
     id="namedview1"
     pagecolor="#ffffff"
     bordercolor="#000000"
     borderopacity="0.25"
     inkscape:showpageshadow="2"
     inkscape:pageopacity="0.0"
     inkscape:pagecheckerboard="0"
     inkscape:deskcolor="#d1d1d1"
     inkscape:document-units="mm"
     inkscape:zoom="1.0405163"
     inkscape:cx="256.12286"
     inkscape:cy="256.12286"
     inkscape:window-width="3840"
     inkscape:window-height="2054"
     inkscape:window-x="3829"
     inkscape:window-y="-11"
     inkscape:window-maximized="1"
     inkscape:current-layer="layer1" /><defs
     id="defs1" /><g
     inkscape:label="Calque 1"
     inkscape:groupmode="layer"
     id="layer1"
     transform="translate(-37.041672,-80.697922)"><path
       style="fill:#9f5cc0;fill-opacity:1"
       d="m 45.508338,170.24735 v -37.45057 l 0.649432,-0.64943 0.649432,-0.64943 h 13.517802 13.517802 l 0.649432,0.64943 0.649432,0.64943 v 11.40694 c 0,10.73912 0.02711,11.39899 0.463021,11.27109 0.254661,-0.0747 9.690364,-2.65146 20.968228,-5.7261 15.488161,-4.22248 20.750391,-5.55889 21.507301,-5.46208 0.55115,0.0705 1.3976,0.42984 1.88099,0.79855 1.5104,1.15203 1.74712,2.01414 1.74712,6.36262 0,2.55143 0.0955,3.86262 0.28127,3.86262 0.1547,0 8.63119,-2.5129 18.83666,-5.58422 20.09,-6.04605 19.72862,-5.96793 21.46828,-4.64102 1.86702,1.42404 1.74713,-0.81014 1.74713,32.55637 v 30.05637 H 104.775 45.508338 Z m 50.799997,9.9339 v -6.35 H 85.725003 75.14167 v 6.35 6.35 h 10.583333 10.583332 z m 29.633335,0 v -6.35 H 115.35833 104.775 v 6.35 6.35 h 10.58333 10.58334 z m 29.63333,0 v -6.35 h -10.58333 -10.58334 v 6.35 6.35 H 144.99167 155.575 Z M 49.741671,117.59687 c 0,-8.64424 0.646599,-12.68115 2.680298,-16.73389 3.465196,-6.905424 10.52761,-9.99966 25.497826,-11.17129 1.89177,-0.148058 8.859516,-0.345707 15.483878,-0.43922 13.512507,-0.19075 13.286307,-0.217029 14.759697,1.714694 1.0179,1.334533 1.0179,3.526981 0,4.861515 -1.33665,1.752445 -1.62323,1.80205 -10.439813,1.807087 -8.571128,0.0049 -18.512329,0.355943 -22.714179,0.80209 -10.281347,1.091661 -14.508033,3.522724 -16.195673,9.315274 -0.29848,1.02449 -0.438003,3.20459 -0.533285,8.33281 l -0.129043,6.94531 h -4.204853 -4.204853 z m 17.034805,3.91303 c 0.19635,-1.71353 0.834331,-3.83932 1.449153,-4.82865 1.315283,-2.11646 3.465827,-3.89435 5.739749,-4.74514 3.112429,-1.1645 5.451529,-1.37157 18.109624,-1.60315 14.908908,-0.27275 19.014088,-0.79314 26.423808,-3.34964 3.13359,-1.08115 4.27633,-1.08077 5.69574,0.002 2.25451,1.7196 2.28219,4.98316 0.0562,6.63065 -1.34602,0.99623 -6.21968,2.56056 -11.14141,3.57612 -5.59104,1.15367 -8.38504,1.36884 -20.902086,1.60975 -11.066988,0.213 -13.471504,0.36333 -15.081249,0.94289 -0.97176,0.34986 -1.728187,1.2616 -1.890899,2.27915 l -0.161108,1.00751 h -4.235945 -4.235946 z"
       id="path1" /></g></svg>
