<?xml version="1.0" encoding="UTF-8" standalone="no"?>
<!-- Created with Inkscape (http://www.inkscape.org/) -->

<svg
   width="87.19445mm"
   height="112.53266mm"
   viewBox="0 0 87.194451 112.53266"
   version="1.1"
   id="svg1"
   xml:space="preserve"
   inkscape:version="1.4 (86a8ad7, 2024-10-11)"
   sodipodi:docname="vignes_violet.svg"
   xmlns:inkscape="http://www.inkscape.org/namespaces/inkscape"
   xmlns:sodipodi="http://sodipodi.sourceforge.net/DTD/sodipodi-0.dtd"
   xmlns:xlink="http://www.w3.org/1999/xlink"
   xmlns="http://www.w3.org/2000/svg"
   xmlns:svg="http://www.w3.org/2000/svg"><sodipodi:namedview
     id="namedview1"
     pagecolor="#ffffff"
     bordercolor="#000000"
     borderopacity="0.25"
     inkscape:showpageshadow="2"
     inkscape:pageopacity="0.0"
     inkscape:pagecheckerboard="0"
     inkscape:deskcolor="#d1d1d1"
     inkscape:document-units="mm"
     inkscape:zoom="1.0405163"
     inkscape:cx="389.71039"
     inkscape:cy="82.651278"
     inkscape:window-width="3840"
     inkscape:window-height="2054"
     inkscape:window-x="3829"
     inkscape:window-y="-11"
     inkscape:window-maximized="1"
     inkscape:current-layer="layer1" /><defs
     id="defs1" /><g
     inkscape:label="Calque 1"
     inkscape:groupmode="layer"
     id="layer1"
     transform="translate(-1.633992,-126.61925)"><image
       width="135.46666"
       height="135.46666"
       preserveAspectRatio="none"
       xlink:href="vignes.png"
       id="image1"
       x="-22.48958"
       y="115.09375"
       style="fill:#9f5cc0;fill-opacity:1" /><path
       style="fill:#9f5cc0;fill-opacity:1"
       d="m 53.477694,238.88506 c -3.093136,-0.51376 -6.267344,-3.00262 -7.644571,-5.99404 -0.550401,-1.1955 -0.715681,-2.01248 -0.787807,-3.89415 -0.0502,-1.30969 0.0062,-2.52281 0.125361,-2.69583 0.11915,-0.17302 1.047537,-0.48828 2.063083,-0.70056 2.31438,-0.4838 4.453102,-1.42331 6.485679,-2.84909 l 1.578477,-1.10723 1.521354,1.06095 c 0.836745,0.58352 1.884443,1.24633 2.328219,1.47291 0.994084,0.50756 3.878848,1.41314 5.20231,1.6331 0.871285,0.14481 1.001979,0.26923 1.158345,1.10274 0.09694,0.51673 0.118707,1.74378 0.04837,2.72678 -0.327082,4.57141 -4.012804,8.50388 -8.679999,9.26111 -0.940992,0.15267 -1.770425,0.26456 -1.843186,0.24865 -0.07276,-0.0159 -0.772797,-0.13532 -1.555638,-0.26534 z M 41.016831,218.65084 c -0.796836,-0.21413 -1.932026,-0.67252 -2.522645,-1.01864 -1.520915,-0.89132 -3.494953,-3.09361 -4.248669,-4.73995 -1.110546,-2.42575 -1.211298,-7.04642 -0.153644,-7.04642 1.757126,0 6.086174,-1.73361 8.299165,-3.32349 l 1.293439,-0.92924 1.904116,1.27235 c 1.047263,0.6998 2.453597,1.48178 3.125185,1.73774 l 1.221071,0.46539 -0.248251,1.24852 c -0.36343,1.82779 -0.03797,5.30395 0.71696,7.65778 l 0.659862,2.05741 -0.727023,0.60982 c -1.073527,0.90048 -2.503165,1.59162 -4.214125,2.03727 -1.866366,0.48613 -3.218353,0.47857 -5.105441,-0.0285 z m 23.440361,0.14668 c -5.478488,-1.37584 -9.094883,-7.26951 -7.663135,-12.48867 0.06986,-0.25466 0.332105,-0.46302 0.582766,-0.46302 1.064305,0 3.76626,-0.87571 5.849636,-1.89587 1.73971,-0.85188 2.703558,-1.56041 4.315515,-3.17237 1.141531,-1.14153 2.223512,-2.07551 2.404402,-2.07551 0.865926,0 3.196867,1.5122 4.499166,2.91884 2.020672,2.18256 2.661256,3.89451 2.67209,7.14108 0.0077,2.31919 -0.06026,2.65876 -0.856172,4.27531 -1.119098,2.27297 -3.41509,4.4457 -5.542416,5.24486 -1.735738,0.65205 -4.734698,0.89887 -6.261852,0.51535 z M 29.060874,198.47469 c -2.043975,-0.67513 -3.131454,-1.39302 -4.684839,-3.09267 -1.838581,-2.0117 -2.507266,-3.83011 -2.530032,-6.88012 -0.01683,-2.2541 0.04083,-2.51376 0.980222,-4.41449 1.586182,-3.20942 4.261689,-5.19325 7.775108,-5.76508 2.675685,-0.43547 6.087321,0.47871 8.122812,2.17661 l 0.756437,0.63097 -0.658467,2.10536 c -1.194937,3.82064 -1.164373,7.29986 0.09702,11.04424 l 0.553762,1.64382 -0.98998,0.85577 c -2.205758,1.90673 -6.463208,2.6729 -9.422043,1.69559 z m 23.458917,0.12099 c -3.033768,-0.96197 -5.245083,-2.8679 -6.568441,-5.66133 -0.771173,-1.62784 -0.839443,-1.98937 -0.834406,-4.41873 0.005,-2.43217 0.07393,-2.78661 0.853096,-4.3892 1.020703,-2.09939 2.911362,-3.95965 5.036846,-4.95587 1.354349,-0.63478 1.817922,-0.70896 4.423321,-0.7078 2.74749,0.001 2.999527,0.0478 4.502217,0.83249 1.95802,1.02241 3.901945,3.05416 4.842851,5.06164 0.627996,1.33987 0.709099,1.83065 0.709099,4.29103 0,2.44876 -0.08266,2.95442 -0.697221,4.26509 -1.748997,3.73008 -5.489872,6.08131 -9.603405,6.03596 -0.883093,-0.01 -2.081874,-0.16871 -2.663957,-0.35328 z m 27.536807,-1.25567 c -1.620893,-2.01465 -4.567566,-4.08932 -7.024661,-4.94587 -0.715744,-0.24951 -0.811543,-0.38252 -0.644696,-0.89516 0.237256,-0.72897 0.261327,-5.15359 0.03206,-5.89378 -0.141016,-0.45527 0.172693,-0.68972 2.24669,-1.67902 1.971251,-0.9403 2.795671,-1.53495 4.523455,-3.26273 l 2.112863,-2.11286 1.134227,0.43316 c 4.249892,1.62305 7.054814,6.62797 6.256013,11.16284 -0.661608,3.75601 -3.273003,6.96139 -6.635805,8.14518 l -0.961958,0.33863 z M 68.527082,177.37267 c -1.959346,-2.52887 -6.188654,-5.0571 -9.525,-5.69393 -0.945885,-0.18055 -1.853556,-0.42702 -2.017046,-0.54771 -0.477758,-0.35268 -0.655933,-2.61172 -0.340758,-4.32039 0.620359,-3.36319 2.882773,-6.28568 5.995125,-7.74423 1.335023,-0.62564 1.847177,-0.71329 4.167887,-0.71329 2.423395,0 2.794883,0.0706 4.41873,0.83989 2.255575,1.06856 3.991571,2.80456 5.060127,5.06013 0.760114,1.6045 0.839893,2.01165 0.839893,4.28644 0,2.2721 -0.07944,2.67874 -0.827019,4.23333 -1.102571,2.29281 -2.38082,3.70316 -4.246099,4.68491 -2.418287,1.27281 -2.474757,1.27144 -3.52584,-0.0851 z m -26.777985,-3.17931 c -1.95641,-1.33382 -5.483741,-2.73752 -6.903901,-2.74741 -1.218212,-0.008 -1.375404,-0.3488 -1.375404,-2.97763 0,-2.32472 0.05906,-2.5904 0.998099,-4.48984 1.136275,-2.29841 2.602058,-3.75538 4.922221,-4.89262 1.336335,-0.65502 1.771616,-0.72954 4.270261,-0.73105 2.598018,-0.002 2.896472,0.0545 4.507236,0.84681 0.948742,0.46668 1.979087,1.12152 2.289655,1.45521 l 0.564668,0.60671 -0.697755,1.98437 c -0.61788,1.75722 -0.697679,2.38179 -0.697093,5.45605 l 6.61e-4,3.47166 -1.691319,0.73682 c -0.930225,0.40525 -2.244046,1.17209 -2.919602,1.70409 l -1.228283,0.96726 z m -22.699096,-1.59185 c -2.340554,-0.35153 -4.115731,-0.73588 -6.085416,-1.31758 -2.61898,-0.77346 -7.9955724,-3.36339 -9.9647756,-4.80008 l -1.3658174,-0.99647 0.866093,-1.84734 c 2.284038,-4.87174 7.4189639,-10.88614 11.791451,-13.811 6.172687,-4.12906 12.30576,-6.00391 19.575131,-5.98405 5.708726,0.0156 10.990524,1.28538 15.884474,3.81873 1.096617,0.56766 2.06249,1.03211 2.146384,1.03211 0.08389,0 0.226324,-0.62508 0.316511,-1.38906 0.763317,-6.46614 4.355057,-13.8996 9.073983,-18.7795 2.205512,-2.28075 4.079298,-2.51269 5.798895,-0.71782 0.6608,0.68972 0.778709,1.02417 0.778709,2.2088 0,1.24678 -0.113133,1.52782 -1.058333,2.62907 -5.226832,6.08975 -7.543656,11.30419 -7.979845,17.96014 -0.160869,2.45474 -0.217481,2.65631 -0.858689,3.05739 -0.377556,0.23617 -1.133304,0.77285 -1.679441,1.19263 l -0.992975,0.76323 -0.807605,-0.67955 c -1.26799,-1.06695 -3.924267,-2.44568 -5.805402,-3.01328 -8.541676,-2.5773 -17.592574,1.76897 -21.09401,10.12941 -0.908921,2.17025 -1.216043,4.37541 -1.07007,7.68322 l 0.133819,3.0324 -3.470806,-0.036 c -1.908944,-0.0198 -3.768463,-0.0807 -4.132265,-0.13537 z"
       id="path2" /></g></svg>
