<?xml version="1.0" encoding="UTF-8" standalone="no"?>
<!-- Created with Inkscape (http://www.inkscape.org/) -->

<svg
   width="135.46666mm"
   height="135.46666mm"
   viewBox="0 0 135.46666 135.46666"
   version="1.1"
   id="svg1"
   xml:space="preserve"
   inkscape:version="1.4 (86a8ad7, 2024-10-11)"
   sodipodi:docname="vignes_violet.svg"
   xmlns:inkscape="http://www.inkscape.org/namespaces/inkscape"
   xmlns:sodipodi="http://sodipodi.sourceforge.net/DTD/sodipodi-0.dtd"
   xmlns="http://www.w3.org/2000/svg"
   xmlns:svg="http://www.w3.org/2000/svg"><sodipodi:namedview
     id="namedview1"
     pagecolor="#ffffff"
     bordercolor="#000000"
     borderopacity="0.25"
     inkscape:showpageshadow="2"
     inkscape:pageopacity="0.0"
     inkscape:pagecheckerboard="0"
     inkscape:deskcolor="#d1d1d1"
     inkscape:document-units="mm"
     inkscape:zoom="1.0405163"
     inkscape:cx="256.12286"
     inkscape:cy="256.12286"
     inkscape:window-width="3840"
     inkscape:window-height="2054"
     inkscape:window-x="3829"
     inkscape:window-y="-11"
     inkscape:window-maximized="1"
     inkscape:current-layer="layer1" /><defs
     id="defs1" /><g
     inkscape:label="Calque 1"
     inkscape:groupmode="layer"
     id="layer1"
     transform="translate(-37.041672,-80.697922)"><path
       style="fill:#9f5cc0;fill-opacity:1"
       d="m 113.00895,204.48923 c -3.09314,-0.51376 -6.26735,-3.00262 -7.64458,-5.99403 -0.5504,-1.1955 -0.71568,-2.01249 -0.7878,-3.89416 -0.0502,-1.30969 0.006,-2.52281 0.12536,-2.69583 0.11915,-0.17302 1.04754,-0.48828 2.06308,-0.70056 2.31438,-0.4838 4.4531,-1.42331 6.48568,-2.84908 l 1.57848,-1.10724 1.52135,1.06095 c 0.83675,0.58352 1.88444,1.24633 2.32822,1.47291 0.99408,0.50756 3.87885,1.41314 5.20231,1.6331 0.87129,0.14482 1.00198,0.26924 1.15835,1.10274 0.0969,0.51673 0.1187,1.74378 0.0484,2.72678 -0.32708,4.57141 -4.01281,8.50389 -8.68,9.26111 -0.94099,0.15267 -1.77043,0.26456 -1.84319,0.24865 -0.0728,-0.0159 -0.77279,-0.13532 -1.55563,-0.26534 z m -12.46087,-20.23421 c -0.796833,-0.21413 -1.932024,-0.67252 -2.522642,-1.01865 -1.520915,-0.89132 -3.494953,-3.09361 -4.248669,-4.73994 -1.110546,-2.42576 -1.211298,-7.04643 -0.153644,-7.04643 1.757126,0 6.086174,-1.73361 8.299165,-3.32349 l 1.29344,-0.92924 1.90411,1.27235 c 1.04727,0.6998 2.4536,1.48178 3.12519,1.73774 l 1.22107,0.46539 -0.24825,1.24852 c -0.36343,1.82779 -0.038,5.30395 0.71696,7.65778 l 0.65986,2.05741 -0.72702,0.60983 c -1.07353,0.90047 -2.50317,1.59161 -4.21413,2.03726 -1.86636,0.48613 -3.21835,0.47857 -5.10544,-0.0285 z m 23.44036,0.14667 c -5.47848,-1.37584 -9.09488,-7.26951 -7.66313,-12.48867 0.0699,-0.25466 0.3321,-0.46302 0.58277,-0.46302 1.0643,0 3.76625,-0.8757 5.84963,-1.89587 1.73971,-0.85188 2.70356,-1.56041 4.31552,-3.17237 1.14153,-1.14153 2.22351,-2.07551 2.4044,-2.07551 0.86592,0 3.19686,1.5122 4.49916,2.91884 2.02068,2.18257 2.66126,3.89451 2.67209,7.14108 0.008,2.31919 -0.0603,2.65876 -0.85617,4.27531 -1.1191,2.27297 -3.41509,4.4457 -5.54241,5.24486 -1.73574,0.65206 -4.7347,0.89887 -6.26186,0.51535 z M 88.592126,164.07886 c -2.043975,-0.67512 -3.131454,-1.39302 -4.684839,-3.09267 -1.838581,-2.0117 -2.507266,-3.83011 -2.530033,-6.88012 -0.01682,-2.2541 0.04083,-2.51376 0.980223,-4.41449 1.586182,-3.20942 4.261689,-5.19325 7.775108,-5.76507 2.675685,-0.43548 6.087321,0.47871 8.122812,2.1766 l 0.756437,0.63098 -0.658467,2.10535 c -1.194937,3.82064 -1.164373,7.29986 0.09702,11.04425 l 0.553762,1.64381 -0.98998,0.85577 c -2.205758,1.90673 -6.463208,2.6729 -9.422042,1.69559 z m 23.458914,0.12099 c -3.03377,-0.96197 -5.24508,-2.8679 -6.56844,-5.66133 -0.77117,-1.62784 -0.83944,-1.98937 -0.8344,-4.41873 0.005,-2.43217 0.0739,-2.78661 0.85309,-4.3892 1.0207,-2.09939 2.91136,-3.95965 5.03685,-4.95587 1.35435,-0.63478 1.81792,-0.70896 4.42332,-0.70779 2.74749,0.001 2.99953,0.0478 4.50222,0.83248 1.95802,1.02241 3.90194,3.05416 4.84285,5.06165 0.62799,1.33986 0.7091,1.83064 0.7091,4.29102 0,2.44876 -0.0827,2.95442 -0.69723,4.26509 -1.74899,3.73008 -5.48987,6.08131 -9.6034,6.03596 -0.88309,-0.01 -2.08187,-0.16871 -2.66396,-0.35328 z m 27.53681,-1.25567 c -1.62089,-2.01465 -4.56757,-4.08932 -7.02466,-4.94586 -0.71574,-0.24951 -0.81154,-0.38253 -0.6447,-0.89517 0.23726,-0.72897 0.26133,-5.15358 0.0321,-5.89377 -0.14102,-0.45528 0.17269,-0.68973 2.24669,-1.67903 1.97125,-0.9403 2.79567,-1.53494 4.52345,-3.26273 l 2.11286,-2.11286 1.13423,0.43316 c 4.24989,1.62305 7.05481,6.62798 6.25601,11.16284 -0.6616,3.75601 -3.273,6.96139 -6.6358,8.14518 l -0.96196,0.33863 z m -11.52952,-19.96734 c -1.95934,-2.52886 -6.18865,-5.05709 -9.525,-5.69393 -0.94588,-0.18055 -1.85355,-0.42702 -2.01704,-0.54771 -0.47776,-0.35268 -0.65593,-2.61172 -0.34076,-4.32039 0.62036,-3.36319 2.88277,-6.28567 5.99513,-7.74423 1.33502,-0.62564 1.84717,-0.71329 4.16788,-0.71329 2.4234,0 2.79488,0.0706 4.41873,0.8399 2.25558,1.06855 3.99157,2.80455 5.06013,5.06012 0.76011,1.6045 0.83989,2.01165 0.83989,4.28644 0,2.2721 -0.0794,2.67874 -0.82702,4.23334 -1.10257,2.2928 -2.38082,3.70315 -4.2461,4.6849 -2.41828,1.27281 -2.47475,1.27145 -3.52584,-0.0851 z m -26.77798,-3.17931 c -1.956411,-1.33381 -5.483742,-2.73752 -6.903902,-2.74741 -1.218212,-0.008 -1.375404,-0.34879 -1.375404,-2.97763 0,-2.32472 0.05906,-2.59039 0.998099,-4.48984 1.136275,-2.29841 2.602058,-3.75538 4.92222,-4.89262 1.336337,-0.65502 1.771617,-0.72953 4.270267,-0.73105 2.59801,-0.002 2.89647,0.0545 4.50723,0.84681 0.94874,0.46668 1.97909,1.12152 2.28966,1.45521 l 0.56466,0.60671 -0.69775,1.98438 c -0.61788,1.75721 -0.69768,2.38179 -0.69709,5.45604 l 6.6e-4,3.47167 -1.69132,0.73681 c -0.93023,0.40525 -2.24405,1.17209 -2.9196,1.70409 l -1.22829,0.96726 z m -22.699097,-1.59185 c -2.340555,-0.35153 -4.115731,-0.73588 -6.085416,-1.31758 -2.61898,-0.77346 -7.995573,-3.36339 -9.964776,-4.80008 l -1.365817,-0.99647 0.866093,-1.84734 c 2.284038,-4.87174 7.418964,-10.88614 11.79145,-13.811 6.172688,-4.12905 12.305761,-6.00391 19.575132,-5.98405 5.708725,0.0156 10.990521,1.28538 15.884471,3.81873 1.09662,0.56766 2.06249,1.03211 2.14639,1.03211 0.0839,0 0.22632,-0.62507 0.31651,-1.38906 0.76332,-6.46614 4.35505,-13.899599 9.07398,-18.779497 2.20551,-2.280747 4.0793,-2.512695 5.7989,-0.717823 0.6608,0.689726 0.77871,1.024176 0.77871,2.208806 0,1.246779 -0.11314,1.52782 -1.05834,2.629066 -5.22683,6.089748 -7.54365,11.304188 -7.97984,17.960138 -0.16087,2.45474 -0.21748,2.65631 -0.85869,3.0574 -0.37756,0.23616 -1.13331,0.77284 -1.67944,1.19262 l -0.99298,0.76323 -0.8076,-0.67955 c -1.26799,-1.06694 -3.92427,-2.44568 -5.80541,-3.01328 -8.541671,-2.5773 -17.592569,1.76897 -21.094005,10.12941 -0.908922,2.17025 -1.216043,4.37541 -1.07007,7.68322 l 0.133819,3.03241 -3.470806,-0.036 c -1.908944,-0.0198 -3.768463,-0.0807 -4.132265,-0.13537 z"
       id="path1" /></g></svg>
